<?xml version="1.0" encoding="utf-8" standalone="no"?>
<!DOCTYPE svg PUBLIC "-//W3C//DTD SVG 1.1//EN"
  "http://www.w3.org/Graphics/SVG/1.1/DTD/svg11.dtd">
<!-- Created with matplotlib (https://matplotlib.org/) -->
<svg height="914.672187pt" version="1.1" viewBox="0 0 1344.727122 914.672187" width="1344.727122pt" xmlns="http://www.w3.org/2000/svg" xmlns:xlink="http://www.w3.org/1999/xlink">
 <defs>
  <style type="text/css">
*{stroke-linecap:butt;stroke-linejoin:round;}
  </style>
 </defs>
 <g id="figure_1">
  <g id="patch_1">
   <path d="M 0 914.672187 
L 1344.727122 914.672187 
L 1344.727122 0 
L 0 0 
z
" style="fill:#ffffff;"/>
  </g>
  <g id="axes_1">
   <g id="patch_2">
    <path clip-path="url(#p3958aea34a)" d="M 595.915905 128.993437 
L 806.822198 356.145829 
L 726.263162 604.081046 
L 509.017733 544.27851 
L 455.311709 378.988365 
z
" style="fill:#8dd3c7;opacity:0.2;stroke:#8dd3c7;stroke-linejoin:miter;"/>
   </g>
   <g id="matplotlib.axis_1">
    <g id="xtick_1">
     <g id="line2d_1">
      <path clip-path="url(#p3958aea34a)" d="M 595.915905 424.673437 
L 595.915905 55.073437 
" style="fill:none;stroke:#b0b0b0;stroke-linecap:square;stroke-width:0.8;"/>
     </g>
     <g id="text_1">
      <!-- Robotics -->
      <defs>
       <path d="M 44.390625 34.1875 
Q 47.5625 33.109375 50.5625 29.59375 
Q 53.5625 26.078125 56.59375 19.921875 
L 66.609375 0 
L 56 0 
L 46.6875 18.703125 
Q 43.0625 26.03125 39.671875 28.421875 
Q 36.28125 30.8125 30.421875 30.8125 
L 19.671875 30.8125 
L 19.671875 0 
L 9.8125 0 
L 9.8125 72.90625 
L 32.078125 72.90625 
Q 44.578125 72.90625 50.734375 67.671875 
Q 56.890625 62.453125 56.890625 51.90625 
Q 56.890625 45.015625 53.6875 40.46875 
Q 50.484375 35.9375 44.390625 34.1875 
z
M 19.671875 64.796875 
L 19.671875 38.921875 
L 32.078125 38.921875 
Q 39.203125 38.921875 42.84375 42.21875 
Q 46.484375 45.515625 46.484375 51.90625 
Q 46.484375 58.296875 42.84375 61.546875 
Q 39.203125 64.796875 32.078125 64.796875 
z
" id="DejaVuSans-82"/>
       <path d="M 30.609375 48.390625 
Q 23.390625 48.390625 19.1875 42.75 
Q 14.984375 37.109375 14.984375 27.296875 
Q 14.984375 17.484375 19.15625 11.84375 
Q 23.34375 6.203125 30.609375 6.203125 
Q 37.796875 6.203125 41.984375 11.859375 
Q 46.1875 17.53125 46.1875 27.296875 
Q 46.1875 37.015625 41.984375 42.703125 
Q 37.796875 48.390625 30.609375 48.390625 
z
M 30.609375 56 
Q 42.328125 56 49.015625 48.375 
Q 55.71875 40.765625 55.71875 27.296875 
Q 55.71875 13.875 49.015625 6.21875 
Q 42.328125 -1.421875 30.609375 -1.421875 
Q 18.84375 -1.421875 12.171875 6.21875 
Q 5.515625 13.875 5.515625 27.296875 
Q 5.515625 40.765625 12.171875 48.375 
Q 18.84375 56 30.609375 56 
z
" id="DejaVuSans-111"/>
       <path d="M 48.6875 27.296875 
Q 48.6875 37.203125 44.609375 42.84375 
Q 40.53125 48.484375 33.40625 48.484375 
Q 26.265625 48.484375 22.1875 42.84375 
Q 18.109375 37.203125 18.109375 27.296875 
Q 18.109375 17.390625 22.1875 11.75 
Q 26.265625 6.109375 33.40625 6.109375 
Q 40.53125 6.109375 44.609375 11.75 
Q 48.6875 17.390625 48.6875 27.296875 
z
M 18.109375 46.390625 
Q 20.953125 51.265625 25.265625 53.625 
Q 29.59375 56 35.59375 56 
Q 45.5625 56 51.78125 48.09375 
Q 58.015625 40.1875 58.015625 27.296875 
Q 58.015625 14.40625 51.78125 6.484375 
Q 45.5625 -1.421875 35.59375 -1.421875 
Q 29.59375 -1.421875 25.265625 0.953125 
Q 20.953125 3.328125 18.109375 8.203125 
L 18.109375 0 
L 9.078125 0 
L 9.078125 75.984375 
L 18.109375 75.984375 
z
" id="DejaVuSans-98"/>
       <path d="M 18.3125 70.21875 
L 18.3125 54.6875 
L 36.8125 54.6875 
L 36.8125 47.703125 
L 18.3125 47.703125 
L 18.3125 18.015625 
Q 18.3125 11.328125 20.140625 9.421875 
Q 21.96875 7.515625 27.59375 7.515625 
L 36.8125 7.515625 
L 36.8125 0 
L 27.59375 0 
Q 17.1875 0 13.234375 3.875 
Q 9.28125 7.765625 9.28125 18.015625 
L 9.28125 47.703125 
L 2.6875 47.703125 
L 2.6875 54.6875 
L 9.28125 54.6875 
L 9.28125 70.21875 
z
" id="DejaVuSans-116"/>
       <path d="M 9.421875 54.6875 
L 18.40625 54.6875 
L 18.40625 0 
L 9.421875 0 
z
M 9.421875 75.984375 
L 18.40625 75.984375 
L 18.40625 64.59375 
L 9.421875 64.59375 
z
" id="DejaVuSans-105"/>
       <path d="M 48.78125 52.59375 
L 48.78125 44.1875 
Q 44.96875 46.296875 41.140625 47.34375 
Q 37.3125 48.390625 33.40625 48.390625 
Q 24.65625 48.390625 19.8125 42.84375 
Q 14.984375 37.3125 14.984375 27.296875 
Q 14.984375 17.28125 19.8125 11.734375 
Q 24.65625 6.203125 33.40625 6.203125 
Q 37.3125 6.203125 41.140625 7.25 
Q 44.96875 8.296875 48.78125 10.40625 
L 48.78125 2.09375 
Q 45.015625 0.34375 40.984375 -0.53125 
Q 36.96875 -1.421875 32.421875 -1.421875 
Q 20.0625 -1.421875 12.78125 6.34375 
Q 5.515625 14.109375 5.515625 27.296875 
Q 5.515625 40.671875 12.859375 48.328125 
Q 20.21875 56 33.015625 56 
Q 37.15625 56 41.109375 55.140625 
Q 45.0625 54.296875 48.78125 52.59375 
z
" id="DejaVuSans-99"/>
       <path d="M 44.28125 53.078125 
L 44.28125 44.578125 
Q 40.484375 46.53125 36.375 47.5 
Q 32.28125 48.484375 27.875 48.484375 
Q 21.1875 48.484375 17.84375 46.4375 
Q 14.5 44.390625 14.5 40.28125 
Q 14.5 37.15625 16.890625 35.375 
Q 19.28125 33.59375 26.515625 31.984375 
L 29.59375 31.296875 
Q 39.15625 29.25 43.1875 25.515625 
Q 47.21875 21.78125 47.21875 15.09375 
Q 47.21875 7.46875 41.1875 3.015625 
Q 35.15625 -1.421875 24.609375 -1.421875 
Q 20.21875 -1.421875 15.453125 -0.5625 
Q 10.6875 0.296875 5.421875 2 
L 5.421875 11.28125 
Q 10.40625 8.6875 15.234375 7.390625 
Q 20.0625 6.109375 24.8125 6.109375 
Q 31.15625 6.109375 34.5625 8.28125 
Q 37.984375 10.453125 37.984375 14.40625 
Q 37.984375 18.0625 35.515625 20.015625 
Q 33.0625 21.96875 24.703125 23.78125 
L 21.578125 24.515625 
Q 13.234375 26.265625 9.515625 29.90625 
Q 5.8125 33.546875 5.8125 39.890625 
Q 5.8125 47.609375 11.28125 51.796875 
Q 16.75 56 26.8125 56 
Q 31.78125 56 36.171875 55.265625 
Q 40.578125 54.546875 44.28125 53.078125 
z
" id="DejaVuSans-115"/>
      </defs>
      <g style="fill:#808080;" transform="translate(520.780748 33.794531)scale(0.35 -0.35)">
       <use xlink:href="#DejaVuSans-82"/>
       <use x="69.419922" xlink:href="#DejaVuSans-111"/>
       <use x="130.601562" xlink:href="#DejaVuSans-98"/>
       <use x="194.078125" xlink:href="#DejaVuSans-111"/>
       <use x="255.259766" xlink:href="#DejaVuSans-116"/>
       <use x="294.46875" xlink:href="#DejaVuSans-105"/>
       <use x="322.251953" xlink:href="#DejaVuSans-99"/>
       <use x="377.232422" xlink:href="#DejaVuSans-115"/>
      </g>
     </g>
    </g>
    <g id="xtick_2">
     <g id="line2d_2">
      <path clip-path="url(#p3958aea34a)" d="M 595.915905 424.673437 
L 947.426393 310.460756 
" style="fill:none;stroke:#b0b0b0;stroke-linecap:square;stroke-width:0.8;"/>
     </g>
     <g id="text_2">
      <!-- Software Engineering -->
      <defs>
       <path d="M 53.515625 70.515625 
L 53.515625 60.890625 
Q 47.90625 63.578125 42.921875 64.890625 
Q 37.9375 66.21875 33.296875 66.21875 
Q 25.25 66.21875 20.875 63.09375 
Q 16.5 59.96875 16.5 54.203125 
Q 16.5 49.359375 19.40625 46.890625 
Q 22.3125 44.4375 30.421875 42.921875 
L 36.375 41.703125 
Q 47.40625 39.59375 52.65625 34.296875 
Q 57.90625 29 57.90625 20.125 
Q 57.90625 9.515625 50.796875 4.046875 
Q 43.703125 -1.421875 29.984375 -1.421875 
Q 24.8125 -1.421875 18.96875 -0.25 
Q 13.140625 0.921875 6.890625 3.21875 
L 6.890625 13.375 
Q 12.890625 10.015625 18.65625 8.296875 
Q 24.421875 6.59375 29.984375 6.59375 
Q 38.421875 6.59375 43.015625 9.90625 
Q 47.609375 13.234375 47.609375 19.390625 
Q 47.609375 24.75 44.3125 27.78125 
Q 41.015625 30.8125 33.5 32.328125 
L 27.484375 33.5 
Q 16.453125 35.6875 11.515625 40.375 
Q 6.59375 45.0625 6.59375 53.421875 
Q 6.59375 63.09375 13.40625 68.65625 
Q 20.21875 74.21875 32.171875 74.21875 
Q 37.3125 74.21875 42.625 73.28125 
Q 47.953125 72.359375 53.515625 70.515625 
z
" id="DejaVuSans-83"/>
       <path d="M 37.109375 75.984375 
L 37.109375 68.5 
L 28.515625 68.5 
Q 23.6875 68.5 21.796875 66.546875 
Q 19.921875 64.59375 19.921875 59.515625 
L 19.921875 54.6875 
L 34.71875 54.6875 
L 34.71875 47.703125 
L 19.921875 47.703125 
L 19.921875 0 
L 10.890625 0 
L 10.890625 47.703125 
L 2.296875 47.703125 
L 2.296875 54.6875 
L 10.890625 54.6875 
L 10.890625 58.5 
Q 10.890625 67.625 15.140625 71.796875 
Q 19.390625 75.984375 28.609375 75.984375 
z
" id="DejaVuSans-102"/>
       <path d="M 4.203125 54.6875 
L 13.1875 54.6875 
L 24.421875 12.015625 
L 35.59375 54.6875 
L 46.1875 54.6875 
L 57.421875 12.015625 
L 68.609375 54.6875 
L 77.59375 54.6875 
L 63.28125 0 
L 52.6875 0 
L 40.921875 44.828125 
L 29.109375 0 
L 18.5 0 
z
" id="DejaVuSans-119"/>
       <path d="M 34.28125 27.484375 
Q 23.390625 27.484375 19.1875 25 
Q 14.984375 22.515625 14.984375 16.5 
Q 14.984375 11.71875 18.140625 8.90625 
Q 21.296875 6.109375 26.703125 6.109375 
Q 34.1875 6.109375 38.703125 11.40625 
Q 43.21875 16.703125 43.21875 25.484375 
L 43.21875 27.484375 
z
M 52.203125 31.203125 
L 52.203125 0 
L 43.21875 0 
L 43.21875 8.296875 
Q 40.140625 3.328125 35.546875 0.953125 
Q 30.953125 -1.421875 24.3125 -1.421875 
Q 15.921875 -1.421875 10.953125 3.296875 
Q 6 8.015625 6 15.921875 
Q 6 25.140625 12.171875 29.828125 
Q 18.359375 34.515625 30.609375 34.515625 
L 43.21875 34.515625 
L 43.21875 35.40625 
Q 43.21875 41.609375 39.140625 45 
Q 35.0625 48.390625 27.6875 48.390625 
Q 23 48.390625 18.546875 47.265625 
Q 14.109375 46.140625 10.015625 43.890625 
L 10.015625 52.203125 
Q 14.9375 54.109375 19.578125 55.046875 
Q 24.21875 56 28.609375 56 
Q 40.484375 56 46.34375 49.84375 
Q 52.203125 43.703125 52.203125 31.203125 
z
" id="DejaVuSans-97"/>
       <path d="M 41.109375 46.296875 
Q 39.59375 47.171875 37.8125 47.578125 
Q 36.03125 48 33.890625 48 
Q 26.265625 48 22.1875 43.046875 
Q 18.109375 38.09375 18.109375 28.8125 
L 18.109375 0 
L 9.078125 0 
L 9.078125 54.6875 
L 18.109375 54.6875 
L 18.109375 46.1875 
Q 20.953125 51.171875 25.484375 53.578125 
Q 30.03125 56 36.53125 56 
Q 37.453125 56 38.578125 55.875 
Q 39.703125 55.765625 41.0625 55.515625 
z
" id="DejaVuSans-114"/>
       <path d="M 56.203125 29.59375 
L 56.203125 25.203125 
L 14.890625 25.203125 
Q 15.484375 15.921875 20.484375 11.0625 
Q 25.484375 6.203125 34.421875 6.203125 
Q 39.59375 6.203125 44.453125 7.46875 
Q 49.3125 8.734375 54.109375 11.28125 
L 54.109375 2.78125 
Q 49.265625 0.734375 44.1875 -0.34375 
Q 39.109375 -1.421875 33.890625 -1.421875 
Q 20.796875 -1.421875 13.15625 6.1875 
Q 5.515625 13.8125 5.515625 26.8125 
Q 5.515625 40.234375 12.765625 48.109375 
Q 20.015625 56 32.328125 56 
Q 43.359375 56 49.78125 48.890625 
Q 56.203125 41.796875 56.203125 29.59375 
z
M 47.21875 32.234375 
Q 47.125 39.59375 43.09375 43.984375 
Q 39.0625 48.390625 32.421875 48.390625 
Q 24.90625 48.390625 20.390625 44.140625 
Q 15.875 39.890625 15.1875 32.171875 
z
" id="DejaVuSans-101"/>
       <path id="DejaVuSans-32"/>
       <path d="M 9.8125 72.90625 
L 55.90625 72.90625 
L 55.90625 64.59375 
L 19.671875 64.59375 
L 19.671875 43.015625 
L 54.390625 43.015625 
L 54.390625 34.71875 
L 19.671875 34.71875 
L 19.671875 8.296875 
L 56.78125 8.296875 
L 56.78125 0 
L 9.8125 0 
z
" id="DejaVuSans-69"/>
       <path d="M 54.890625 33.015625 
L 54.890625 0 
L 45.90625 0 
L 45.90625 32.71875 
Q 45.90625 40.484375 42.875 44.328125 
Q 39.84375 48.1875 33.796875 48.1875 
Q 26.515625 48.1875 22.3125 43.546875 
Q 18.109375 38.921875 18.109375 30.90625 
L 18.109375 0 
L 9.078125 0 
L 9.078125 54.6875 
L 18.109375 54.6875 
L 18.109375 46.1875 
Q 21.34375 51.125 25.703125 53.5625 
Q 30.078125 56 35.796875 56 
Q 45.21875 56 50.046875 50.171875 
Q 54.890625 44.34375 54.890625 33.015625 
z
" id="DejaVuSans-110"/>
       <path d="M 45.40625 27.984375 
Q 45.40625 37.75 41.375 43.109375 
Q 37.359375 48.484375 30.078125 48.484375 
Q 22.859375 48.484375 18.828125 43.109375 
Q 14.796875 37.75 14.796875 27.984375 
Q 14.796875 18.265625 18.828125 12.890625 
Q 22.859375 7.515625 30.078125 7.515625 
Q 37.359375 7.515625 41.375 12.890625 
Q 45.40625 18.265625 45.40625 27.984375 
z
M 54.390625 6.78125 
Q 54.390625 -7.171875 48.1875 -13.984375 
Q 42 -20.796875 29.203125 -20.796875 
Q 24.46875 -20.796875 20.265625 -20.09375 
Q 16.0625 -19.390625 12.109375 -17.921875 
L 12.109375 -9.1875 
Q 16.0625 -11.328125 19.921875 -12.34375 
Q 23.78125 -13.375 27.78125 -13.375 
Q 36.625 -13.375 41.015625 -8.765625 
Q 45.40625 -4.15625 45.40625 5.171875 
L 45.40625 9.625 
Q 42.625 4.78125 38.28125 2.390625 
Q 33.9375 0 27.875 0 
Q 17.828125 0 11.671875 7.65625 
Q 5.515625 15.328125 5.515625 27.984375 
Q 5.515625 40.671875 11.671875 48.328125 
Q 17.828125 56 27.875 56 
Q 33.9375 56 38.28125 53.609375 
Q 42.625 51.21875 45.40625 46.390625 
L 45.40625 54.6875 
L 54.390625 54.6875 
z
" id="DejaVuSans-103"/>
      </defs>
      <g style="fill:#808080;" transform="translate(960.741184 315.792331)scale(0.35 -0.35)">
       <use xlink:href="#DejaVuSans-83"/>
       <use x="63.476562" xlink:href="#DejaVuSans-111"/>
       <use x="124.658203" xlink:href="#DejaVuSans-102"/>
       <use x="159.847656" xlink:href="#DejaVuSans-116"/>
       <use x="199.056641" xlink:href="#DejaVuSans-119"/>
       <use x="280.84375" xlink:href="#DejaVuSans-97"/>
       <use x="342.123047" xlink:href="#DejaVuSans-114"/>
       <use x="383.205078" xlink:href="#DejaVuSans-101"/>
       <use x="444.728516" xlink:href="#DejaVuSans-32"/>
       <use x="476.515625" xlink:href="#DejaVuSans-69"/>
       <use x="539.699219" xlink:href="#DejaVuSans-110"/>
       <use x="603.078125" xlink:href="#DejaVuSans-103"/>
       <use x="666.554688" xlink:href="#DejaVuSans-105"/>
       <use x="694.337891" xlink:href="#DejaVuSans-110"/>
       <use x="757.716797" xlink:href="#DejaVuSans-101"/>
       <use x="819.240234" xlink:href="#DejaVuSans-101"/>
       <use x="880.763672" xlink:href="#DejaVuSans-114"/>
       <use x="921.876953" xlink:href="#DejaVuSans-105"/>
       <use x="949.660156" xlink:href="#DejaVuSans-110"/>
       <use x="1013.039062" xlink:href="#DejaVuSans-103"/>
      </g>
     </g>
    </g>
    <g id="xtick_3">
     <g id="line2d_3">
      <path clip-path="url(#p3958aea34a)" d="M 595.915905 424.673437 
L 813.161334 723.686119 
" style="fill:none;stroke:#b0b0b0;stroke-linecap:square;stroke-width:0.8;"/>
     </g>
     <g id="text_3">
      <!-- Control Theory -->
      <defs>
       <path d="M 64.40625 67.28125 
L 64.40625 56.890625 
Q 59.421875 61.53125 53.78125 63.8125 
Q 48.140625 66.109375 41.796875 66.109375 
Q 29.296875 66.109375 22.65625 58.46875 
Q 16.015625 50.828125 16.015625 36.375 
Q 16.015625 21.96875 22.65625 14.328125 
Q 29.296875 6.6875 41.796875 6.6875 
Q 48.140625 6.6875 53.78125 8.984375 
Q 59.421875 11.28125 64.40625 15.921875 
L 64.40625 5.609375 
Q 59.234375 2.09375 53.4375 0.328125 
Q 47.65625 -1.421875 41.21875 -1.421875 
Q 24.65625 -1.421875 15.125 8.703125 
Q 5.609375 18.84375 5.609375 36.375 
Q 5.609375 53.953125 15.125 64.078125 
Q 24.65625 74.21875 41.21875 74.21875 
Q 47.75 74.21875 53.53125 72.484375 
Q 59.328125 70.75 64.40625 67.28125 
z
" id="DejaVuSans-67"/>
       <path d="M 9.421875 75.984375 
L 18.40625 75.984375 
L 18.40625 0 
L 9.421875 0 
z
" id="DejaVuSans-108"/>
       <path d="M -0.296875 72.90625 
L 61.375 72.90625 
L 61.375 64.59375 
L 35.5 64.59375 
L 35.5 0 
L 25.59375 0 
L 25.59375 64.59375 
L -0.296875 64.59375 
z
" id="DejaVuSans-84"/>
       <path d="M 54.890625 33.015625 
L 54.890625 0 
L 45.90625 0 
L 45.90625 32.71875 
Q 45.90625 40.484375 42.875 44.328125 
Q 39.84375 48.1875 33.796875 48.1875 
Q 26.515625 48.1875 22.3125 43.546875 
Q 18.109375 38.921875 18.109375 30.90625 
L 18.109375 0 
L 9.078125 0 
L 9.078125 75.984375 
L 18.109375 75.984375 
L 18.109375 46.1875 
Q 21.34375 51.125 25.703125 53.5625 
Q 30.078125 56 35.796875 56 
Q 45.21875 56 50.046875 50.171875 
Q 54.890625 44.34375 54.890625 33.015625 
z
" id="DejaVuSans-104"/>
       <path d="M 32.171875 -5.078125 
Q 28.375 -14.84375 24.75 -17.8125 
Q 21.140625 -20.796875 15.09375 -20.796875 
L 7.90625 -20.796875 
L 7.90625 -13.28125 
L 13.1875 -13.28125 
Q 16.890625 -13.28125 18.9375 -11.515625 
Q 21 -9.765625 23.484375 -3.21875 
L 25.09375 0.875 
L 2.984375 54.6875 
L 12.5 54.6875 
L 29.59375 11.921875 
L 46.6875 54.6875 
L 56.203125 54.6875 
z
" id="DejaVuSans-121"/>
      </defs>
      <g style="fill:#808080;" transform="translate(821.390327 761.606888)scale(0.35 -0.35)">
       <use xlink:href="#DejaVuSans-67"/>
       <use x="69.824219" xlink:href="#DejaVuSans-111"/>
       <use x="131.005859" xlink:href="#DejaVuSans-110"/>
       <use x="194.384766" xlink:href="#DejaVuSans-116"/>
       <use x="233.59375" xlink:href="#DejaVuSans-114"/>
       <use x="274.675781" xlink:href="#DejaVuSans-111"/>
       <use x="335.857422" xlink:href="#DejaVuSans-108"/>
       <use x="363.640625" xlink:href="#DejaVuSans-32"/>
       <use x="395.427734" xlink:href="#DejaVuSans-84"/>
       <use x="456.511719" xlink:href="#DejaVuSans-104"/>
       <use x="519.890625" xlink:href="#DejaVuSans-101"/>
       <use x="581.414062" xlink:href="#DejaVuSans-111"/>
       <use x="642.595703" xlink:href="#DejaVuSans-114"/>
       <use x="683.708984" xlink:href="#DejaVuSans-121"/>
      </g>
     </g>
    </g>
    <g id="xtick_4">
     <g id="line2d_4">
      <path clip-path="url(#p3958aea34a)" d="M 595.915905 424.673437 
L 378.670475 723.686119 
" style="fill:none;stroke:#b0b0b0;stroke-linecap:square;stroke-width:0.8;"/>
     </g>
     <g id="text_4">
      <!-- Machine Learning -->
      <defs>
       <path d="M 9.8125 72.90625 
L 24.515625 72.90625 
L 43.109375 23.296875 
L 61.8125 72.90625 
L 76.515625 72.90625 
L 76.515625 0 
L 66.890625 0 
L 66.890625 64.015625 
L 48.09375 14.015625 
L 38.1875 14.015625 
L 19.390625 64.015625 
L 19.390625 0 
L 9.8125 0 
z
" id="DejaVuSans-77"/>
       <path d="M 9.8125 72.90625 
L 19.671875 72.90625 
L 19.671875 8.296875 
L 55.171875 8.296875 
L 55.171875 0 
L 9.8125 0 
z
" id="DejaVuSans-76"/>
      </defs>
      <g style="fill:#808080;" transform="translate(59.636013 761.606888)scale(0.35 -0.35)">
       <use xlink:href="#DejaVuSans-77"/>
       <use x="86.279297" xlink:href="#DejaVuSans-97"/>
       <use x="147.558594" xlink:href="#DejaVuSans-99"/>
       <use x="202.539062" xlink:href="#DejaVuSans-104"/>
       <use x="265.917969" xlink:href="#DejaVuSans-105"/>
       <use x="293.701172" xlink:href="#DejaVuSans-110"/>
       <use x="357.080078" xlink:href="#DejaVuSans-101"/>
       <use x="418.603516" xlink:href="#DejaVuSans-32"/>
       <use x="450.390625" xlink:href="#DejaVuSans-76"/>
       <use x="506.087891" xlink:href="#DejaVuSans-101"/>
       <use x="567.611328" xlink:href="#DejaVuSans-97"/>
       <use x="628.890625" xlink:href="#DejaVuSans-114"/>
       <use x="669.988281" xlink:href="#DejaVuSans-110"/>
       <use x="733.367188" xlink:href="#DejaVuSans-105"/>
       <use x="761.150391" xlink:href="#DejaVuSans-110"/>
       <use x="824.529297" xlink:href="#DejaVuSans-103"/>
      </g>
     </g>
    </g>
    <g id="xtick_5">
     <g id="line2d_5">
      <path clip-path="url(#p3958aea34a)" d="M 595.915905 424.673437 
L 244.405416 310.460756 
" style="fill:none;stroke:#b0b0b0;stroke-linecap:square;stroke-width:0.8;"/>
     </g>
     <g id="text_5">
      <!-- Optimization -->
      <defs>
       <path d="M 39.40625 66.21875 
Q 28.65625 66.21875 22.328125 58.203125 
Q 16.015625 50.203125 16.015625 36.375 
Q 16.015625 22.609375 22.328125 14.59375 
Q 28.65625 6.59375 39.40625 6.59375 
Q 50.140625 6.59375 56.421875 14.59375 
Q 62.703125 22.609375 62.703125 36.375 
Q 62.703125 50.203125 56.421875 58.203125 
Q 50.140625 66.21875 39.40625 66.21875 
z
M 39.40625 74.21875 
Q 54.734375 74.21875 63.90625 63.9375 
Q 73.09375 53.65625 73.09375 36.375 
Q 73.09375 19.140625 63.90625 8.859375 
Q 54.734375 -1.421875 39.40625 -1.421875 
Q 24.03125 -1.421875 14.8125 8.828125 
Q 5.609375 19.09375 5.609375 36.375 
Q 5.609375 53.65625 14.8125 63.9375 
Q 24.03125 74.21875 39.40625 74.21875 
z
" id="DejaVuSans-79"/>
       <path d="M 18.109375 8.203125 
L 18.109375 -20.796875 
L 9.078125 -20.796875 
L 9.078125 54.6875 
L 18.109375 54.6875 
L 18.109375 46.390625 
Q 20.953125 51.265625 25.265625 53.625 
Q 29.59375 56 35.59375 56 
Q 45.5625 56 51.78125 48.09375 
Q 58.015625 40.1875 58.015625 27.296875 
Q 58.015625 14.40625 51.78125 6.484375 
Q 45.5625 -1.421875 35.59375 -1.421875 
Q 29.59375 -1.421875 25.265625 0.953125 
Q 20.953125 3.328125 18.109375 8.203125 
z
M 48.6875 27.296875 
Q 48.6875 37.203125 44.609375 42.84375 
Q 40.53125 48.484375 33.40625 48.484375 
Q 26.265625 48.484375 22.1875 42.84375 
Q 18.109375 37.203125 18.109375 27.296875 
Q 18.109375 17.390625 22.1875 11.75 
Q 26.265625 6.109375 33.40625 6.109375 
Q 40.53125 6.109375 44.609375 11.75 
Q 48.6875 17.390625 48.6875 27.296875 
z
" id="DejaVuSans-112"/>
       <path d="M 52 44.1875 
Q 55.375 50.25 60.0625 53.125 
Q 64.75 56 71.09375 56 
Q 79.640625 56 84.28125 50.015625 
Q 88.921875 44.046875 88.921875 33.015625 
L 88.921875 0 
L 79.890625 0 
L 79.890625 32.71875 
Q 79.890625 40.578125 77.09375 44.375 
Q 74.3125 48.1875 68.609375 48.1875 
Q 61.625 48.1875 57.5625 43.546875 
Q 53.515625 38.921875 53.515625 30.90625 
L 53.515625 0 
L 44.484375 0 
L 44.484375 32.71875 
Q 44.484375 40.625 41.703125 44.40625 
Q 38.921875 48.1875 33.109375 48.1875 
Q 26.21875 48.1875 22.15625 43.53125 
Q 18.109375 38.875 18.109375 30.90625 
L 18.109375 0 
L 9.078125 0 
L 9.078125 54.6875 
L 18.109375 54.6875 
L 18.109375 46.1875 
Q 21.1875 51.21875 25.484375 53.609375 
Q 29.78125 56 35.6875 56 
Q 41.65625 56 45.828125 52.96875 
Q 50 49.953125 52 44.1875 
z
" id="DejaVuSans-109"/>
       <path d="M 5.515625 54.6875 
L 48.1875 54.6875 
L 48.1875 46.484375 
L 14.40625 7.171875 
L 48.1875 7.171875 
L 48.1875 0 
L 4.296875 0 
L 4.296875 8.203125 
L 38.09375 47.515625 
L 5.515625 47.515625 
z
" id="DejaVuSans-122"/>
      </defs>
      <g style="fill:#808080;" transform="translate(7.2 315.792331)scale(0.35 -0.35)">
       <use xlink:href="#DejaVuSans-79"/>
       <use x="78.710938" xlink:href="#DejaVuSans-112"/>
       <use x="142.1875" xlink:href="#DejaVuSans-116"/>
       <use x="181.396484" xlink:href="#DejaVuSans-105"/>
       <use x="209.179688" xlink:href="#DejaVuSans-109"/>
       <use x="306.591797" xlink:href="#DejaVuSans-105"/>
       <use x="334.375" xlink:href="#DejaVuSans-122"/>
       <use x="386.865234" xlink:href="#DejaVuSans-97"/>
       <use x="448.144531" xlink:href="#DejaVuSans-116"/>
       <use x="487.353516" xlink:href="#DejaVuSans-105"/>
       <use x="515.136719" xlink:href="#DejaVuSans-111"/>
       <use x="576.318359" xlink:href="#DejaVuSans-110"/>
      </g>
     </g>
    </g>
   </g>
   <g id="matplotlib.axis_2">
    <g id="ytick_1">
     <g id="line2d_6">
      <path clip-path="url(#p3958aea34a)" d="M 595.915905 350.753437 
L 601.072303 350.933503 
L 606.20358 351.472822 
L 611.284737 352.368767 
L 616.291018 353.616973 
L 621.198034 355.211359 
L 625.981877 357.144157 
L 630.619243 359.405951 
L 635.087537 361.985722 
L 639.364991 364.870901 
L 643.430765 368.047432 
L 647.265051 371.499839 
L 650.84917 375.211303 
L 654.16566 379.163741 
L 657.198362 383.337898 
L 659.932502 387.713437 
L 662.354761 392.269042 
L 664.453335 396.982518 
L 666.218002 401.830901 
L 667.640165 406.790571 
L 668.712894 411.837364 
L 669.430963 416.946693 
L 669.790875 422.093667 
L 669.790875 427.253208 
L 669.430963 432.400182 
L 668.712894 437.509511 
L 667.640165 442.556304 
L 666.218002 447.515974 
L 664.453335 452.364357 
L 662.354761 457.077833 
L 659.932502 461.633437 
L 657.198362 466.008977 
L 654.16566 470.183134 
L 650.84917 474.135572 
L 647.265051 477.847036 
L 643.430765 481.299443 
L 639.364991 484.475974 
L 635.087537 487.361153 
L 630.619243 489.940924 
L 625.981877 492.202718 
L 621.198034 494.135516 
L 616.291018 495.729902 
L 611.284737 496.978108 
L 606.20358 497.874053 
L 601.072303 498.413372 
L 595.915905 498.593437 
L 590.759506 498.413372 
L 585.628229 497.874053 
L 580.547072 496.978108 
L 575.540791 495.729902 
L 570.633776 494.135516 
L 565.849932 492.202718 
L 561.212567 489.940924 
L 556.744273 487.361153 
L 552.466819 484.475974 
L 548.401045 481.299443 
L 544.566758 477.847036 
L 540.982639 474.135572 
L 537.66615 470.183134 
L 534.633447 466.008977 
L 531.899307 461.633437 
L 529.477049 457.077833 
L 527.378474 452.364357 
L 525.613807 447.515974 
L 524.191645 442.556304 
L 523.118916 437.509511 
L 522.400846 432.400182 
L 522.040935 427.253208 
L 522.040935 422.093667 
L 522.400846 416.946693 
L 523.118916 411.837364 
L 524.191645 406.790571 
L 525.613807 401.830901 
L 527.378474 396.982518 
L 529.477049 392.269042 
L 531.899307 387.713437 
L 534.633447 383.337898 
L 537.66615 379.163741 
L 540.982639 375.211303 
L 544.566758 371.499839 
L 548.401045 368.047432 
L 552.466819 364.870901 
L 556.744273 361.985722 
L 561.212567 359.405951 
L 565.849932 357.144157 
L 570.633776 355.211359 
L 575.540791 353.616973 
L 580.547072 352.368767 
L 585.628229 351.472822 
L 590.759506 350.933503 
L 595.915905 350.753437 
L 595.915905 350.753437 
" style="fill:none;stroke:#b0b0b0;stroke-linecap:square;stroke-width:0.8;"/>
     </g>
     <g id="text_6">
      <!-- Fundamental -->
      <defs>
       <path d="M 9.8125 72.90625 
L 51.703125 72.90625 
L 51.703125 64.59375 
L 19.671875 64.59375 
L 19.671875 43.109375 
L 48.578125 43.109375 
L 48.578125 34.8125 
L 19.671875 34.8125 
L 19.671875 0 
L 9.8125 0 
z
" id="DejaVuSans-70"/>
       <path d="M 8.5 21.578125 
L 8.5 54.6875 
L 17.484375 54.6875 
L 17.484375 21.921875 
Q 17.484375 14.15625 20.5 10.265625 
Q 23.53125 6.390625 29.59375 6.390625 
Q 36.859375 6.390625 41.078125 11.03125 
Q 45.3125 15.671875 45.3125 23.6875 
L 45.3125 54.6875 
L 54.296875 54.6875 
L 54.296875 0 
L 45.3125 0 
L 45.3125 8.40625 
Q 42.046875 3.421875 37.71875 1 
Q 33.40625 -1.421875 27.6875 -1.421875 
Q 18.265625 -1.421875 13.375 4.4375 
Q 8.5 10.296875 8.5 21.578125 
z
M 31.109375 56 
z
" id="DejaVuSans-117"/>
       <path d="M 45.40625 46.390625 
L 45.40625 75.984375 
L 54.390625 75.984375 
L 54.390625 0 
L 45.40625 0 
L 45.40625 8.203125 
Q 42.578125 3.328125 38.25 0.953125 
Q 33.9375 -1.421875 27.875 -1.421875 
Q 17.96875 -1.421875 11.734375 6.484375 
Q 5.515625 14.40625 5.515625 27.296875 
Q 5.515625 40.1875 11.734375 48.09375 
Q 17.96875 56 27.875 56 
Q 33.9375 56 38.25 53.625 
Q 42.578125 51.265625 45.40625 46.390625 
z
M 14.796875 27.296875 
Q 14.796875 17.390625 18.875 11.75 
Q 22.953125 6.109375 30.078125 6.109375 
Q 37.203125 6.109375 41.296875 11.75 
Q 45.40625 17.390625 45.40625 27.296875 
Q 45.40625 37.203125 41.296875 42.84375 
Q 37.203125 48.484375 30.078125 48.484375 
Q 22.953125 48.484375 18.875 42.84375 
Q 14.796875 37.203125 14.796875 27.296875 
z
" id="DejaVuSans-100"/>
      </defs>
      <g style="fill:#808080;opacity:0.9;" transform="translate(555.701864 479.418699)scale(0.35 -0.35)">
       <use xlink:href="#DejaVuSans-70"/>
       <use x="57.441406" xlink:href="#DejaVuSans-117"/>
       <use x="120.820312" xlink:href="#DejaVuSans-110"/>
       <use x="184.199219" xlink:href="#DejaVuSans-100"/>
       <use x="247.675781" xlink:href="#DejaVuSans-97"/>
       <use x="308.955078" xlink:href="#DejaVuSans-109"/>
       <use x="406.367188" xlink:href="#DejaVuSans-101"/>
       <use x="467.890625" xlink:href="#DejaVuSans-110"/>
       <use x="531.269531" xlink:href="#DejaVuSans-116"/>
       <use x="570.478516" xlink:href="#DejaVuSans-97"/>
       <use x="631.757812" xlink:href="#DejaVuSans-108"/>
      </g>
     </g>
    </g>
    <g id="ytick_2">
     <g id="line2d_7">
      <path clip-path="url(#p3958aea34a)" d="M 595.915905 276.833437 
L 601.075446 276.923498 
L 606.228702 277.193568 
L 611.369393 277.64332 
L 616.491256 278.272206 
L 621.588051 279.079459 
L 626.653569 280.064096 
L 631.681638 281.224917 
L 636.666131 282.560508 
L 641.600977 284.069242 
L 646.480163 285.74928 
L 651.297743 287.598576 
L 656.04785 289.614877 
L 660.724695 291.795726 
L 665.32258 294.138465 
L 669.835905 296.640242 
L 674.259169 299.298007 
L 678.586983 302.108523 
L 682.814076 305.068365 
L 686.935297 308.173928 
L 690.945625 311.421427 
L 694.840173 314.806907 
L 698.614198 318.326241 
L 702.263101 321.975144 
L 705.782436 325.749169 
L 709.167915 329.643717 
L 712.415414 333.654045 
L 715.520977 337.775266 
L 718.480819 342.002359 
L 721.291335 346.330173 
L 723.9491 350.753437 
L 726.450877 355.266762 
L 728.793616 359.864647 
L 730.974465 364.541492 
L 732.990766 369.291599 
L 734.840062 374.10918 
L 736.5201 378.988365 
L 738.028834 383.923211 
L 739.364425 388.907704 
L 740.525246 393.935773 
L 741.509883 399.001291 
L 742.317136 404.098086 
L 742.946022 409.219949 
L 743.395774 414.36064 
L 743.665845 419.513896 
L 743.755905 424.673437 
L 743.665845 429.832979 
L 743.395774 434.986235 
L 742.946022 440.126926 
L 742.317136 445.248789 
L 741.509883 450.345584 
L 740.525246 455.411102 
L 739.364425 460.439171 
L 738.028834 465.423664 
L 736.5201 470.35851 
L 734.840062 475.237695 
L 732.990766 480.055276 
L 730.974465 484.805383 
L 728.793616 489.482228 
L 726.450877 494.080113 
L 723.9491 498.593437 
L 721.291335 503.016702 
L 718.480819 507.344516 
L 715.520977 511.571609 
L 712.415414 515.69283 
L 709.167915 519.703158 
L 705.782436 523.597706 
L 702.263101 527.371731 
L 698.614198 531.020634 
L 694.840173 534.539968 
L 690.945625 537.925448 
L 686.935297 541.172947 
L 682.814076 544.27851 
L 678.586983 547.238352 
L 674.259169 550.048868 
L 669.835905 552.706633 
L 665.32258 555.20841 
L 660.724695 557.551149 
L 656.04785 559.731998 
L 651.297743 561.748299 
L 646.480163 563.597595 
L 641.600977 565.277633 
L 636.666131 566.786367 
L 631.681638 568.121958 
L 626.653569 569.282779 
L 621.588051 570.267416 
L 616.491256 571.074669 
L 611.369393 571.703555 
L 606.228702 572.153307 
L 601.075446 572.423377 
L 595.915905 572.513437 
L 590.756363 572.423377 
L 585.603108 572.153307 
L 580.462417 571.703555 
L 575.340553 571.074669 
L 570.243758 570.267416 
L 565.17824 569.282779 
L 560.150172 568.121958 
L 555.165678 566.786367 
L 550.230832 565.277633 
L 545.351647 563.597595 
L 540.534066 561.748299 
L 535.783959 559.731998 
L 531.107114 557.551149 
L 526.509229 555.20841 
L 521.995905 552.706633 
L 517.572641 550.048868 
L 513.244826 547.238352 
L 509.017733 544.27851 
L 504.896512 541.172947 
L 500.886184 537.925448 
L 496.991636 534.539968 
L 493.217611 531.020634 
L 489.568709 527.371731 
L 486.049374 523.597706 
L 482.663894 519.703158 
L 479.416395 515.69283 
L 476.310832 511.571609 
L 473.35099 507.344516 
L 470.540474 503.016702 
L 467.882709 498.593437 
L 465.380933 494.080113 
L 463.038193 489.482228 
L 460.857344 484.805383 
L 458.841044 480.055276 
L 456.991748 475.237695 
L 455.311709 470.35851 
L 453.802976 465.423664 
L 452.467384 460.439171 
L 451.306563 455.411102 
L 450.321926 450.345584 
L 449.514673 445.248789 
L 448.885788 440.126926 
L 448.436035 434.986235 
L 448.165965 429.832979 
L 448.075905 424.673437 
L 448.165965 419.513896 
L 448.436035 414.36064 
L 448.885788 409.219949 
L 449.514673 404.098086 
L 450.321926 399.001291 
L 451.306563 393.935773 
L 452.467384 388.907704 
L 453.802976 383.923211 
L 455.311709 378.988365 
L 456.991748 374.10918 
L 458.841044 369.291599 
L 460.857344 364.541492 
L 463.038193 359.864647 
L 465.380933 355.266762 
L 467.882709 350.753437 
L 470.540474 346.330173 
L 473.35099 342.002359 
L 476.310832 337.775266 
L 479.416395 333.654045 
L 482.663894 329.643717 
L 486.049374 325.749169 
L 489.568709 321.975144 
L 493.217611 318.326241 
L 496.991636 314.806907 
L 500.886184 311.421427 
L 504.896512 308.173928 
L 509.017733 305.068365 
L 513.244826 302.108523 
L 517.572641 299.298007 
L 521.995905 296.640242 
L 526.509229 294.138465 
L 531.107114 291.795726 
L 535.783959 289.614877 
L 540.534066 287.598576 
L 545.351647 285.74928 
L 550.230832 284.069242 
L 555.165678 282.560508 
L 560.150172 281.224917 
L 565.17824 280.064096 
L 570.243758 279.079459 
L 575.340553 278.272206 
L 580.462417 277.64332 
L 585.603108 277.193568 
L 590.756363 276.923498 
L 595.915905 276.833437 
L 595.915905 276.833437 
" style="fill:none;stroke:#b0b0b0;stroke-linecap:square;stroke-width:0.8;"/>
     </g>
     <g id="text_7">
      <!-- Novice -->
      <defs>
       <path d="M 9.8125 72.90625 
L 23.09375 72.90625 
L 55.421875 11.921875 
L 55.421875 72.90625 
L 64.984375 72.90625 
L 64.984375 0 
L 51.703125 0 
L 19.390625 60.984375 
L 19.390625 0 
L 9.8125 0 
z
" id="DejaVuSans-78"/>
       <path d="M 2.984375 54.6875 
L 12.5 54.6875 
L 29.59375 8.796875 
L 46.6875 54.6875 
L 56.203125 54.6875 
L 35.6875 0 
L 23.484375 0 
z
" id="DejaVuSans-118"/>
      </defs>
      <g style="fill:#808080;opacity:0.9;" transform="translate(515.487824 541.442866)scale(0.35 -0.35)">
       <use xlink:href="#DejaVuSans-78"/>
       <use x="74.804688" xlink:href="#DejaVuSans-111"/>
       <use x="135.986328" xlink:href="#DejaVuSans-118"/>
       <use x="195.166016" xlink:href="#DejaVuSans-105"/>
       <use x="222.949219" xlink:href="#DejaVuSans-99"/>
       <use x="277.929688" xlink:href="#DejaVuSans-101"/>
      </g>
     </g>
    </g>
    <g id="ytick_3">
     <g id="line2d_8">
      <path clip-path="url(#p3958aea34a)" d="M 595.915905 202.913437 
L 603.655217 203.048528 
L 611.3851 203.453634 
L 619.096137 204.128262 
L 626.778932 205.071591 
L 634.424125 206.28247 
L 642.022401 207.759426 
L 649.564504 209.500657 
L 657.041245 211.504044 
L 664.443513 213.767144 
L 671.762292 216.287202 
L 678.988663 219.061146 
L 686.113823 222.085597 
L 693.12909 225.35687 
L 700.025918 228.870979 
L 706.795905 232.623644 
L 713.430801 236.610292 
L 719.922523 240.826065 
L 726.263162 245.265829 
L 732.444993 249.924173 
L 738.460485 254.795422 
L 744.302308 259.873641 
L 749.963345 265.152643 
L 755.436699 270.625997 
L 760.715701 276.287034 
L 765.79392 282.128857 
L 770.665169 288.144349 
L 775.323513 294.32618 
L 779.763277 300.666819 
L 783.97905 307.158541 
L 787.965698 313.793437 
L 791.718363 320.563424 
L 795.232472 327.460252 
L 798.503745 334.47552 
L 801.528196 341.600679 
L 804.30214 348.827051 
L 806.822198 356.145829 
L 809.085298 363.548097 
L 811.088685 371.024838 
L 812.829917 378.566941 
L 814.306872 386.165218 
L 815.517752 393.810411 
L 816.46108 401.493205 
L 817.135708 409.204242 
L 817.540814 416.934125 
L 817.675905 424.673437 
L 817.540814 432.41275 
L 817.135708 440.142633 
L 816.46108 447.85367 
L 815.517752 455.536464 
L 814.306872 463.181657 
L 812.829917 470.779934 
L 811.088685 478.322037 
L 809.085298 485.798778 
L 806.822198 493.201046 
L 804.30214 500.519824 
L 801.528196 507.746196 
L 798.503745 514.871355 
L 795.232472 521.886623 
L 791.718363 528.783451 
L 787.965698 535.553437 
L 783.97905 542.188334 
L 779.763277 548.680056 
L 775.323513 555.020695 
L 770.665169 561.202526 
L 765.79392 567.218018 
L 760.715701 573.059841 
L 755.436699 578.720878 
L 749.963345 584.194232 
L 744.302308 589.473234 
L 738.460485 594.551453 
L 732.444993 599.422702 
L 726.263162 604.081046 
L 719.922523 608.52081 
L 713.430801 612.736583 
L 706.795905 616.723231 
L 700.025918 620.475896 
L 693.12909 623.990005 
L 686.113823 627.261278 
L 678.988663 630.285729 
L 671.762292 633.059673 
L 664.443513 635.579731 
L 657.041245 637.842831 
L 649.564504 639.846218 
L 642.022401 641.587449 
L 634.424125 643.064405 
L 626.778932 644.275284 
L 619.096137 645.218613 
L 611.3851 645.893241 
L 603.655217 646.298347 
L 595.915905 646.433437 
L 588.176592 646.298347 
L 580.446709 645.893241 
L 572.735673 645.218613 
L 565.052878 644.275284 
L 557.407685 643.064405 
L 549.809408 641.587449 
L 542.267305 639.846218 
L 534.790565 637.842831 
L 527.388296 635.579731 
L 520.069518 633.059673 
L 512.843146 630.285729 
L 505.717987 627.261278 
L 498.702719 623.990005 
L 491.805891 620.475896 
L 485.035905 616.723231 
L 478.401009 612.736583 
L 471.909286 608.52081 
L 465.568647 604.081046 
L 459.386816 599.422702 
L 453.371324 594.551453 
L 447.529501 589.473234 
L 441.868464 584.194232 
L 436.395111 578.720878 
L 431.116108 573.059841 
L 426.037889 567.218018 
L 421.16664 561.202526 
L 416.508296 555.020695 
L 412.068533 548.680056 
L 407.852759 542.188334 
L 403.866111 535.553437 
L 400.113446 528.783451 
L 396.599337 521.886623 
L 393.328064 514.871355 
L 390.303613 507.746196 
L 387.529669 500.519824 
L 385.009612 493.201046 
L 382.746511 485.798778 
L 380.743124 478.322037 
L 379.001893 470.779934 
L 377.524937 463.181657 
L 376.314058 455.536464 
L 375.370729 447.85367 
L 374.696101 440.142633 
L 374.290995 432.41275 
L 374.155905 424.673437 
L 374.290995 416.934125 
L 374.696101 409.204242 
L 375.370729 401.493205 
L 376.314058 393.810411 
L 377.524937 386.165218 
L 379.001893 378.566941 
L 380.743124 371.024838 
L 382.746511 363.548097 
L 385.009612 356.145829 
L 387.529669 348.827051 
L 390.303613 341.600679 
L 393.328064 334.47552 
L 396.599337 327.460252 
L 400.113446 320.563424 
L 403.866111 313.793437 
L 407.852759 307.158541 
L 412.068533 300.666819 
L 416.508296 294.32618 
L 421.16664 288.144349 
L 426.037889 282.128857 
L 431.116108 276.287034 
L 436.395111 270.625997 
L 441.868464 265.152643 
L 447.529501 259.873641 
L 453.371324 254.795422 
L 459.386816 249.924173 
L 465.568647 245.265829 
L 471.909286 240.826065 
L 478.401009 236.610292 
L 485.035905 232.623644 
L 491.805891 228.870979 
L 498.702719 225.35687 
L 505.717987 222.085597 
L 512.843146 219.061146 
L 520.069518 216.287202 
L 527.388296 213.767144 
L 534.790565 211.504044 
L 542.267305 209.500657 
L 549.809408 207.759426 
L 557.407685 206.28247 
L 565.052878 205.071591 
L 572.735673 204.128262 
L 580.446709 203.453634 
L 588.176592 203.048528 
L 595.915905 202.913437 
L 595.915905 202.913437 
" style="fill:none;stroke:#b0b0b0;stroke-linecap:square;stroke-width:0.8;"/>
     </g>
     <g id="text_8">
      <!-- Intermediate -->
      <defs>
       <path d="M 9.8125 72.90625 
L 19.671875 72.90625 
L 19.671875 0 
L 9.8125 0 
z
" id="DejaVuSans-73"/>
      </defs>
      <g style="fill:#808080;opacity:0.9;" transform="translate(475.273783 603.467034)scale(0.35 -0.35)">
       <use xlink:href="#DejaVuSans-73"/>
       <use x="29.492188" xlink:href="#DejaVuSans-110"/>
       <use x="92.871094" xlink:href="#DejaVuSans-116"/>
       <use x="132.080078" xlink:href="#DejaVuSans-101"/>
       <use x="193.603516" xlink:href="#DejaVuSans-114"/>
       <use x="234.701172" xlink:href="#DejaVuSans-109"/>
       <use x="332.113281" xlink:href="#DejaVuSans-101"/>
       <use x="393.636719" xlink:href="#DejaVuSans-100"/>
       <use x="457.113281" xlink:href="#DejaVuSans-105"/>
       <use x="484.896484" xlink:href="#DejaVuSans-97"/>
       <use x="546.175781" xlink:href="#DejaVuSans-116"/>
       <use x="585.384766" xlink:href="#DejaVuSans-101"/>
      </g>
     </g>
    </g>
    <g id="ytick_4">
     <g id="line2d_9">
      <path clip-path="url(#p3958aea34a)" d="M 595.915905 128.993437 
L 606.234988 129.173558 
L 616.541499 129.713699 
L 626.822881 130.613203 
L 637.066607 131.870975 
L 647.260198 133.485481 
L 657.391233 135.454755 
L 667.447371 137.776397 
L 677.416358 140.447579 
L 687.28605 143.465047 
L 697.044421 146.825123 
L 706.679582 150.523715 
L 716.179795 154.556317 
L 725.533485 158.918014 
L 734.729256 163.603493 
L 743.755905 168.607046 
L 752.602433 173.922576 
L 761.258062 179.543608 
L 769.712248 185.463293 
L 777.95469 191.674418 
L 785.975345 198.169417 
L 793.764442 204.940376 
L 801.312492 211.979045 
L 808.610297 219.276851 
L 815.648967 226.8249 
L 822.419926 234.613997 
L 828.914924 242.634652 
L 835.12605 250.877094 
L 841.045734 259.33128 
L 846.666766 267.986909 
L 851.982296 276.833437 
L 856.985849 285.860086 
L 861.671328 295.055857 
L 866.033026 304.409547 
L 870.065627 313.90976 
L 873.764219 323.544922 
L 877.124295 333.303293 
L 880.141763 343.172984 
L 882.812945 353.141971 
L 885.134587 363.198109 
L 887.103861 373.329144 
L 888.718367 383.522735 
L 889.976139 393.766461 
L 890.875643 404.047843 
L 891.415784 414.354354 
L 891.595905 424.673437 
L 891.415784 434.992521 
L 890.875643 445.299032 
L 889.976139 455.580414 
L 888.718367 465.82414 
L 887.103861 476.017731 
L 885.134587 486.148766 
L 882.812945 496.204904 
L 880.141763 506.173891 
L 877.124295 516.043582 
L 873.764219 525.801953 
L 870.065627 535.437115 
L 866.033026 544.937328 
L 861.671328 554.291018 
L 856.985849 563.486789 
L 851.982296 572.513437 
L 846.666766 581.359966 
L 841.045734 590.015595 
L 835.12605 598.469781 
L 828.914924 606.712223 
L 822.419926 614.732878 
L 815.648967 622.521975 
L 808.610297 630.070024 
L 801.312492 637.36783 
L 793.764442 644.406499 
L 785.975345 651.177458 
L 777.95469 657.672457 
L 769.712248 663.883582 
L 761.258062 669.803267 
L 752.602433 675.424299 
L 743.755905 680.739829 
L 734.729256 685.743382 
L 725.533485 690.428861 
L 716.179795 694.790558 
L 706.679582 698.82316 
L 697.044421 702.521752 
L 687.28605 705.881828 
L 677.416358 708.899296 
L 667.447371 711.570478 
L 657.391233 713.89212 
L 647.260198 715.861394 
L 637.066607 717.4759 
L 626.822881 718.733672 
L 616.541499 719.633176 
L 606.234988 720.173317 
L 595.915905 720.353437 
L 585.596821 720.173317 
L 575.29031 719.633176 
L 565.008929 718.733672 
L 554.765202 717.4759 
L 544.571611 715.861394 
L 534.440576 713.89212 
L 524.384439 711.570478 
L 514.415451 708.899296 
L 504.54576 705.881828 
L 494.787389 702.521752 
L 485.152227 698.82316 
L 475.652014 694.790558 
L 466.298324 690.428861 
L 457.102553 685.743382 
L 448.075905 680.739829 
L 439.229377 675.424299 
L 430.573747 669.803267 
L 422.119561 663.883582 
L 413.87712 657.672457 
L 405.856464 651.177458 
L 398.067367 644.406499 
L 390.519318 637.36783 
L 383.221512 630.070024 
L 376.182843 622.521975 
L 369.411884 614.732878 
L 362.916885 606.712223 
L 356.70576 598.469781 
L 350.786075 590.015595 
L 345.165044 581.359966 
L 339.849513 572.513438 
L 334.84596 563.486789 
L 330.160481 554.291018 
L 325.798784 544.937328 
L 321.766183 535.437115 
L 318.067591 525.801953 
L 314.707514 516.043582 
L 311.690046 506.173891 
L 309.018864 496.204904 
L 306.697222 486.148766 
L 304.727948 476.017731 
L 303.113442 465.82414 
L 301.855671 455.580414 
L 300.956166 445.299032 
L 300.416025 434.992521 
L 300.235905 424.673437 
L 300.416025 414.354354 
L 300.956166 404.047843 
L 301.855671 393.766461 
L 303.113442 383.522735 
L 304.727948 373.329144 
L 306.697222 363.198109 
L 309.018864 353.141971 
L 311.690046 343.172984 
L 314.707514 333.303293 
L 318.067591 323.544922 
L 321.766183 313.90976 
L 325.798784 304.409547 
L 330.160481 295.055857 
L 334.84596 285.860086 
L 339.849513 276.833437 
L 345.165044 267.986909 
L 350.786075 259.33128 
L 356.70576 250.877094 
L 362.916885 242.634652 
L 369.411884 234.613997 
L 376.182843 226.8249 
L 383.221512 219.276851 
L 390.519318 211.979045 
L 398.067367 204.940376 
L 405.856464 198.169417 
L 413.87712 191.674418 
L 422.119561 185.463293 
L 430.573747 179.543608 
L 439.229377 173.922576 
L 448.075905 168.607046 
L 457.102553 163.603493 
L 466.298324 158.918014 
L 475.652014 154.556317 
L 485.152227 150.523715 
L 494.787389 146.825123 
L 504.54576 143.465047 
L 514.415451 140.447579 
L 524.384439 137.776397 
L 534.440576 135.454755 
L 544.571611 133.485481 
L 554.765202 131.870975 
L 565.008929 130.613203 
L 575.29031 129.713699 
L 585.596821 129.173558 
L 595.915905 128.993437 
L 595.915905 128.993437 
" style="fill:none;stroke:#b0b0b0;stroke-linecap:square;stroke-width:0.8;"/>
     </g>
     <g id="text_9">
      <!-- Advanced -->
      <defs>
       <path d="M 34.1875 63.1875 
L 20.796875 26.90625 
L 47.609375 26.90625 
z
M 28.609375 72.90625 
L 39.796875 72.90625 
L 67.578125 0 
L 57.328125 0 
L 50.6875 18.703125 
L 17.828125 18.703125 
L 11.1875 0 
L 0.78125 0 
z
" id="DejaVuSans-65"/>
      </defs>
      <g style="fill:#808080;opacity:0.9;" transform="translate(435.059743 665.491201)scale(0.35 -0.35)">
       <use xlink:href="#DejaVuSans-65"/>
       <use x="68.392578" xlink:href="#DejaVuSans-100"/>
       <use x="131.869141" xlink:href="#DejaVuSans-118"/>
       <use x="191.048828" xlink:href="#DejaVuSans-97"/>
       <use x="252.328125" xlink:href="#DejaVuSans-110"/>
       <use x="315.707031" xlink:href="#DejaVuSans-99"/>
       <use x="370.6875" xlink:href="#DejaVuSans-101"/>
       <use x="432.210938" xlink:href="#DejaVuSans-100"/>
      </g>
     </g>
    </g>
    <g id="ytick_5">
     <g id="line2d_10">
      <path clip-path="url(#p3958aea34a)" d="M 595.915905 55.073437 
L 608.814759 55.298588 
L 621.697897 55.973765 
L 634.549625 57.098145 
L 647.354283 58.670359 
L 660.096271 60.688492 
L 672.760066 63.150084 
L 685.330237 66.052137 
L 697.791471 69.391115 
L 710.128586 73.162949 
L 722.32655 77.363045 
L 734.370502 81.986285 
L 746.245768 87.027036 
L 757.937881 92.479158 
L 769.432594 98.336007 
L 780.715905 104.590448 
L 791.774065 111.234861 
L 802.593602 118.261151 
L 813.161334 125.660756 
L 823.464386 133.424663 
L 833.490205 141.543411 
L 843.226577 150.00711 
L 852.661638 158.805447 
L 861.783895 167.927704 
L 870.582232 177.362765 
L 879.045931 187.099137 
L 887.164679 197.124956 
L 894.928586 207.428008 
L 902.328191 217.99574 
L 909.354481 228.815277 
L 915.998894 239.873437 
L 922.253335 251.156748 
L 928.110184 262.651462 
L 933.562306 274.343574 
L 938.603057 286.218841 
L 943.226297 298.262793 
L 947.426393 310.460756 
L 951.198227 322.797871 
L 954.537205 335.259105 
L 957.439258 347.829277 
L 959.90085 360.493071 
L 961.918983 373.235059 
L 963.491197 386.039717 
L 964.615578 398.891445 
L 965.290754 411.774584 
L 965.515905 424.673437 
L 965.290754 437.572291 
L 964.615578 450.45543 
L 963.491197 463.307158 
L 961.918983 476.111816 
L 959.90085 488.853804 
L 957.439258 501.517598 
L 954.537205 514.08777 
L 951.198227 526.549004 
L 947.426393 538.886119 
L 943.226297 551.084082 
L 938.603057 563.128034 
L 933.562306 575.003301 
L 928.110184 586.695413 
L 922.253335 598.190127 
L 915.998894 609.473437 
L 909.354481 620.531598 
L 902.328191 631.351135 
L 894.928586 641.918867 
L 887.164679 652.221919 
L 879.045931 662.247738 
L 870.582232 671.98411 
L 861.783895 681.419171 
L 852.661638 690.541428 
L 843.226577 699.339765 
L 833.490205 707.803464 
L 823.464386 715.922212 
L 813.161334 723.686119 
L 802.593602 731.085724 
L 791.774065 738.112014 
L 780.715905 744.756427 
L 769.432594 751.010868 
L 757.937881 756.867717 
L 746.245768 762.319839 
L 734.370502 767.36059 
L 722.32655 771.98383 
L 710.128586 776.183926 
L 697.791471 779.95576 
L 685.330237 783.294738 
L 672.760066 786.196791 
L 660.096271 788.658383 
L 647.354283 790.676516 
L 634.549625 792.24873 
L 621.697897 793.37311 
L 608.814759 794.048287 
L 595.915905 794.273437 
L 583.017051 794.048287 
L 570.133912 793.37311 
L 557.282185 792.24873 
L 544.477527 790.676516 
L 531.735538 788.658383 
L 519.071744 786.196791 
L 506.501572 783.294738 
L 494.040338 779.95576 
L 481.703224 776.183926 
L 469.50526 771.98383 
L 457.461308 767.36059 
L 445.586041 762.319839 
L 433.893929 756.867717 
L 422.399215 751.010868 
L 411.115905 744.756427 
L 400.057745 738.112014 
L 389.238208 731.085724 
L 378.670475 723.686119 
L 368.367423 715.922212 
L 358.341604 707.803464 
L 348.605233 699.339765 
L 339.170171 690.541428 
L 330.047914 681.419171 
L 321.249577 671.98411 
L 312.785878 662.247738 
L 304.66713 652.221919 
L 296.903224 641.918867 
L 289.503618 631.351135 
L 282.477328 620.531598 
L 275.832915 609.473438 
L 269.578474 598.190127 
L 263.721625 586.695413 
L 258.269504 575.003301 
L 253.228752 563.128034 
L 248.605512 551.084082 
L 244.405416 538.886119 
L 240.633582 526.549004 
L 237.294604 514.08777 
L 234.392551 501.517598 
L 231.930959 488.853804 
L 229.912826 476.111816 
L 228.340612 463.307158 
L 227.216232 450.45543 
L 226.541055 437.572291 
L 226.315905 424.673437 
L 226.541055 411.774584 
L 227.216232 398.891445 
L 228.340612 386.039717 
L 229.912826 373.235059 
L 231.930959 360.493071 
L 234.392551 347.829277 
L 237.294604 335.259105 
L 240.633582 322.797871 
L 244.405416 310.460756 
L 248.605512 298.262793 
L 253.228752 286.218841 
L 258.269504 274.343574 
L 263.721625 262.651462 
L 269.578474 251.156748 
L 275.832915 239.873437 
L 282.477328 228.815277 
L 289.503618 217.99574 
L 296.903224 207.428008 
L 304.66713 197.124956 
L 312.785878 187.099137 
L 321.249577 177.362765 
L 330.047914 167.927704 
L 339.170171 158.805447 
L 348.605233 150.00711 
L 358.341604 141.543411 
L 368.367423 133.424663 
L 378.670475 125.660756 
L 389.238208 118.261151 
L 400.057745 111.234861 
L 411.115905 104.590448 
L 422.399215 98.336007 
L 433.893929 92.479158 
L 445.586041 87.027036 
L 457.461308 81.986285 
L 469.50526 77.363045 
L 481.703224 73.162949 
L 494.040338 69.391115 
L 506.501572 66.052137 
L 519.071744 63.150084 
L 531.735538 60.688492 
L 544.477527 58.670359 
L 557.282185 57.098145 
L 570.133912 55.973765 
L 583.017051 55.298588 
L 595.915905 55.073437 
L 595.915905 55.073437 
" style="fill:none;stroke:#b0b0b0;stroke-linecap:square;stroke-width:0.8;"/>
     </g>
     <g id="text_10">
      <!-- Expert -->
      <defs>
       <path d="M 54.890625 54.6875 
L 35.109375 28.078125 
L 55.90625 0 
L 45.3125 0 
L 29.390625 21.484375 
L 13.484375 0 
L 2.875 0 
L 24.125 28.609375 
L 4.6875 54.6875 
L 15.28125 54.6875 
L 29.78125 35.203125 
L 44.28125 54.6875 
z
" id="DejaVuSans-120"/>
      </defs>
      <g style="fill:#808080;opacity:0.9;" transform="translate(394.845702 727.515368)scale(0.35 -0.35)">
       <use xlink:href="#DejaVuSans-69"/>
       <use x="63.183594" xlink:href="#DejaVuSans-120"/>
       <use x="122.363281" xlink:href="#DejaVuSans-112"/>
       <use x="185.839844" xlink:href="#DejaVuSans-101"/>
       <use x="247.363281" xlink:href="#DejaVuSans-114"/>
       <use x="288.476562" xlink:href="#DejaVuSans-116"/>
      </g>
     </g>
    </g>
   </g>
   <g id="line2d_11">
    <path clip-path="url(#p3958aea34a)" d="M 595.915905 128.993437 
L 806.822198 356.145829 
L 726.263162 604.081046 
L 509.017733 544.27851 
L 455.311709 378.988365 
L 595.915905 128.993437 
" style="fill:none;stroke:#8dd3c7;stroke-linecap:square;stroke-opacity:0.75;stroke-width:4.5;"/>
   </g>
   <g id="text_11">
    <!-- Theoretical Skills -->
    <defs>
     <path d="M 9.078125 75.984375 
L 18.109375 75.984375 
L 18.109375 31.109375 
L 44.921875 54.6875 
L 56.390625 54.6875 
L 27.390625 29.109375 
L 57.625 0 
L 45.90625 0 
L 18.109375 26.703125 
L 18.109375 0 
L 9.078125 0 
z
" id="DejaVuSans-107"/>
    </defs>
    <g style="opacity:0.7;" transform="translate(426.03153 899.153437)scale(0.4 -0.4)">
     <use xlink:href="#DejaVuSans-84"/>
     <use x="61.083984" xlink:href="#DejaVuSans-104"/>
     <use x="124.462891" xlink:href="#DejaVuSans-101"/>
     <use x="185.986328" xlink:href="#DejaVuSans-111"/>
     <use x="247.167969" xlink:href="#DejaVuSans-114"/>
     <use x="288.25" xlink:href="#DejaVuSans-101"/>
     <use x="349.773438" xlink:href="#DejaVuSans-116"/>
     <use x="388.982422" xlink:href="#DejaVuSans-105"/>
     <use x="416.765625" xlink:href="#DejaVuSans-99"/>
     <use x="471.746094" xlink:href="#DejaVuSans-97"/>
     <use x="533.025391" xlink:href="#DejaVuSans-108"/>
     <use x="560.808594" xlink:href="#DejaVuSans-32"/>
     <use x="592.595703" xlink:href="#DejaVuSans-83"/>
     <use x="656.072266" xlink:href="#DejaVuSans-107"/>
     <use x="713.982422" xlink:href="#DejaVuSans-105"/>
     <use x="741.765625" xlink:href="#DejaVuSans-108"/>
     <use x="769.548828" xlink:href="#DejaVuSans-108"/>
     <use x="797.332031" xlink:href="#DejaVuSans-115"/>
    </g>
   </g>
  </g>
 </g>
 <defs>
  <clipPath id="p3958aea34a">
   <path d="M 965.515905 424.673437 
C 965.515905 376.13801 955.955484 328.074529 937.38178 283.233641 
C 918.808076 238.392753 891.582301 197.646501 857.262571 163.326771 
C 822.942841 129.007041 782.196589 101.781266 737.355701 83.207562 
C 692.514813 64.633858 644.451332 55.073437 595.915905 55.073437 
C 547.380477 55.073437 499.316996 64.633858 454.476108 83.207562 
C 409.63522 101.781266 368.888968 129.007041 334.569238 163.326771 
C 300.249509 197.646501 273.023733 238.392753 254.450029 283.233641 
C 235.876326 328.074529 226.315905 376.13801 226.315905 424.673437 
C 226.315905 473.208865 235.876326 521.272346 254.450029 566.113234 
C 273.023733 610.954122 300.249509 651.700374 334.569238 686.020104 
C 368.888968 720.339834 409.63522 747.565609 454.476108 766.139313 
C 499.316996 784.713017 547.380477 794.273437 595.915905 794.273437 
C 644.451332 794.273437 692.514813 784.713017 737.355701 766.139313 
C 782.196589 747.565609 822.942841 720.339834 857.262571 686.020104 
C 891.582301 651.700374 918.808076 610.954122 937.38178 566.113234 
C 955.955484 521.272346 965.515905 473.208865 965.515905 424.673437 
M 595.915905 424.673437 
C 595.915905 424.673437 595.915905 424.673437 595.915905 424.673437 
C 595.915905 424.673437 595.915905 424.673437 595.915905 424.673437 
C 595.915905 424.673437 595.915905 424.673437 595.915905 424.673437 
C 595.915905 424.673437 595.915905 424.673437 595.915905 424.673437 
C 595.915905 424.673437 595.915905 424.673437 595.915905 424.673437 
C 595.915905 424.673437 595.915905 424.673437 595.915905 424.673437 
C 595.915905 424.673437 595.915905 424.673437 595.915905 424.673437 
C 595.915905 424.673437 595.915905 424.673437 595.915905 424.673437 
C 595.915905 424.673437 595.915905 424.673437 595.915905 424.673437 
C 595.915905 424.673437 595.915905 424.673437 595.915905 424.673437 
C 595.915905 424.673437 595.915905 424.673437 595.915905 424.673437 
C 595.915905 424.673437 595.915905 424.673437 595.915905 424.673437 
C 595.915905 424.673437 595.915905 424.673437 595.915905 424.673437 
C 595.915905 424.673437 595.915905 424.673437 595.915905 424.673437 
C 595.915905 424.673437 595.915905 424.673437 595.915905 424.673437 
C 595.915905 424.673437 595.915905 424.673437 595.915905 424.673437 
M 965.515905 424.673437 
z
"/>
  </clipPath>
 </defs>
</svg>
