<?xml version="1.0" encoding="utf-8" standalone="no"?>
<!DOCTYPE svg PUBLIC "-//W3C//DTD SVG 1.1//EN"
  "http://www.w3.org/Graphics/SVG/1.1/DTD/svg11.dtd">
<!-- Created with matplotlib (https://matplotlib.org/) -->
<svg height="914.672187pt" version="1.1" viewBox="0 0 1188.127972 914.672187" width="1188.127972pt" xmlns="http://www.w3.org/2000/svg" xmlns:xlink="http://www.w3.org/1999/xlink">
 <defs>
  <style type="text/css">
*{stroke-linecap:butt;stroke-linejoin:round;}
  </style>
 </defs>
 <g id="figure_1">
  <g id="patch_1">
   <path d="M 0 914.672187 
L 1188.127972 914.672187 
L 1188.127972 0 
L 0 0 
z
" style="fill:#ffffff;"/>
  </g>
  <g id="axes_1">
   <g id="patch_2">
    <path clip-path="url(#pdb9a4758c5)" d="M 709.547188 202.913437 
L 805.765245 224.874581 
L 825.133154 332.496705 
L 781.613859 408.22469 
L 709.547188 424.673437 
L 709.547188 424.673437 
L 709.547188 424.673437 
L 709.547188 424.673437 
L 709.547188 424.673437 
L 709.547188 424.673437 
L 709.547188 424.673437 
L 709.547188 424.673437 
L 709.547188 424.673437 
L 709.547188 424.673437 
z
" style="fill:#80b1d3;opacity:0.2;stroke:#80b1d3;stroke-linejoin:miter;"/>
   </g>
   <g id="patch_3">
    <path clip-path="url(#pdb9a4758c5)" d="M 709.547188 424.673437 
L 709.547188 424.673437 
L 709.547188 424.673437 
L 709.547188 424.673437 
L 997.813873 490.468427 
L 940.71912 609.026902 
L 805.765245 624.472294 
L 709.547188 424.673437 
L 709.547188 424.673437 
L 709.547188 424.673437 
L 709.547188 424.673437 
L 709.547188 424.673437 
L 709.547188 424.673437 
L 709.547188 424.673437 
z
" style="fill:#fdb462;opacity:0.2;stroke:#fdb462;stroke-linejoin:miter;"/>
   </g>
   <g id="patch_4">
    <path clip-path="url(#pdb9a4758c5)" d="M 709.547188 424.673437 
L 709.547188 424.673437 
L 709.547188 424.673437 
L 709.547188 424.673437 
L 709.547188 424.673437 
L 709.547188 424.673437 
L 709.547188 424.673437 
L 709.547188 720.353437 
L 581.256444 691.071912 
L 536.168238 562.938536 
L 493.347174 474.01968 
L 493.347174 375.327195 
L 593.961221 332.496705 
L 581.256444 158.274963 
z
" style="fill:#bc80bd;opacity:0.2;stroke:#bc80bd;stroke-linejoin:miter;"/>
   </g>
   <g id="matplotlib.axis_1">
    <g id="xtick_1">
     <g id="line2d_1">
      <path clip-path="url(#pdb9a4758c5)" d="M 709.547188 424.673437 
L 709.547188 55.073437 
" style="fill:none;stroke:#b0b0b0;stroke-linecap:square;stroke-width:0.8;"/>
     </g>
     <g id="text_1">
      <!-- C++ -->
      <defs>
       <path d="M 64.40625 67.28125 
L 64.40625 56.890625 
Q 59.421875 61.53125 53.78125 63.8125 
Q 48.140625 66.109375 41.796875 66.109375 
Q 29.296875 66.109375 22.65625 58.46875 
Q 16.015625 50.828125 16.015625 36.375 
Q 16.015625 21.96875 22.65625 14.328125 
Q 29.296875 6.6875 41.796875 6.6875 
Q 48.140625 6.6875 53.78125 8.984375 
Q 59.421875 11.28125 64.40625 15.921875 
L 64.40625 5.609375 
Q 59.234375 2.09375 53.4375 0.328125 
Q 47.65625 -1.421875 41.21875 -1.421875 
Q 24.65625 -1.421875 15.125 8.703125 
Q 5.609375 18.84375 5.609375 36.375 
Q 5.609375 53.953125 15.125 64.078125 
Q 24.65625 74.21875 41.21875 74.21875 
Q 47.75 74.21875 53.53125 72.484375 
Q 59.328125 70.75 64.40625 67.28125 
z
" id="DejaVuSans-67"/>
       <path d="M 46 62.703125 
L 46 35.5 
L 73.1875 35.5 
L 73.1875 27.203125 
L 46 27.203125 
L 46 0 
L 37.796875 0 
L 37.796875 27.203125 
L 10.59375 27.203125 
L 10.59375 35.5 
L 37.796875 35.5 
L 37.796875 62.703125 
z
" id="DejaVuSans-43"/>
      </defs>
      <g style="fill:#808080;" transform="translate(667.998359 33.794531)scale(0.35 -0.35)">
       <use xlink:href="#DejaVuSans-67"/>
       <use x="69.824219" xlink:href="#DejaVuSans-43"/>
       <use x="153.613281" xlink:href="#DejaVuSans-43"/>
      </g>
     </g>
    </g>
    <g id="xtick_2">
     <g id="line2d_2">
      <path clip-path="url(#pdb9a4758c5)" d="M 709.547188 424.673437 
L 869.910617 91.675344 
" style="fill:none;stroke:#b0b0b0;stroke-linecap:square;stroke-width:0.8;"/>
     </g>
     <g id="text_2">
      <!-- Matlab -->
      <defs>
       <path d="M 9.8125 72.90625 
L 24.515625 72.90625 
L 43.109375 23.296875 
L 61.8125 72.90625 
L 76.515625 72.90625 
L 76.515625 0 
L 66.890625 0 
L 66.890625 64.015625 
L 48.09375 14.015625 
L 38.1875 14.015625 
L 19.390625 64.015625 
L 19.390625 0 
L 9.8125 0 
z
" id="DejaVuSans-77"/>
       <path d="M 34.28125 27.484375 
Q 23.390625 27.484375 19.1875 25 
Q 14.984375 22.515625 14.984375 16.5 
Q 14.984375 11.71875 18.140625 8.90625 
Q 21.296875 6.109375 26.703125 6.109375 
Q 34.1875 6.109375 38.703125 11.40625 
Q 43.21875 16.703125 43.21875 25.484375 
L 43.21875 27.484375 
z
M 52.203125 31.203125 
L 52.203125 0 
L 43.21875 0 
L 43.21875 8.296875 
Q 40.140625 3.328125 35.546875 0.953125 
Q 30.953125 -1.421875 24.3125 -1.421875 
Q 15.921875 -1.421875 10.953125 3.296875 
Q 6 8.015625 6 15.921875 
Q 6 25.140625 12.171875 29.828125 
Q 18.359375 34.515625 30.609375 34.515625 
L 43.21875 34.515625 
L 43.21875 35.40625 
Q 43.21875 41.609375 39.140625 45 
Q 35.0625 48.390625 27.6875 48.390625 
Q 23 48.390625 18.546875 47.265625 
Q 14.109375 46.140625 10.015625 43.890625 
L 10.015625 52.203125 
Q 14.9375 54.109375 19.578125 55.046875 
Q 24.21875 56 28.609375 56 
Q 40.484375 56 46.34375 49.84375 
Q 52.203125 43.703125 52.203125 31.203125 
z
" id="DejaVuSans-97"/>
       <path d="M 18.3125 70.21875 
L 18.3125 54.6875 
L 36.8125 54.6875 
L 36.8125 47.703125 
L 18.3125 47.703125 
L 18.3125 18.015625 
Q 18.3125 11.328125 20.140625 9.421875 
Q 21.96875 7.515625 27.59375 7.515625 
L 36.8125 7.515625 
L 36.8125 0 
L 27.59375 0 
Q 17.1875 0 13.234375 3.875 
Q 9.28125 7.765625 9.28125 18.015625 
L 9.28125 47.703125 
L 2.6875 47.703125 
L 2.6875 54.6875 
L 9.28125 54.6875 
L 9.28125 70.21875 
z
" id="DejaVuSans-116"/>
       <path d="M 9.421875 75.984375 
L 18.40625 75.984375 
L 18.40625 0 
L 9.421875 0 
z
" id="DejaVuSans-108"/>
       <path d="M 48.6875 27.296875 
Q 48.6875 37.203125 44.609375 42.84375 
Q 40.53125 48.484375 33.40625 48.484375 
Q 26.265625 48.484375 22.1875 42.84375 
Q 18.109375 37.203125 18.109375 27.296875 
Q 18.109375 17.390625 22.1875 11.75 
Q 26.265625 6.109375 33.40625 6.109375 
Q 40.53125 6.109375 44.609375 11.75 
Q 48.6875 17.390625 48.6875 27.296875 
z
M 18.109375 46.390625 
Q 20.953125 51.265625 25.265625 53.625 
Q 29.59375 56 35.59375 56 
Q 45.5625 56 51.78125 48.09375 
Q 58.015625 40.1875 58.015625 27.296875 
Q 58.015625 14.40625 51.78125 6.484375 
Q 45.5625 -1.421875 35.59375 -1.421875 
Q 29.59375 -1.421875 25.265625 0.953125 
Q 20.953125 3.328125 18.109375 8.203125 
L 18.109375 0 
L 9.078125 0 
L 9.078125 75.984375 
L 18.109375 75.984375 
z
" id="DejaVuSans-98"/>
      </defs>
      <g style="fill:#808080;" transform="translate(875.98499 71.782874)scale(0.35 -0.35)">
       <use xlink:href="#DejaVuSans-77"/>
       <use x="86.279297" xlink:href="#DejaVuSans-97"/>
       <use x="147.558594" xlink:href="#DejaVuSans-116"/>
       <use x="186.767578" xlink:href="#DejaVuSans-108"/>
       <use x="214.550781" xlink:href="#DejaVuSans-97"/>
       <use x="275.830078" xlink:href="#DejaVuSans-98"/>
      </g>
     </g>
    </g>
    <g id="xtick_3">
     <g id="line2d_3">
      <path clip-path="url(#pdb9a4758c5)" d="M 709.547188 424.673437 
L 998.512103 194.231607 
" style="fill:none;stroke:#b0b0b0;stroke-linecap:square;stroke-width:0.8;"/>
     </g>
     <g id="text_3">
      <!-- Python -->
      <defs>
       <path d="M 19.671875 64.796875 
L 19.671875 37.40625 
L 32.078125 37.40625 
Q 38.96875 37.40625 42.71875 40.96875 
Q 46.484375 44.53125 46.484375 51.125 
Q 46.484375 57.671875 42.71875 61.234375 
Q 38.96875 64.796875 32.078125 64.796875 
z
M 9.8125 72.90625 
L 32.078125 72.90625 
Q 44.34375 72.90625 50.609375 67.359375 
Q 56.890625 61.8125 56.890625 51.125 
Q 56.890625 40.328125 50.609375 34.8125 
Q 44.34375 29.296875 32.078125 29.296875 
L 19.671875 29.296875 
L 19.671875 0 
L 9.8125 0 
z
" id="DejaVuSans-80"/>
       <path d="M 32.171875 -5.078125 
Q 28.375 -14.84375 24.75 -17.8125 
Q 21.140625 -20.796875 15.09375 -20.796875 
L 7.90625 -20.796875 
L 7.90625 -13.28125 
L 13.1875 -13.28125 
Q 16.890625 -13.28125 18.9375 -11.515625 
Q 21 -9.765625 23.484375 -3.21875 
L 25.09375 0.875 
L 2.984375 54.6875 
L 12.5 54.6875 
L 29.59375 11.921875 
L 46.6875 54.6875 
L 56.203125 54.6875 
z
" id="DejaVuSans-121"/>
       <path d="M 54.890625 33.015625 
L 54.890625 0 
L 45.90625 0 
L 45.90625 32.71875 
Q 45.90625 40.484375 42.875 44.328125 
Q 39.84375 48.1875 33.796875 48.1875 
Q 26.515625 48.1875 22.3125 43.546875 
Q 18.109375 38.921875 18.109375 30.90625 
L 18.109375 0 
L 9.078125 0 
L 9.078125 75.984375 
L 18.109375 75.984375 
L 18.109375 46.1875 
Q 21.34375 51.125 25.703125 53.5625 
Q 30.078125 56 35.796875 56 
Q 45.21875 56 50.046875 50.171875 
Q 54.890625 44.34375 54.890625 33.015625 
z
" id="DejaVuSans-104"/>
       <path d="M 30.609375 48.390625 
Q 23.390625 48.390625 19.1875 42.75 
Q 14.984375 37.109375 14.984375 27.296875 
Q 14.984375 17.484375 19.15625 11.84375 
Q 23.34375 6.203125 30.609375 6.203125 
Q 37.796875 6.203125 41.984375 11.859375 
Q 46.1875 17.53125 46.1875 27.296875 
Q 46.1875 37.015625 41.984375 42.703125 
Q 37.796875 48.390625 30.609375 48.390625 
z
M 30.609375 56 
Q 42.328125 56 49.015625 48.375 
Q 55.71875 40.765625 55.71875 27.296875 
Q 55.71875 13.875 49.015625 6.21875 
Q 42.328125 -1.421875 30.609375 -1.421875 
Q 18.84375 -1.421875 12.171875 6.21875 
Q 5.515625 13.875 5.515625 27.296875 
Q 5.515625 40.765625 12.171875 48.375 
Q 18.84375 56 30.609375 56 
z
" id="DejaVuSans-111"/>
       <path d="M 54.890625 33.015625 
L 54.890625 0 
L 45.90625 0 
L 45.90625 32.71875 
Q 45.90625 40.484375 42.875 44.328125 
Q 39.84375 48.1875 33.796875 48.1875 
Q 26.515625 48.1875 22.3125 43.546875 
Q 18.109375 38.921875 18.109375 30.90625 
L 18.109375 0 
L 9.078125 0 
L 9.078125 54.6875 
L 18.109375 54.6875 
L 18.109375 46.1875 
Q 21.34375 51.125 25.703125 53.5625 
Q 30.078125 56 35.796875 56 
Q 45.21875 56 50.046875 50.171875 
Q 54.890625 44.34375 54.890625 33.015625 
z
" id="DejaVuSans-110"/>
      </defs>
      <g style="fill:#808080;" transform="translate(1009.457744 178.223843)scale(0.35 -0.35)">
       <use xlink:href="#DejaVuSans-80"/>
       <use x="60.302734" xlink:href="#DejaVuSans-121"/>
       <use x="119.482422" xlink:href="#DejaVuSans-116"/>
       <use x="158.691406" xlink:href="#DejaVuSans-104"/>
       <use x="222.070312" xlink:href="#DejaVuSans-111"/>
       <use x="283.251953" xlink:href="#DejaVuSans-110"/>
      </g>
     </g>
    </g>
    <g id="xtick_4">
     <g id="line2d_4">
      <path clip-path="url(#pdb9a4758c5)" d="M 709.547188 424.673437 
L 1069.880544 342.4297 
" style="fill:none;stroke:#b0b0b0;stroke-linecap:square;stroke-width:0.8;"/>
     </g>
     <g id="text_4">
      <!-- HTML -->
      <defs>
       <path d="M 9.8125 72.90625 
L 19.671875 72.90625 
L 19.671875 43.015625 
L 55.515625 43.015625 
L 55.515625 72.90625 
L 65.375 72.90625 
L 65.375 0 
L 55.515625 0 
L 55.515625 34.71875 
L 19.671875 34.71875 
L 19.671875 0 
L 9.8125 0 
z
" id="DejaVuSans-72"/>
       <path d="M -0.296875 72.90625 
L 61.375 72.90625 
L 61.375 64.59375 
L 35.5 64.59375 
L 35.5 0 
L 25.59375 0 
L 25.59375 64.59375 
L -0.296875 64.59375 
z
" id="DejaVuSans-84"/>
       <path d="M 9.8125 72.90625 
L 19.671875 72.90625 
L 19.671875 8.296875 
L 55.171875 8.296875 
L 55.171875 0 
L 9.8125 0 
z
" id="DejaVuSans-76"/>
      </defs>
      <g style="fill:#808080;" transform="translate(1083.529535 348.97222)scale(0.35 -0.35)">
       <use xlink:href="#DejaVuSans-72"/>
       <use x="75.195312" xlink:href="#DejaVuSans-84"/>
       <use x="136.279297" xlink:href="#DejaVuSans-77"/>
       <use x="222.558594" xlink:href="#DejaVuSans-76"/>
      </g>
     </g>
    </g>
    <g id="xtick_5">
     <g id="line2d_5">
      <path clip-path="url(#pdb9a4758c5)" d="M 709.547188 424.673437 
L 1069.880544 506.917175 
" style="fill:none;stroke:#b0b0b0;stroke-linecap:square;stroke-width:0.8;"/>
     </g>
     <g id="text_5">
      <!-- ROS -->
      <defs>
       <path d="M 44.390625 34.1875 
Q 47.5625 33.109375 50.5625 29.59375 
Q 53.5625 26.078125 56.59375 19.921875 
L 66.609375 0 
L 56 0 
L 46.6875 18.703125 
Q 43.0625 26.03125 39.671875 28.421875 
Q 36.28125 30.8125 30.421875 30.8125 
L 19.671875 30.8125 
L 19.671875 0 
L 9.8125 0 
L 9.8125 72.90625 
L 32.078125 72.90625 
Q 44.578125 72.90625 50.734375 67.671875 
Q 56.890625 62.453125 56.890625 51.90625 
Q 56.890625 45.015625 53.6875 40.46875 
Q 50.484375 35.9375 44.390625 34.1875 
z
M 19.671875 64.796875 
L 19.671875 38.921875 
L 32.078125 38.921875 
Q 39.203125 38.921875 42.84375 42.21875 
Q 46.484375 45.515625 46.484375 51.90625 
Q 46.484375 58.296875 42.84375 61.546875 
Q 39.203125 64.796875 32.078125 64.796875 
z
" id="DejaVuSans-82"/>
       <path d="M 39.40625 66.21875 
Q 28.65625 66.21875 22.328125 58.203125 
Q 16.015625 50.203125 16.015625 36.375 
Q 16.015625 22.609375 22.328125 14.59375 
Q 28.65625 6.59375 39.40625 6.59375 
Q 50.140625 6.59375 56.421875 14.59375 
Q 62.703125 22.609375 62.703125 36.375 
Q 62.703125 50.203125 56.421875 58.203125 
Q 50.140625 66.21875 39.40625 66.21875 
z
M 39.40625 74.21875 
Q 54.734375 74.21875 63.90625 63.9375 
Q 73.09375 53.65625 73.09375 36.375 
Q 73.09375 19.140625 63.90625 8.859375 
Q 54.734375 -1.421875 39.40625 -1.421875 
Q 24.03125 -1.421875 14.8125 8.828125 
Q 5.609375 19.09375 5.609375 36.375 
Q 5.609375 53.65625 14.8125 63.9375 
Q 24.03125 74.21875 39.40625 74.21875 
z
" id="DejaVuSans-79"/>
       <path d="M 53.515625 70.515625 
L 53.515625 60.890625 
Q 47.90625 63.578125 42.921875 64.890625 
Q 37.9375 66.21875 33.296875 66.21875 
Q 25.25 66.21875 20.875 63.09375 
Q 16.5 59.96875 16.5 54.203125 
Q 16.5 49.359375 19.40625 46.890625 
Q 22.3125 44.4375 30.421875 42.921875 
L 36.375 41.703125 
Q 47.40625 39.59375 52.65625 34.296875 
Q 57.90625 29 57.90625 20.125 
Q 57.90625 9.515625 50.796875 4.046875 
Q 43.703125 -1.421875 29.984375 -1.421875 
Q 24.8125 -1.421875 18.96875 -0.25 
Q 13.140625 0.921875 6.890625 3.21875 
L 6.890625 13.375 
Q 12.890625 10.015625 18.65625 8.296875 
Q 24.421875 6.59375 29.984375 6.59375 
Q 38.421875 6.59375 43.015625 9.90625 
Q 47.609375 13.234375 47.609375 19.390625 
Q 47.609375 24.75 44.3125 27.78125 
Q 41.015625 30.8125 33.5 32.328125 
L 27.484375 33.5 
Q 16.453125 35.6875 11.515625 40.375 
Q 6.59375 45.0625 6.59375 53.421875 
Q 6.59375 63.09375 13.40625 68.65625 
Q 20.21875 74.21875 32.171875 74.21875 
Q 37.3125 74.21875 42.625 73.28125 
Q 47.953125 72.359375 53.515625 70.515625 
z
" id="DejaVuSans-83"/>
      </defs>
      <g style="fill:#808080;" transform="translate(1083.529535 519.69028)scale(0.35 -0.35)">
       <use xlink:href="#DejaVuSans-82"/>
       <use x="69.482422" xlink:href="#DejaVuSans-79"/>
       <use x="148.193359" xlink:href="#DejaVuSans-83"/>
      </g>
     </g>
    </g>
    <g id="xtick_6">
     <g id="line2d_6">
      <path clip-path="url(#pdb9a4758c5)" d="M 709.547188 424.673437 
L 998.512103 655.115268 
" style="fill:none;stroke:#b0b0b0;stroke-linecap:square;stroke-width:0.8;"/>
     </g>
     <g id="text_6">
      <!-- YARP -->
      <defs>
       <path d="M -0.203125 72.90625 
L 10.40625 72.90625 
L 30.609375 42.921875 
L 50.6875 72.90625 
L 61.28125 72.90625 
L 35.5 34.71875 
L 35.5 0 
L 25.59375 0 
L 25.59375 34.71875 
z
" id="DejaVuSans-89"/>
       <path d="M 34.1875 63.1875 
L 20.796875 26.90625 
L 47.609375 26.90625 
z
M 28.609375 72.90625 
L 39.796875 72.90625 
L 67.578125 0 
L 57.328125 0 
L 50.6875 18.703125 
L 17.828125 18.703125 
L 11.1875 0 
L 0.78125 0 
z
" id="DejaVuSans-65"/>
      </defs>
      <g style="fill:#808080;" transform="translate(1009.457744 690.438657)scale(0.35 -0.35)">
       <use xlink:href="#DejaVuSans-89"/>
       <use x="60.974609" xlink:href="#DejaVuSans-65"/>
       <use x="129.382812" xlink:href="#DejaVuSans-82"/>
       <use x="198.865234" xlink:href="#DejaVuSans-80"/>
      </g>
     </g>
    </g>
    <g id="xtick_7">
     <g id="line2d_7">
      <path clip-path="url(#pdb9a4758c5)" d="M 709.547188 424.673437 
L 869.910617 757.671531 
" style="fill:none;stroke:#b0b0b0;stroke-linecap:square;stroke-width:0.8;"/>
     </g>
     <g id="text_7">
      <!-- Ubuntu -->
      <defs>
       <path d="M 8.6875 72.90625 
L 18.609375 72.90625 
L 18.609375 28.609375 
Q 18.609375 16.890625 22.84375 11.734375 
Q 27.09375 6.59375 36.625 6.59375 
Q 46.09375 6.59375 50.34375 11.734375 
Q 54.59375 16.890625 54.59375 28.609375 
L 54.59375 72.90625 
L 64.5 72.90625 
L 64.5 27.390625 
Q 64.5 13.140625 57.4375 5.859375 
Q 50.390625 -1.421875 36.625 -1.421875 
Q 22.796875 -1.421875 15.734375 5.859375 
Q 8.6875 13.140625 8.6875 27.390625 
z
" id="DejaVuSans-85"/>
       <path d="M 8.5 21.578125 
L 8.5 54.6875 
L 17.484375 54.6875 
L 17.484375 21.921875 
Q 17.484375 14.15625 20.5 10.265625 
Q 23.53125 6.390625 29.59375 6.390625 
Q 36.859375 6.390625 41.078125 11.03125 
Q 45.3125 15.671875 45.3125 23.6875 
L 45.3125 54.6875 
L 54.296875 54.6875 
L 54.296875 0 
L 45.3125 0 
L 45.3125 8.40625 
Q 42.046875 3.421875 37.71875 1 
Q 33.40625 -1.421875 27.6875 -1.421875 
Q 18.265625 -1.421875 13.375 4.4375 
Q 8.5 10.296875 8.5 21.578125 
z
M 31.109375 56 
z
" id="DejaVuSans-117"/>
      </defs>
      <g style="fill:#808080;" transform="translate(875.98499 796.879626)scale(0.35 -0.35)">
       <use xlink:href="#DejaVuSans-85"/>
       <use x="73.193359" xlink:href="#DejaVuSans-98"/>
       <use x="136.669922" xlink:href="#DejaVuSans-117"/>
       <use x="200.048828" xlink:href="#DejaVuSans-110"/>
       <use x="263.427734" xlink:href="#DejaVuSans-116"/>
       <use x="302.636719" xlink:href="#DejaVuSans-117"/>
      </g>
     </g>
    </g>
    <g id="xtick_8">
     <g id="line2d_8">
      <path clip-path="url(#pdb9a4758c5)" d="M 709.547188 424.673437 
L 709.547188 794.273437 
" style="fill:none;stroke:#b0b0b0;stroke-linecap:square;stroke-width:0.8;"/>
     </g>
     <g id="text_8">
      <!-- Git/Github -->
      <defs>
       <path d="M 59.515625 10.40625 
L 59.515625 29.984375 
L 43.40625 29.984375 
L 43.40625 38.09375 
L 69.28125 38.09375 
L 69.28125 6.78125 
Q 63.578125 2.734375 56.6875 0.65625 
Q 49.8125 -1.421875 42 -1.421875 
Q 24.90625 -1.421875 15.25 8.5625 
Q 5.609375 18.5625 5.609375 36.375 
Q 5.609375 54.25 15.25 64.234375 
Q 24.90625 74.21875 42 74.21875 
Q 49.125 74.21875 55.546875 72.453125 
Q 61.96875 70.703125 67.390625 67.28125 
L 67.390625 56.78125 
Q 61.921875 61.421875 55.765625 63.765625 
Q 49.609375 66.109375 42.828125 66.109375 
Q 29.4375 66.109375 22.71875 58.640625 
Q 16.015625 51.171875 16.015625 36.375 
Q 16.015625 21.625 22.71875 14.15625 
Q 29.4375 6.6875 42.828125 6.6875 
Q 48.046875 6.6875 52.140625 7.59375 
Q 56.25 8.5 59.515625 10.40625 
z
" id="DejaVuSans-71"/>
       <path d="M 9.421875 54.6875 
L 18.40625 54.6875 
L 18.40625 0 
L 9.421875 0 
z
M 9.421875 75.984375 
L 18.40625 75.984375 
L 18.40625 64.59375 
L 9.421875 64.59375 
z
" id="DejaVuSans-105"/>
       <path d="M 25.390625 72.90625 
L 33.6875 72.90625 
L 8.296875 -9.28125 
L 0 -9.28125 
z
" id="DejaVuSans-47"/>
      </defs>
      <g style="fill:#808080;" transform="translate(619.796797 834.867969)scale(0.35 -0.35)">
       <use xlink:href="#DejaVuSans-71"/>
       <use x="77.490234" xlink:href="#DejaVuSans-105"/>
       <use x="105.273438" xlink:href="#DejaVuSans-116"/>
       <use x="144.482422" xlink:href="#DejaVuSans-47"/>
       <use x="178.173828" xlink:href="#DejaVuSans-71"/>
       <use x="255.664062" xlink:href="#DejaVuSans-105"/>
       <use x="283.447266" xlink:href="#DejaVuSans-116"/>
       <use x="322.65625" xlink:href="#DejaVuSans-104"/>
       <use x="386.035156" xlink:href="#DejaVuSans-117"/>
       <use x="449.414062" xlink:href="#DejaVuSans-98"/>
      </g>
     </g>
    </g>
    <g id="xtick_9">
     <g id="line2d_9">
      <path clip-path="url(#pdb9a4758c5)" d="M 709.547188 424.673437 
L 549.183758 757.671531 
" style="fill:none;stroke:#b0b0b0;stroke-linecap:square;stroke-width:0.8;"/>
     </g>
     <g id="text_9">
      <!-- Gazebo -->
      <defs>
       <path d="M 5.515625 54.6875 
L 48.1875 54.6875 
L 48.1875 46.484375 
L 14.40625 7.171875 
L 48.1875 7.171875 
L 48.1875 0 
L 4.296875 0 
L 4.296875 8.203125 
L 38.09375 47.515625 
L 5.515625 47.515625 
z
" id="DejaVuSans-122"/>
       <path d="M 56.203125 29.59375 
L 56.203125 25.203125 
L 14.890625 25.203125 
Q 15.484375 15.921875 20.484375 11.0625 
Q 25.484375 6.203125 34.421875 6.203125 
Q 39.59375 6.203125 44.453125 7.46875 
Q 49.3125 8.734375 54.109375 11.28125 
L 54.109375 2.78125 
Q 49.265625 0.734375 44.1875 -0.34375 
Q 39.109375 -1.421875 33.890625 -1.421875 
Q 20.796875 -1.421875 13.15625 6.1875 
Q 5.515625 13.8125 5.515625 26.8125 
Q 5.515625 40.234375 12.765625 48.109375 
Q 20.015625 56 32.328125 56 
Q 43.359375 56 49.78125 48.890625 
Q 56.203125 41.796875 56.203125 29.59375 
z
M 47.21875 32.234375 
Q 47.125 39.59375 43.09375 43.984375 
Q 39.0625 48.390625 32.421875 48.390625 
Q 24.90625 48.390625 20.390625 44.140625 
Q 15.875 39.890625 15.1875 32.171875 
z
" id="DejaVuSans-101"/>
      </defs>
      <g style="fill:#808080;" transform="translate(411.000791 796.879626)scale(0.35 -0.35)">
       <use xlink:href="#DejaVuSans-71"/>
       <use x="77.490234" xlink:href="#DejaVuSans-97"/>
       <use x="138.769531" xlink:href="#DejaVuSans-122"/>
       <use x="191.259766" xlink:href="#DejaVuSans-101"/>
       <use x="252.783203" xlink:href="#DejaVuSans-98"/>
       <use x="316.259766" xlink:href="#DejaVuSans-111"/>
      </g>
     </g>
    </g>
    <g id="xtick_10">
     <g id="line2d_10">
      <path clip-path="url(#pdb9a4758c5)" d="M 709.547188 424.673437 
L 420.582272 655.115268 
" style="fill:none;stroke:#b0b0b0;stroke-linecap:square;stroke-width:0.8;"/>
     </g>
     <g id="text_10">
      <!-- QtCreator -->
      <defs>
       <path d="M 39.40625 66.21875 
Q 28.65625 66.21875 22.328125 58.203125 
Q 16.015625 50.203125 16.015625 36.375 
Q 16.015625 22.609375 22.328125 14.59375 
Q 28.65625 6.59375 39.40625 6.59375 
Q 50.140625 6.59375 56.421875 14.59375 
Q 62.703125 22.609375 62.703125 36.375 
Q 62.703125 50.203125 56.421875 58.203125 
Q 50.140625 66.21875 39.40625 66.21875 
z
M 53.21875 1.3125 
L 66.21875 -12.890625 
L 54.296875 -12.890625 
L 43.5 -1.21875 
Q 41.890625 -1.3125 41.03125 -1.359375 
Q 40.1875 -1.421875 39.40625 -1.421875 
Q 24.03125 -1.421875 14.8125 8.859375 
Q 5.609375 19.140625 5.609375 36.375 
Q 5.609375 53.65625 14.8125 63.9375 
Q 24.03125 74.21875 39.40625 74.21875 
Q 54.734375 74.21875 63.90625 63.9375 
Q 73.09375 53.65625 73.09375 36.375 
Q 73.09375 23.6875 67.984375 14.640625 
Q 62.890625 5.609375 53.21875 1.3125 
z
" id="DejaVuSans-81"/>
       <path d="M 41.109375 46.296875 
Q 39.59375 47.171875 37.8125 47.578125 
Q 36.03125 48 33.890625 48 
Q 26.265625 48 22.1875 43.046875 
Q 18.109375 38.09375 18.109375 28.8125 
L 18.109375 0 
L 9.078125 0 
L 9.078125 54.6875 
L 18.109375 54.6875 
L 18.109375 46.1875 
Q 20.953125 51.171875 25.484375 53.578125 
Q 30.03125 56 36.53125 56 
Q 37.453125 56 38.578125 55.875 
Q 39.703125 55.765625 41.0625 55.515625 
z
" id="DejaVuSans-114"/>
      </defs>
      <g style="fill:#808080;" transform="translate(237.037412 690.438657)scale(0.35 -0.35)">
       <use xlink:href="#DejaVuSans-81"/>
       <use x="78.710938" xlink:href="#DejaVuSans-116"/>
       <use x="117.919922" xlink:href="#DejaVuSans-67"/>
       <use x="187.744141" xlink:href="#DejaVuSans-114"/>
       <use x="228.826172" xlink:href="#DejaVuSans-101"/>
       <use x="290.349609" xlink:href="#DejaVuSans-97"/>
       <use x="351.628906" xlink:href="#DejaVuSans-116"/>
       <use x="390.837891" xlink:href="#DejaVuSans-111"/>
       <use x="452.019531" xlink:href="#DejaVuSans-114"/>
      </g>
     </g>
    </g>
    <g id="xtick_11">
     <g id="line2d_11">
      <path clip-path="url(#pdb9a4758c5)" d="M 709.547188 424.673437 
L 349.213831 506.917175 
" style="fill:none;stroke:#b0b0b0;stroke-linecap:square;stroke-width:0.8;"/>
     </g>
     <g id="text_11">
      <!-- Simulink -->
      <defs>
       <path d="M 52 44.1875 
Q 55.375 50.25 60.0625 53.125 
Q 64.75 56 71.09375 56 
Q 79.640625 56 84.28125 50.015625 
Q 88.921875 44.046875 88.921875 33.015625 
L 88.921875 0 
L 79.890625 0 
L 79.890625 32.71875 
Q 79.890625 40.578125 77.09375 44.375 
Q 74.3125 48.1875 68.609375 48.1875 
Q 61.625 48.1875 57.5625 43.546875 
Q 53.515625 38.921875 53.515625 30.90625 
L 53.515625 0 
L 44.484375 0 
L 44.484375 32.71875 
Q 44.484375 40.625 41.703125 44.40625 
Q 38.921875 48.1875 33.109375 48.1875 
Q 26.21875 48.1875 22.15625 43.53125 
Q 18.109375 38.875 18.109375 30.90625 
L 18.109375 0 
L 9.078125 0 
L 9.078125 54.6875 
L 18.109375 54.6875 
L 18.109375 46.1875 
Q 21.1875 51.21875 25.484375 53.609375 
Q 29.78125 56 35.6875 56 
Q 41.65625 56 45.828125 52.96875 
Q 50 49.953125 52 44.1875 
z
" id="DejaVuSans-109"/>
       <path d="M 9.078125 75.984375 
L 18.109375 75.984375 
L 18.109375 31.109375 
L 44.921875 54.6875 
L 56.390625 54.6875 
L 27.390625 29.109375 
L 57.625 0 
L 45.90625 0 
L 18.109375 26.703125 
L 18.109375 0 
L 9.078125 0 
z
" id="DejaVuSans-107"/>
      </defs>
      <g style="fill:#808080;" transform="translate(185.453122 519.69028)scale(0.35 -0.35)">
       <use xlink:href="#DejaVuSans-83"/>
       <use x="63.476562" xlink:href="#DejaVuSans-105"/>
       <use x="91.259766" xlink:href="#DejaVuSans-109"/>
       <use x="188.671875" xlink:href="#DejaVuSans-117"/>
       <use x="252.050781" xlink:href="#DejaVuSans-108"/>
       <use x="279.833984" xlink:href="#DejaVuSans-105"/>
       <use x="307.617188" xlink:href="#DejaVuSans-110"/>
       <use x="370.996094" xlink:href="#DejaVuSans-107"/>
      </g>
     </g>
    </g>
    <g id="xtick_12">
     <g id="line2d_12">
      <path clip-path="url(#pdb9a4758c5)" d="M 709.547188 424.673437 
L 349.213831 342.4297 
" style="fill:none;stroke:#b0b0b0;stroke-linecap:square;stroke-width:0.8;"/>
     </g>
     <g id="text_12">
      <!-- Latex -->
      <defs>
       <path d="M 54.890625 54.6875 
L 35.109375 28.078125 
L 55.90625 0 
L 45.3125 0 
L 29.390625 21.484375 
L 13.484375 0 
L 2.875 0 
L 24.125 28.609375 
L 4.6875 54.6875 
L 15.28125 54.6875 
L 29.78125 35.203125 
L 44.28125 54.6875 
z
" id="DejaVuSans-120"/>
      </defs>
      <g style="fill:#808080;" transform="translate(238.647653 348.97222)scale(0.35 -0.35)">
       <use xlink:href="#DejaVuSans-76"/>
       <use x="55.712891" xlink:href="#DejaVuSans-97"/>
       <use x="116.992188" xlink:href="#DejaVuSans-116"/>
       <use x="156.201172" xlink:href="#DejaVuSans-101"/>
       <use x="217.708984" xlink:href="#DejaVuSans-120"/>
      </g>
     </g>
    </g>
    <g id="xtick_13">
     <g id="line2d_13">
      <path clip-path="url(#pdb9a4758c5)" d="M 709.547188 424.673437 
L 420.582272 194.231607 
" style="fill:none;stroke:#b0b0b0;stroke-linecap:square;stroke-width:0.8;"/>
     </g>
     <g id="text_13">
      <!-- PyCharm -->
      <g style="fill:#808080;" transform="translate(251.272568 178.223843)scale(0.35 -0.35)">
       <use xlink:href="#DejaVuSans-80"/>
       <use x="60.302734" xlink:href="#DejaVuSans-121"/>
       <use x="119.482422" xlink:href="#DejaVuSans-67"/>
       <use x="189.306641" xlink:href="#DejaVuSans-104"/>
       <use x="252.685547" xlink:href="#DejaVuSans-97"/>
       <use x="313.964844" xlink:href="#DejaVuSans-114"/>
       <use x="355.0625" xlink:href="#DejaVuSans-109"/>
      </g>
     </g>
    </g>
    <g id="xtick_14">
     <g id="line2d_14">
      <path clip-path="url(#pdb9a4758c5)" d="M 709.547188 424.673437 
L 549.183758 91.675344 
" style="fill:none;stroke:#b0b0b0;stroke-linecap:square;stroke-width:0.8;"/>
     </g>
     <g id="text_14">
      <!-- Lightroom -->
      <defs>
       <path d="M 45.40625 27.984375 
Q 45.40625 37.75 41.375 43.109375 
Q 37.359375 48.484375 30.078125 48.484375 
Q 22.859375 48.484375 18.828125 43.109375 
Q 14.796875 37.75 14.796875 27.984375 
Q 14.796875 18.265625 18.828125 12.890625 
Q 22.859375 7.515625 30.078125 7.515625 
Q 37.359375 7.515625 41.375 12.890625 
Q 45.40625 18.265625 45.40625 27.984375 
z
M 54.390625 6.78125 
Q 54.390625 -7.171875 48.1875 -13.984375 
Q 42 -20.796875 29.203125 -20.796875 
Q 24.46875 -20.796875 20.265625 -20.09375 
Q 16.0625 -19.390625 12.109375 -17.921875 
L 12.109375 -9.1875 
Q 16.0625 -11.328125 19.921875 -12.34375 
Q 23.78125 -13.375 27.78125 -13.375 
Q 36.625 -13.375 41.015625 -8.765625 
Q 45.40625 -4.15625 45.40625 5.171875 
L 45.40625 9.625 
Q 42.625 4.78125 38.28125 2.390625 
Q 33.9375 0 27.875 0 
Q 17.828125 0 11.671875 7.65625 
Q 5.515625 15.328125 5.515625 27.984375 
Q 5.515625 40.671875 11.671875 48.328125 
Q 17.828125 56 27.875 56 
Q 33.9375 56 38.28125 53.609375 
Q 42.625 51.21875 45.40625 46.390625 
L 45.40625 54.6875 
L 54.390625 54.6875 
z
" id="DejaVuSans-103"/>
      </defs>
      <g style="fill:#808080;" transform="translate(364.461729 71.782874)scale(0.35 -0.35)">
       <use xlink:href="#DejaVuSans-76"/>
       <use x="55.712891" xlink:href="#DejaVuSans-105"/>
       <use x="83.496094" xlink:href="#DejaVuSans-103"/>
       <use x="146.972656" xlink:href="#DejaVuSans-104"/>
       <use x="210.351562" xlink:href="#DejaVuSans-116"/>
       <use x="249.560547" xlink:href="#DejaVuSans-114"/>
       <use x="290.642578" xlink:href="#DejaVuSans-111"/>
       <use x="351.824219" xlink:href="#DejaVuSans-111"/>
       <use x="413.005859" xlink:href="#DejaVuSans-109"/>
      </g>
     </g>
    </g>
   </g>
   <g id="matplotlib.axis_2">
    <g id="ytick_1">
     <g id="line2d_15">
      <path clip-path="url(#pdb9a4758c5)" d="M 709.547188 350.753437 
L 714.703586 350.933503 
L 719.834863 351.472822 
L 724.91602 352.368767 
L 729.922301 353.616973 
L 734.829316 355.211359 
L 739.61316 357.144157 
L 744.250525 359.405951 
L 748.71882 361.985722 
L 752.996273 364.870901 
L 757.062048 368.047432 
L 760.896334 371.499839 
L 764.480453 375.211303 
L 767.796942 379.163741 
L 770.829645 383.337898 
L 773.563785 387.713437 
L 775.986043 392.269042 
L 778.084618 396.982518 
L 779.849285 401.830901 
L 781.271448 406.790571 
L 782.344177 411.837364 
L 783.062246 416.946693 
L 783.422157 422.093667 
L 783.422157 427.253208 
L 783.062246 432.400182 
L 782.344177 437.509511 
L 781.271448 442.556304 
L 779.849285 447.515974 
L 778.084618 452.364357 
L 775.986043 457.077833 
L 773.563785 461.633437 
L 770.829645 466.008977 
L 767.796942 470.183134 
L 764.480453 474.135572 
L 760.896334 477.847036 
L 757.062048 481.299443 
L 752.996273 484.475974 
L 748.71882 487.361153 
L 744.250525 489.940924 
L 739.61316 492.202718 
L 734.829316 494.135516 
L 729.922301 495.729902 
L 724.91602 496.978108 
L 719.834863 497.874053 
L 714.703586 498.413372 
L 709.547188 498.593437 
L 704.390789 498.413372 
L 699.259512 497.874053 
L 694.178355 496.978108 
L 689.172074 495.729902 
L 684.265059 494.135516 
L 679.481215 492.202718 
L 674.84385 489.940924 
L 670.375555 487.361153 
L 666.098102 484.475974 
L 662.032327 481.299443 
L 658.198041 477.847036 
L 654.613922 474.135572 
L 651.297433 470.183134 
L 648.26473 466.008977 
L 645.53059 461.633437 
L 643.108332 457.077833 
L 641.009757 452.364357 
L 639.24509 447.515974 
L 637.822927 442.556304 
L 636.750198 437.509511 
L 636.032129 432.400182 
L 635.672218 427.253208 
L 635.672218 422.093667 
L 636.032129 416.946693 
L 636.750198 411.837364 
L 637.822927 406.790571 
L 639.24509 401.830901 
L 641.009757 396.982518 
L 643.108332 392.269042 
L 645.53059 387.713437 
L 648.26473 383.337898 
L 651.297433 379.163741 
L 654.613922 375.211303 
L 658.198041 371.499839 
L 662.032327 368.047432 
L 666.098102 364.870901 
L 670.375555 361.985722 
L 674.84385 359.405951 
L 679.481215 357.144157 
L 684.265059 355.211359 
L 689.172074 353.616973 
L 694.178355 352.368767 
L 699.259512 351.472822 
L 704.390789 350.933503 
L 709.547188 350.753437 
L 709.547188 350.753437 
" style="fill:none;stroke:#b0b0b0;stroke-linecap:square;stroke-width:0.8;"/>
     </g>
     <g id="text_15">
      <!-- Fundamental -->
      <defs>
       <path d="M 9.8125 72.90625 
L 51.703125 72.90625 
L 51.703125 64.59375 
L 19.671875 64.59375 
L 19.671875 43.109375 
L 48.578125 43.109375 
L 48.578125 34.8125 
L 19.671875 34.8125 
L 19.671875 0 
L 9.8125 0 
z
" id="DejaVuSans-70"/>
       <path d="M 45.40625 46.390625 
L 45.40625 75.984375 
L 54.390625 75.984375 
L 54.390625 0 
L 45.40625 0 
L 45.40625 8.203125 
Q 42.578125 3.328125 38.25 0.953125 
Q 33.9375 -1.421875 27.875 -1.421875 
Q 17.96875 -1.421875 11.734375 6.484375 
Q 5.515625 14.40625 5.515625 27.296875 
Q 5.515625 40.1875 11.734375 48.09375 
Q 17.96875 56 27.875 56 
Q 33.9375 56 38.25 53.625 
Q 42.578125 51.265625 45.40625 46.390625 
z
M 14.796875 27.296875 
Q 14.796875 17.390625 18.875 11.75 
Q 22.953125 6.109375 30.078125 6.109375 
Q 37.203125 6.109375 41.296875 11.75 
Q 45.40625 17.390625 45.40625 27.296875 
Q 45.40625 37.203125 41.296875 42.84375 
Q 37.203125 48.484375 30.078125 48.484375 
Q 22.953125 48.484375 18.875 42.84375 
Q 14.796875 37.203125 14.796875 27.296875 
z
" id="DejaVuSans-100"/>
      </defs>
      <g style="fill:#808080;opacity:0.9;" transform="translate(669.333147 482.53823)scale(0.2 -0.2)">
       <use xlink:href="#DejaVuSans-70"/>
       <use x="57.441406" xlink:href="#DejaVuSans-117"/>
       <use x="120.820312" xlink:href="#DejaVuSans-110"/>
       <use x="184.199219" xlink:href="#DejaVuSans-100"/>
       <use x="247.675781" xlink:href="#DejaVuSans-97"/>
       <use x="308.955078" xlink:href="#DejaVuSans-109"/>
       <use x="406.367188" xlink:href="#DejaVuSans-101"/>
       <use x="467.890625" xlink:href="#DejaVuSans-110"/>
       <use x="531.269531" xlink:href="#DejaVuSans-116"/>
       <use x="570.478516" xlink:href="#DejaVuSans-97"/>
       <use x="631.757812" xlink:href="#DejaVuSans-108"/>
      </g>
     </g>
    </g>
    <g id="ytick_2">
     <g id="line2d_16">
      <path clip-path="url(#pdb9a4758c5)" d="M 709.547188 276.833437 
L 714.706729 276.923498 
L 719.859985 277.193568 
L 725.000676 277.64332 
L 730.122539 278.272206 
L 735.219334 279.079459 
L 740.284852 280.064096 
L 745.312921 281.224917 
L 750.297414 282.560508 
L 755.23226 284.069242 
L 760.111445 285.74928 
L 764.929026 287.598576 
L 769.679133 289.614877 
L 774.355978 291.795726 
L 778.953863 294.138465 
L 783.467188 296.640242 
L 787.890452 299.298007 
L 792.218266 302.108523 
L 796.445359 305.068365 
L 800.56658 308.173928 
L 804.576908 311.421427 
L 808.471456 314.806907 
L 812.245481 318.326241 
L 815.894384 321.975144 
L 819.413718 325.749169 
L 822.799198 329.643717 
L 826.046697 333.654045 
L 829.15226 337.775266 
L 832.112102 342.002359 
L 834.922618 346.330173 
L 837.580383 350.753437 
L 840.08216 355.266762 
L 842.424899 359.864647 
L 844.605748 364.541492 
L 846.622049 369.291599 
L 848.471345 374.10918 
L 850.151383 378.988365 
L 851.660117 383.923211 
L 852.995708 388.907704 
L 854.156529 393.935773 
L 855.141166 399.001291 
L 855.948419 404.098086 
L 856.577305 409.219949 
L 857.027057 414.36064 
L 857.297127 419.513896 
L 857.387188 424.673437 
L 857.297127 429.832979 
L 857.027057 434.986235 
L 856.577305 440.126926 
L 855.948419 445.248789 
L 855.141166 450.345584 
L 854.156529 455.411102 
L 852.995708 460.439171 
L 851.660117 465.423664 
L 850.151383 470.35851 
L 848.471345 475.237695 
L 846.622049 480.055276 
L 844.605748 484.805383 
L 842.424899 489.482228 
L 840.08216 494.080113 
L 837.580383 498.593437 
L 834.922618 503.016702 
L 832.112102 507.344516 
L 829.15226 511.571609 
L 826.046697 515.69283 
L 822.799198 519.703158 
L 819.413718 523.597706 
L 815.894384 527.371731 
L 812.245481 531.020634 
L 808.471456 534.539968 
L 804.576908 537.925448 
L 800.56658 541.172947 
L 796.445359 544.27851 
L 792.218266 547.238352 
L 787.890452 550.048868 
L 783.467188 552.706633 
L 778.953863 555.20841 
L 774.355978 557.551149 
L 769.679133 559.731998 
L 764.929026 561.748299 
L 760.111445 563.597595 
L 755.23226 565.277633 
L 750.297414 566.786367 
L 745.312921 568.121958 
L 740.284852 569.282779 
L 735.219334 570.267416 
L 730.122539 571.074669 
L 725.000676 571.703555 
L 719.859985 572.153307 
L 714.706729 572.423377 
L 709.547188 572.513437 
L 704.387646 572.423377 
L 699.23439 572.153307 
L 694.093699 571.703555 
L 688.971836 571.074669 
L 683.875041 570.267416 
L 678.809523 569.282779 
L 673.781454 568.121958 
L 668.796961 566.786367 
L 663.862115 565.277633 
L 658.98293 563.597595 
L 654.165349 561.748299 
L 649.415242 559.731998 
L 644.738397 557.551149 
L 640.140512 555.20841 
L 635.627187 552.706633 
L 631.203923 550.048868 
L 626.876109 547.238352 
L 622.649016 544.27851 
L 618.527795 541.172947 
L 614.517467 537.925448 
L 610.622919 534.539968 
L 606.848894 531.020634 
L 603.199991 527.371731 
L 599.680657 523.597706 
L 596.295177 519.703158 
L 593.047678 515.69283 
L 589.942115 511.571609 
L 586.982273 507.344516 
L 584.171757 503.016702 
L 581.513992 498.593437 
L 579.012215 494.080113 
L 576.669476 489.482228 
L 574.488627 484.805383 
L 572.472326 480.055276 
L 570.62303 475.237695 
L 568.942992 470.35851 
L 567.434258 465.423664 
L 566.098667 460.439171 
L 564.937846 455.411102 
L 563.953209 450.345584 
L 563.145956 445.248789 
L 562.51707 440.126926 
L 562.067318 434.986235 
L 561.797248 429.832979 
L 561.707188 424.673437 
L 561.797248 419.513896 
L 562.067318 414.36064 
L 562.51707 409.219949 
L 563.145956 404.098086 
L 563.953209 399.001291 
L 564.937846 393.935773 
L 566.098667 388.907704 
L 567.434258 383.923211 
L 568.942992 378.988365 
L 570.62303 374.10918 
L 572.472326 369.291599 
L 574.488627 364.541492 
L 576.669476 359.864647 
L 579.012215 355.266762 
L 581.513992 350.753437 
L 584.171757 346.330173 
L 586.982273 342.002359 
L 589.942115 337.775266 
L 593.047678 333.654045 
L 596.295177 329.643717 
L 599.680657 325.749169 
L 603.199991 321.975144 
L 606.848894 318.326241 
L 610.622919 314.806907 
L 614.517467 311.421427 
L 618.527795 308.173928 
L 622.649016 305.068365 
L 626.876109 302.108523 
L 631.203923 299.298007 
L 635.627187 296.640242 
L 640.140512 294.138465 
L 644.738397 291.795726 
L 649.415242 289.614877 
L 654.165349 287.598576 
L 658.98293 285.74928 
L 663.862115 284.069242 
L 668.796961 282.560508 
L 673.781454 281.224917 
L 678.809523 280.064096 
L 683.875041 279.079459 
L 688.971836 278.272206 
L 694.093699 277.64332 
L 699.23439 277.193568 
L 704.387646 276.923498 
L 709.547188 276.833437 
L 709.547188 276.833437 
" style="fill:none;stroke:#b0b0b0;stroke-linecap:square;stroke-width:0.8;"/>
     </g>
     <g id="text_16">
      <!-- Novice -->
      <defs>
       <path d="M 9.8125 72.90625 
L 23.09375 72.90625 
L 55.421875 11.921875 
L 55.421875 72.90625 
L 64.984375 72.90625 
L 64.984375 0 
L 51.703125 0 
L 19.390625 60.984375 
L 19.390625 0 
L 9.8125 0 
z
" id="DejaVuSans-78"/>
       <path d="M 2.984375 54.6875 
L 12.5 54.6875 
L 29.59375 8.796875 
L 46.6875 54.6875 
L 56.203125 54.6875 
L 35.6875 0 
L 23.484375 0 
z
" id="DejaVuSans-118"/>
       <path d="M 48.78125 52.59375 
L 48.78125 44.1875 
Q 44.96875 46.296875 41.140625 47.34375 
Q 37.3125 48.390625 33.40625 48.390625 
Q 24.65625 48.390625 19.8125 42.84375 
Q 14.984375 37.3125 14.984375 27.296875 
Q 14.984375 17.28125 19.8125 11.734375 
Q 24.65625 6.203125 33.40625 6.203125 
Q 37.3125 6.203125 41.140625 7.25 
Q 44.96875 8.296875 48.78125 10.40625 
L 48.78125 2.09375 
Q 45.015625 0.34375 40.984375 -0.53125 
Q 36.96875 -1.421875 32.421875 -1.421875 
Q 20.0625 -1.421875 12.78125 6.34375 
Q 5.515625 14.109375 5.515625 27.296875 
Q 5.515625 40.671875 12.859375 48.328125 
Q 20.21875 56 33.015625 56 
Q 37.15625 56 41.109375 55.140625 
Q 45.0625 54.296875 48.78125 52.59375 
z
" id="DejaVuSans-99"/>
      </defs>
      <g style="fill:#808080;opacity:0.9;" transform="translate(629.119106 544.562397)scale(0.2 -0.2)">
       <use xlink:href="#DejaVuSans-78"/>
       <use x="74.804688" xlink:href="#DejaVuSans-111"/>
       <use x="135.986328" xlink:href="#DejaVuSans-118"/>
       <use x="195.166016" xlink:href="#DejaVuSans-105"/>
       <use x="222.949219" xlink:href="#DejaVuSans-99"/>
       <use x="277.929688" xlink:href="#DejaVuSans-101"/>
      </g>
     </g>
    </g>
    <g id="ytick_3">
     <g id="line2d_17">
      <path clip-path="url(#pdb9a4758c5)" d="M 709.547188 202.913437 
L 717.2865 203.048528 
L 725.016383 203.453634 
L 732.72742 204.128262 
L 740.410214 205.071591 
L 748.055407 206.28247 
L 755.653684 207.759426 
L 763.195787 209.500657 
L 770.672528 211.504044 
L 778.074796 213.767144 
L 785.393574 216.287202 
L 792.619946 219.061146 
L 799.745105 222.085597 
L 806.760373 225.35687 
L 813.657201 228.870979 
L 820.427188 232.623644 
L 827.062084 236.610292 
L 833.553806 240.826065 
L 839.894445 245.265829 
L 846.076276 249.924173 
L 852.091768 254.795422 
L 857.933591 259.873641 
L 863.594628 265.152643 
L 869.067982 270.625997 
L 874.346984 276.287034 
L 879.425203 282.128857 
L 884.296452 288.144349 
L 888.954796 294.32618 
L 893.39456 300.666819 
L 897.610333 307.158541 
L 901.596981 313.793437 
L 905.349646 320.563424 
L 908.863755 327.460252 
L 912.135028 334.47552 
L 915.159479 341.600679 
L 917.933423 348.827051 
L 920.453481 356.145829 
L 922.716581 363.548097 
L 924.719968 371.024838 
L 926.461199 378.566941 
L 927.938155 386.165218 
L 929.149034 393.810411 
L 930.092363 401.493205 
L 930.766991 409.204242 
L 931.172097 416.934125 
L 931.307188 424.673437 
L 931.172097 432.41275 
L 930.766991 440.142633 
L 930.092363 447.85367 
L 929.149034 455.536464 
L 927.938155 463.181657 
L 926.461199 470.779934 
L 924.719968 478.322037 
L 922.716581 485.798778 
L 920.453481 493.201046 
L 917.933423 500.519824 
L 915.159479 507.746196 
L 912.135028 514.871355 
L 908.863755 521.886623 
L 905.349646 528.783451 
L 901.596981 535.553437 
L 897.610333 542.188334 
L 893.39456 548.680056 
L 888.954796 555.020695 
L 884.296452 561.202526 
L 879.425203 567.218018 
L 874.346984 573.059841 
L 869.067982 578.720878 
L 863.594628 584.194232 
L 857.933591 589.473234 
L 852.091768 594.551453 
L 846.076276 599.422702 
L 839.894445 604.081046 
L 833.553806 608.52081 
L 827.062084 612.736583 
L 820.427188 616.723231 
L 813.657201 620.475896 
L 806.760373 623.990005 
L 799.745105 627.261278 
L 792.619946 630.285729 
L 785.393574 633.059673 
L 778.074796 635.579731 
L 770.672528 637.842831 
L 763.195787 639.846218 
L 755.653684 641.587449 
L 748.055407 643.064405 
L 740.410214 644.275284 
L 732.72742 645.218613 
L 725.016383 645.893241 
L 717.2865 646.298347 
L 709.547188 646.433437 
L 701.807875 646.298347 
L 694.077992 645.893241 
L 686.366955 645.218613 
L 678.684161 644.275284 
L 671.038968 643.064405 
L 663.440691 641.587449 
L 655.898588 639.846218 
L 648.421847 637.842831 
L 641.019579 635.579731 
L 633.700801 633.059673 
L 626.474429 630.285729 
L 619.34927 627.261278 
L 612.334002 623.990005 
L 605.437174 620.475896 
L 598.667187 616.723231 
L 592.032291 612.736583 
L 585.540569 608.52081 
L 579.19993 604.081046 
L 573.018099 599.422702 
L 567.002607 594.551453 
L 561.160784 589.473234 
L 555.499747 584.194232 
L 550.026393 578.720878 
L 544.747391 573.059841 
L 539.669172 567.218018 
L 534.797923 561.202526 
L 530.139579 555.020695 
L 525.699815 548.680056 
L 521.484042 542.188334 
L 517.497394 535.553437 
L 513.744729 528.783451 
L 510.23062 521.886623 
L 506.959347 514.871355 
L 503.934896 507.746196 
L 501.160952 500.519824 
L 498.640894 493.201046 
L 496.377794 485.798778 
L 494.374407 478.322037 
L 492.633176 470.779934 
L 491.15622 463.181657 
L 489.945341 455.536464 
L 489.002012 447.85367 
L 488.327384 440.142633 
L 487.922278 432.41275 
L 487.787188 424.673437 
L 487.922278 416.934125 
L 488.327384 409.204242 
L 489.002012 401.493205 
L 489.945341 393.810411 
L 491.15622 386.165218 
L 492.633176 378.566941 
L 494.374407 371.024838 
L 496.377794 363.548097 
L 498.640894 356.145829 
L 501.160952 348.827051 
L 503.934896 341.600679 
L 506.959347 334.47552 
L 510.23062 327.460252 
L 513.744729 320.563424 
L 517.497394 313.793437 
L 521.484042 307.158541 
L 525.699815 300.666819 
L 530.139579 294.32618 
L 534.797923 288.144349 
L 539.669172 282.128857 
L 544.747391 276.287034 
L 550.026393 270.625997 
L 555.499747 265.152643 
L 561.160784 259.873641 
L 567.002607 254.795422 
L 573.018099 249.924173 
L 579.19993 245.265829 
L 585.540569 240.826065 
L 592.032291 236.610292 
L 598.667187 232.623644 
L 605.437174 228.870979 
L 612.334002 225.35687 
L 619.34927 222.085597 
L 626.474429 219.061146 
L 633.700801 216.287202 
L 641.019579 213.767144 
L 648.421847 211.504044 
L 655.898588 209.500657 
L 663.440691 207.759426 
L 671.038968 206.28247 
L 678.684161 205.071591 
L 686.366955 204.128262 
L 694.077992 203.453634 
L 701.807875 203.048528 
L 709.547188 202.913437 
L 709.547188 202.913437 
" style="fill:none;stroke:#b0b0b0;stroke-linecap:square;stroke-width:0.8;"/>
     </g>
     <g id="text_17">
      <!-- Intermediate -->
      <defs>
       <path d="M 9.8125 72.90625 
L 19.671875 72.90625 
L 19.671875 0 
L 9.8125 0 
z
" id="DejaVuSans-73"/>
      </defs>
      <g style="fill:#808080;opacity:0.9;" transform="translate(588.905066 606.586565)scale(0.2 -0.2)">
       <use xlink:href="#DejaVuSans-73"/>
       <use x="29.492188" xlink:href="#DejaVuSans-110"/>
       <use x="92.871094" xlink:href="#DejaVuSans-116"/>
       <use x="132.080078" xlink:href="#DejaVuSans-101"/>
       <use x="193.603516" xlink:href="#DejaVuSans-114"/>
       <use x="234.701172" xlink:href="#DejaVuSans-109"/>
       <use x="332.113281" xlink:href="#DejaVuSans-101"/>
       <use x="393.636719" xlink:href="#DejaVuSans-100"/>
       <use x="457.113281" xlink:href="#DejaVuSans-105"/>
       <use x="484.896484" xlink:href="#DejaVuSans-97"/>
       <use x="546.175781" xlink:href="#DejaVuSans-116"/>
       <use x="585.384766" xlink:href="#DejaVuSans-101"/>
      </g>
     </g>
    </g>
    <g id="ytick_4">
     <g id="line2d_18">
      <path clip-path="url(#pdb9a4758c5)" d="M 709.547188 128.993437 
L 719.866271 129.173558 
L 730.172782 129.713699 
L 740.454164 130.613203 
L 750.69789 131.870975 
L 760.891481 133.485481 
L 771.022516 135.454755 
L 781.078654 137.776397 
L 791.047641 140.447579 
L 800.917332 143.465047 
L 810.675703 146.825123 
L 820.310865 150.523715 
L 829.811078 154.556317 
L 839.164768 158.918014 
L 848.360539 163.603493 
L 857.387187 168.607046 
L 866.233716 173.922576 
L 874.889345 179.543608 
L 883.343531 185.463293 
L 891.585973 191.674418 
L 899.606628 198.169417 
L 907.395725 204.940376 
L 914.943774 211.979045 
L 922.24158 219.276851 
L 929.280249 226.8249 
L 936.051208 234.613997 
L 942.546207 242.634652 
L 948.757332 250.877094 
L 954.677017 259.33128 
L 960.298049 267.986909 
L 965.613579 276.833437 
L 970.617132 285.860086 
L 975.302611 295.055857 
L 979.664308 304.409547 
L 983.69691 313.90976 
L 987.395502 323.544922 
L 990.755578 333.303293 
L 993.773046 343.172984 
L 996.444228 353.141971 
L 998.76587 363.198109 
L 1000.735144 373.329144 
L 1002.34965 383.522735 
L 1003.607422 393.766461 
L 1004.506926 404.047843 
L 1005.047067 414.354354 
L 1005.227188 424.673437 
L 1005.047067 434.992521 
L 1004.506926 445.299032 
L 1003.607422 455.580414 
L 1002.34965 465.82414 
L 1000.735144 476.017731 
L 998.76587 486.148766 
L 996.444228 496.204904 
L 993.773046 506.173891 
L 990.755578 516.043582 
L 987.395502 525.801953 
L 983.69691 535.437115 
L 979.664308 544.937328 
L 975.302611 554.291018 
L 970.617132 563.486789 
L 965.613579 572.513437 
L 960.298049 581.359966 
L 954.677017 590.015595 
L 948.757332 598.469781 
L 942.546207 606.712223 
L 936.051208 614.732878 
L 929.280249 622.521975 
L 922.24158 630.070024 
L 914.943774 637.36783 
L 907.395725 644.406499 
L 899.606628 651.177458 
L 891.585973 657.672457 
L 883.343531 663.883582 
L 874.889345 669.803267 
L 866.233716 675.424299 
L 857.387187 680.739829 
L 848.360539 685.743382 
L 839.164768 690.428861 
L 829.811078 694.790558 
L 820.310865 698.82316 
L 810.675703 702.521752 
L 800.917332 705.881828 
L 791.047641 708.899296 
L 781.078654 711.570478 
L 771.022516 713.89212 
L 760.891481 715.861394 
L 750.69789 717.4759 
L 740.454164 718.733672 
L 730.172782 719.633176 
L 719.866271 720.173317 
L 709.547188 720.353437 
L 699.228104 720.173317 
L 688.921593 719.633176 
L 678.640211 718.733672 
L 668.396485 717.4759 
L 658.202894 715.861394 
L 648.071859 713.89212 
L 638.015721 711.570478 
L 628.046734 708.899296 
L 618.177043 705.881828 
L 608.418672 702.521752 
L 598.78351 698.82316 
L 589.283297 694.790558 
L 579.929607 690.428861 
L 570.733836 685.743382 
L 561.707188 680.739829 
L 552.860659 675.424299 
L 544.20503 669.803267 
L 535.750844 663.883582 
L 527.508402 657.672457 
L 519.487747 651.177458 
L 511.69865 644.406499 
L 504.150601 637.36783 
L 496.852795 630.070024 
L 489.814126 622.521975 
L 483.043167 614.732878 
L 476.548168 606.712223 
L 470.337043 598.469781 
L 464.417358 590.015595 
L 458.796326 581.359966 
L 453.480796 572.513438 
L 448.477243 563.486789 
L 443.791764 554.291018 
L 439.430067 544.937328 
L 435.397465 535.437115 
L 431.698873 525.801953 
L 428.338797 516.043582 
L 425.321329 506.173891 
L 422.650147 496.204904 
L 420.328505 486.148766 
L 418.359231 476.017731 
L 416.744725 465.82414 
L 415.486953 455.580414 
L 414.587449 445.299032 
L 414.047308 434.992521 
L 413.867188 424.673437 
L 414.047308 414.354354 
L 414.587449 404.047843 
L 415.486953 393.766461 
L 416.744725 383.522735 
L 418.359231 373.329144 
L 420.328505 363.198109 
L 422.650147 353.141971 
L 425.321329 343.172984 
L 428.338797 333.303293 
L 431.698873 323.544922 
L 435.397465 313.90976 
L 439.430067 304.409547 
L 443.791764 295.055857 
L 448.477243 285.860086 
L 453.480796 276.833437 
L 458.796326 267.986909 
L 464.417358 259.33128 
L 470.337043 250.877094 
L 476.548168 242.634652 
L 483.043167 234.613997 
L 489.814126 226.8249 
L 496.852795 219.276851 
L 504.150601 211.979045 
L 511.69865 204.940376 
L 519.487747 198.169417 
L 527.508402 191.674418 
L 535.750844 185.463293 
L 544.20503 179.543608 
L 552.860659 173.922576 
L 561.707187 168.607046 
L 570.733836 163.603493 
L 579.929607 158.918014 
L 589.283297 154.556317 
L 598.78351 150.523715 
L 608.418672 146.825123 
L 618.177043 143.465047 
L 628.046734 140.447579 
L 638.015721 137.776397 
L 648.071859 135.454755 
L 658.202894 133.485481 
L 668.396485 131.870975 
L 678.640211 130.613203 
L 688.921593 129.713699 
L 699.228104 129.173558 
L 709.547188 128.993437 
L 709.547188 128.993437 
" style="fill:none;stroke:#b0b0b0;stroke-linecap:square;stroke-width:0.8;"/>
     </g>
     <g id="text_18">
      <!-- Advanced -->
      <g style="fill:#808080;opacity:0.9;" transform="translate(548.691025 668.610732)scale(0.2 -0.2)">
       <use xlink:href="#DejaVuSans-65"/>
       <use x="68.392578" xlink:href="#DejaVuSans-100"/>
       <use x="131.869141" xlink:href="#DejaVuSans-118"/>
       <use x="191.048828" xlink:href="#DejaVuSans-97"/>
       <use x="252.328125" xlink:href="#DejaVuSans-110"/>
       <use x="315.707031" xlink:href="#DejaVuSans-99"/>
       <use x="370.6875" xlink:href="#DejaVuSans-101"/>
       <use x="432.210938" xlink:href="#DejaVuSans-100"/>
      </g>
     </g>
    </g>
    <g id="ytick_5">
     <g id="line2d_19">
      <path clip-path="url(#pdb9a4758c5)" d="M 709.547188 55.073437 
L 722.446041 55.298588 
L 735.32918 55.973765 
L 748.180908 57.098145 
L 760.985566 58.670359 
L 773.727554 60.688492 
L 786.391348 63.150084 
L 798.96152 66.052137 
L 811.422754 69.391115 
L 823.759869 73.162949 
L 835.957832 77.363045 
L 848.001784 81.986285 
L 859.877051 87.027036 
L 871.569163 92.479158 
L 883.063877 98.336007 
L 894.347188 104.590448 
L 905.405348 111.234861 
L 916.224885 118.261151 
L 926.792617 125.660756 
L 937.095669 133.424663 
L 947.121488 141.543411 
L 956.85786 150.00711 
L 966.292921 158.805447 
L 975.415178 167.927704 
L 984.213515 177.362765 
L 992.677214 187.099137 
L 1000.795962 197.124956 
L 1008.559869 207.428008 
L 1015.959474 217.99574 
L 1022.985764 228.815277 
L 1029.630177 239.873437 
L 1035.884618 251.156748 
L 1041.741467 262.651462 
L 1047.193589 274.343574 
L 1052.23434 286.218841 
L 1056.85758 298.262793 
L 1061.057676 310.460756 
L 1064.82951 322.797871 
L 1068.168488 335.259105 
L 1071.070541 347.829277 
L 1073.532133 360.493071 
L 1075.550266 373.235059 
L 1077.12248 386.039717 
L 1078.24686 398.891445 
L 1078.922037 411.774584 
L 1079.147188 424.673437 
L 1078.922037 437.572291 
L 1078.24686 450.45543 
L 1077.12248 463.307158 
L 1075.550266 476.111816 
L 1073.532133 488.853804 
L 1071.070541 501.517598 
L 1068.168488 514.08777 
L 1064.82951 526.549004 
L 1061.057676 538.886119 
L 1056.85758 551.084082 
L 1052.23434 563.128034 
L 1047.193589 575.003301 
L 1041.741467 586.695413 
L 1035.884618 598.190127 
L 1029.630177 609.473437 
L 1022.985764 620.531598 
L 1015.959474 631.351135 
L 1008.559869 641.918867 
L 1000.795962 652.221919 
L 992.677214 662.247738 
L 984.213515 671.98411 
L 975.415178 681.419171 
L 966.292921 690.541428 
L 956.85786 699.339765 
L 947.121488 707.803464 
L 937.095669 715.922212 
L 926.792617 723.686119 
L 916.224885 731.085724 
L 905.405348 738.112014 
L 894.347188 744.756427 
L 883.063877 751.010868 
L 871.569163 756.867717 
L 859.877051 762.319839 
L 848.001784 767.36059 
L 835.957832 771.98383 
L 823.759869 776.183926 
L 811.422754 779.95576 
L 798.96152 783.294738 
L 786.391348 786.196791 
L 773.727554 788.658383 
L 760.985566 790.676516 
L 748.180908 792.24873 
L 735.32918 793.37311 
L 722.446041 794.048287 
L 709.547188 794.273437 
L 696.648334 794.048287 
L 683.765195 793.37311 
L 670.913467 792.24873 
L 658.108809 790.676516 
L 645.366821 788.658383 
L 632.703027 786.196791 
L 620.132855 783.294738 
L 607.671621 779.95576 
L 595.334506 776.183926 
L 583.136543 771.98383 
L 571.092591 767.36059 
L 559.217324 762.319839 
L 547.525212 756.867717 
L 536.030498 751.010868 
L 524.747187 744.756427 
L 513.689027 738.112014 
L 502.86949 731.085724 
L 492.301758 723.686119 
L 481.998706 715.922212 
L 471.972887 707.803464 
L 462.236515 699.339765 
L 452.801454 690.541428 
L 443.679197 681.419171 
L 434.88086 671.98411 
L 426.417161 662.247738 
L 418.298413 652.221919 
L 410.534506 641.918867 
L 403.134901 631.351135 
L 396.108611 620.531598 
L 389.464198 609.473438 
L 383.209757 598.190127 
L 377.352908 586.695413 
L 371.900786 575.003301 
L 366.860035 563.128034 
L 362.236795 551.084082 
L 358.036699 538.886119 
L 354.264865 526.549004 
L 350.925887 514.08777 
L 348.023834 501.517598 
L 345.562242 488.853804 
L 343.544109 476.111816 
L 341.971895 463.307158 
L 340.847515 450.45543 
L 340.172338 437.572291 
L 339.947188 424.673437 
L 340.172338 411.774584 
L 340.847515 398.891445 
L 341.971895 386.039717 
L 343.544109 373.235059 
L 345.562242 360.493071 
L 348.023834 347.829277 
L 350.925887 335.259105 
L 354.264865 322.797871 
L 358.036699 310.460756 
L 362.236795 298.262793 
L 366.860035 286.218841 
L 371.900786 274.343574 
L 377.352908 262.651462 
L 383.209757 251.156748 
L 389.464198 239.873437 
L 396.108611 228.815277 
L 403.134901 217.99574 
L 410.534506 207.428008 
L 418.298413 197.124956 
L 426.417161 187.099137 
L 434.88086 177.362765 
L 443.679197 167.927704 
L 452.801454 158.805447 
L 462.236515 150.00711 
L 471.972887 141.543411 
L 481.998706 133.424663 
L 492.301758 125.660756 
L 502.86949 118.261151 
L 513.689027 111.234861 
L 524.747187 104.590448 
L 536.030498 98.336007 
L 547.525212 92.479158 
L 559.217324 87.027036 
L 571.092591 81.986285 
L 583.136543 77.363045 
L 595.334506 73.162949 
L 607.671621 69.391115 
L 620.132855 66.052137 
L 632.703027 63.150084 
L 645.366821 60.688492 
L 658.108809 58.670359 
L 670.913467 57.098145 
L 683.765195 55.973765 
L 696.648334 55.298588 
L 709.547187 55.073437 
L 709.547187 55.073437 
" style="fill:none;stroke:#b0b0b0;stroke-linecap:square;stroke-width:0.8;"/>
     </g>
     <g id="text_19">
      <!-- Expert -->
      <defs>
       <path d="M 9.8125 72.90625 
L 55.90625 72.90625 
L 55.90625 64.59375 
L 19.671875 64.59375 
L 19.671875 43.015625 
L 54.390625 43.015625 
L 54.390625 34.71875 
L 19.671875 34.71875 
L 19.671875 8.296875 
L 56.78125 8.296875 
L 56.78125 0 
L 9.8125 0 
z
" id="DejaVuSans-69"/>
       <path d="M 18.109375 8.203125 
L 18.109375 -20.796875 
L 9.078125 -20.796875 
L 9.078125 54.6875 
L 18.109375 54.6875 
L 18.109375 46.390625 
Q 20.953125 51.265625 25.265625 53.625 
Q 29.59375 56 35.59375 56 
Q 45.5625 56 51.78125 48.09375 
Q 58.015625 40.1875 58.015625 27.296875 
Q 58.015625 14.40625 51.78125 6.484375 
Q 45.5625 -1.421875 35.59375 -1.421875 
Q 29.59375 -1.421875 25.265625 0.953125 
Q 20.953125 3.328125 18.109375 8.203125 
z
M 48.6875 27.296875 
Q 48.6875 37.203125 44.609375 42.84375 
Q 40.53125 48.484375 33.40625 48.484375 
Q 26.265625 48.484375 22.1875 42.84375 
Q 18.109375 37.203125 18.109375 27.296875 
Q 18.109375 17.390625 22.1875 11.75 
Q 26.265625 6.109375 33.40625 6.109375 
Q 40.53125 6.109375 44.609375 11.75 
Q 48.6875 17.390625 48.6875 27.296875 
z
" id="DejaVuSans-112"/>
      </defs>
      <g style="fill:#808080;opacity:0.9;" transform="translate(508.476985 730.6349)scale(0.2 -0.2)">
       <use xlink:href="#DejaVuSans-69"/>
       <use x="63.183594" xlink:href="#DejaVuSans-120"/>
       <use x="122.363281" xlink:href="#DejaVuSans-112"/>
       <use x="185.839844" xlink:href="#DejaVuSans-101"/>
       <use x="247.363281" xlink:href="#DejaVuSans-114"/>
       <use x="288.476562" xlink:href="#DejaVuSans-116"/>
      </g>
     </g>
    </g>
   </g>
   <g id="line2d_20">
    <path clip-path="url(#pdb9a4758c5)" d="M 709.547188 202.913437 
L 805.765245 224.874581 
L 825.133154 332.496705 
L 781.613859 408.22469 
L 709.547188 424.673437 
L 709.547188 424.673437 
L 709.547188 424.673437 
L 709.547188 424.673437 
L 709.547188 424.673437 
L 709.547188 424.673437 
L 709.547188 424.673437 
L 709.547188 424.673437 
L 709.547188 424.673437 
L 709.547188 424.673437 
L 709.547188 202.913437 
" style="fill:none;stroke:#80b1d3;stroke-linecap:square;stroke-opacity:0.75;stroke-width:4.5;"/>
   </g>
   <g id="line2d_21">
    <path clip-path="url(#pdb9a4758c5)" d="M 709.547188 424.673437 
L 709.547188 424.673437 
L 709.547188 424.673437 
L 709.547188 424.673437 
L 997.813873 490.468427 
L 940.71912 609.026902 
L 805.765245 624.472294 
L 709.547188 424.673437 
L 709.547188 424.673437 
L 709.547188 424.673437 
L 709.547188 424.673437 
L 709.547188 424.673437 
L 709.547188 424.673437 
L 709.547188 424.673437 
L 709.547188 424.673437 
" style="fill:none;stroke:#fdb462;stroke-linecap:square;stroke-opacity:0.75;stroke-width:4.5;"/>
   </g>
   <g id="line2d_22">
    <path clip-path="url(#pdb9a4758c5)" d="M 709.547188 424.673437 
L 709.547188 424.673437 
L 709.547188 424.673437 
L 709.547188 424.673437 
L 709.547188 424.673437 
L 709.547188 424.673437 
L 709.547188 424.673437 
L 709.547188 720.353437 
L 581.256444 691.071912 
L 536.168238 562.938536 
L 493.347174 474.01968 
L 493.347174 375.327195 
L 593.961221 332.496705 
L 581.256444 158.274963 
L 709.547188 424.673437 
" style="fill:none;stroke:#bc80bd;stroke-linecap:square;stroke-opacity:0.75;stroke-width:4.5;"/>
   </g>
   <g id="text_20">
    <!-- Technical Skills -->
    <defs>
     <path id="DejaVuSans-32"/>
     <path d="M 44.28125 53.078125 
L 44.28125 44.578125 
Q 40.484375 46.53125 36.375 47.5 
Q 32.28125 48.484375 27.875 48.484375 
Q 21.1875 48.484375 17.84375 46.4375 
Q 14.5 44.390625 14.5 40.28125 
Q 14.5 37.15625 16.890625 35.375 
Q 19.28125 33.59375 26.515625 31.984375 
L 29.59375 31.296875 
Q 39.15625 29.25 43.1875 25.515625 
Q 47.21875 21.78125 47.21875 15.09375 
Q 47.21875 7.46875 41.1875 3.015625 
Q 35.15625 -1.421875 24.609375 -1.421875 
Q 20.21875 -1.421875 15.453125 -0.5625 
Q 10.6875 0.296875 5.421875 2 
L 5.421875 11.28125 
Q 10.40625 8.6875 15.234375 7.390625 
Q 20.0625 6.109375 24.8125 6.109375 
Q 31.15625 6.109375 34.5625 8.28125 
Q 37.984375 10.453125 37.984375 14.40625 
Q 37.984375 18.0625 35.515625 20.015625 
Q 33.0625 21.96875 24.703125 23.78125 
L 21.578125 24.515625 
Q 13.234375 26.265625 9.515625 29.90625 
Q 5.8125 33.546875 5.8125 39.890625 
Q 5.8125 47.609375 11.28125 51.796875 
Q 16.75 56 26.8125 56 
Q 31.78125 56 36.171875 55.265625 
Q 40.578125 54.546875 44.28125 53.078125 
z
" id="DejaVuSans-115"/>
    </defs>
    <g style="opacity:0.7;" transform="translate(556.644063 899.153437)scale(0.4 -0.4)">
     <use xlink:href="#DejaVuSans-84"/>
     <use x="60.818359" xlink:href="#DejaVuSans-101"/>
     <use x="122.341797" xlink:href="#DejaVuSans-99"/>
     <use x="177.322266" xlink:href="#DejaVuSans-104"/>
     <use x="240.701172" xlink:href="#DejaVuSans-110"/>
     <use x="304.080078" xlink:href="#DejaVuSans-105"/>
     <use x="331.863281" xlink:href="#DejaVuSans-99"/>
     <use x="386.84375" xlink:href="#DejaVuSans-97"/>
     <use x="448.123047" xlink:href="#DejaVuSans-108"/>
     <use x="475.90625" xlink:href="#DejaVuSans-32"/>
     <use x="507.693359" xlink:href="#DejaVuSans-83"/>
     <use x="571.169922" xlink:href="#DejaVuSans-107"/>
     <use x="629.080078" xlink:href="#DejaVuSans-105"/>
     <use x="656.863281" xlink:href="#DejaVuSans-108"/>
     <use x="684.646484" xlink:href="#DejaVuSans-108"/>
     <use x="712.429688" xlink:href="#DejaVuSans-115"/>
    </g>
   </g>
   <g id="legend_1">
    <g id="patch_5">
     <path d="M 14.2 902.47375 
L 389.367188 902.47375 
Q 396.367188 902.47375 396.367188 895.47375 
L 396.367188 744.853437 
Q 396.367188 737.853437 389.367188 737.853437 
L 14.2 737.853437 
Q 7.2 737.853437 7.2 744.853437 
L 7.2 895.47375 
Q 7.2 902.47375 14.2 902.47375 
z
" style="fill:#ffffff;opacity:0.8;stroke:#cccccc;stroke-linejoin:miter;"/>
    </g>
    <g id="line2d_23">
     <path d="M 21.2 766.197969 
L 91.2 766.197969 
" style="fill:none;stroke:#80b1d3;stroke-linecap:square;stroke-opacity:0.75;stroke-width:4.5;"/>
    </g>
    <g id="line2d_24"/>
    <g id="text_21">
     <!-- Programming -->
     <g style="fill:#808080;opacity:0.9;" transform="translate(119.2 778.447969)scale(0.35 -0.35)">
      <use xlink:href="#DejaVuSans-80"/>
      <use x="60.287109" xlink:href="#DejaVuSans-114"/>
      <use x="101.369141" xlink:href="#DejaVuSans-111"/>
      <use x="162.550781" xlink:href="#DejaVuSans-103"/>
      <use x="226.027344" xlink:href="#DejaVuSans-114"/>
      <use x="267.140625" xlink:href="#DejaVuSans-97"/>
      <use x="328.419922" xlink:href="#DejaVuSans-109"/>
      <use x="425.832031" xlink:href="#DejaVuSans-109"/>
      <use x="523.244141" xlink:href="#DejaVuSans-105"/>
      <use x="551.027344" xlink:href="#DejaVuSans-110"/>
      <use x="614.40625" xlink:href="#DejaVuSans-103"/>
     </g>
    </g>
    <g id="line2d_25">
     <path d="M 21.2 817.571406 
L 91.2 817.571406 
" style="fill:none;stroke:#fdb462;stroke-linecap:square;stroke-opacity:0.75;stroke-width:4.5;"/>
    </g>
    <g id="line2d_26"/>
    <g id="text_22">
     <!-- OS/Middleware -->
     <defs>
      <path d="M 4.203125 54.6875 
L 13.1875 54.6875 
L 24.421875 12.015625 
L 35.59375 54.6875 
L 46.1875 54.6875 
L 57.421875 12.015625 
L 68.609375 54.6875 
L 77.59375 54.6875 
L 63.28125 0 
L 52.6875 0 
L 40.921875 44.828125 
L 29.109375 0 
L 18.5 0 
z
" id="DejaVuSans-119"/>
     </defs>
     <g style="fill:#808080;opacity:0.9;" transform="translate(119.2 829.821406)scale(0.35 -0.35)">
      <use xlink:href="#DejaVuSans-79"/>
      <use x="78.710938" xlink:href="#DejaVuSans-83"/>
      <use x="142.1875" xlink:href="#DejaVuSans-47"/>
      <use x="175.878906" xlink:href="#DejaVuSans-77"/>
      <use x="262.158203" xlink:href="#DejaVuSans-105"/>
      <use x="289.941406" xlink:href="#DejaVuSans-100"/>
      <use x="353.417969" xlink:href="#DejaVuSans-100"/>
      <use x="416.894531" xlink:href="#DejaVuSans-108"/>
      <use x="444.677734" xlink:href="#DejaVuSans-101"/>
      <use x="506.201172" xlink:href="#DejaVuSans-119"/>
      <use x="587.988281" xlink:href="#DejaVuSans-97"/>
      <use x="649.267578" xlink:href="#DejaVuSans-114"/>
      <use x="690.349609" xlink:href="#DejaVuSans-101"/>
     </g>
    </g>
    <g id="line2d_27">
     <path d="M 21.2 868.944844 
L 91.2 868.944844 
" style="fill:none;stroke:#bc80bd;stroke-linecap:square;stroke-opacity:0.75;stroke-width:4.5;"/>
    </g>
    <g id="line2d_28"/>
    <g id="text_23">
     <!-- Tools -->
     <g style="fill:#808080;opacity:0.9;" transform="translate(119.2 881.194844)scale(0.35 -0.35)">
      <use xlink:href="#DejaVuSans-84"/>
      <use x="60.818359" xlink:href="#DejaVuSans-111"/>
      <use x="122" xlink:href="#DejaVuSans-111"/>
      <use x="183.181641" xlink:href="#DejaVuSans-108"/>
      <use x="210.964844" xlink:href="#DejaVuSans-115"/>
     </g>
    </g>
   </g>
  </g>
 </g>
 <defs>
  <clipPath id="pdb9a4758c5">
   <path d="M 1079.147187 424.673437 
C 1079.147187 376.13801 1069.586767 328.074529 1051.013063 283.233641 
C 1032.439359 238.392753 1005.213584 197.646501 970.893854 163.326771 
C 936.574124 129.007041 895.827872 101.781266 850.986984 83.207562 
C 806.146096 64.633858 758.082615 55.073437 709.547188 55.073437 
C 661.01176 55.073437 612.948279 64.633858 568.107391 83.207562 
C 523.266503 101.781266 482.520251 129.007041 448.200521 163.326771 
C 413.880791 197.646501 386.655016 238.392753 368.081312 283.233641 
C 349.507608 328.074529 339.947188 376.13801 339.947188 424.673437 
C 339.947188 473.208865 349.507608 521.272346 368.081312 566.113234 
C 386.655016 610.954122 413.880791 651.700374 448.200521 686.020104 
C 482.520251 720.339834 523.266503 747.565609 568.107391 766.139313 
C 612.948279 784.713017 661.01176 794.273437 709.547187 794.273437 
C 758.082615 794.273437 806.146096 784.713017 850.986984 766.139313 
C 895.827872 747.565609 936.574124 720.339834 970.893854 686.020104 
C 1005.213584 651.700374 1032.439359 610.954122 1051.013063 566.113234 
C 1069.586767 521.272346 1079.147187 473.208865 1079.147187 424.673437 
M 709.547188 424.673437 
C 709.547188 424.673437 709.547188 424.673437 709.547188 424.673437 
C 709.547188 424.673437 709.547188 424.673437 709.547188 424.673437 
C 709.547188 424.673437 709.547188 424.673437 709.547188 424.673437 
C 709.547188 424.673437 709.547188 424.673437 709.547188 424.673437 
C 709.547188 424.673437 709.547188 424.673437 709.547188 424.673437 
C 709.547188 424.673437 709.547188 424.673437 709.547188 424.673437 
C 709.547188 424.673437 709.547188 424.673437 709.547188 424.673437 
C 709.547188 424.673437 709.547188 424.673437 709.547188 424.673437 
C 709.547188 424.673437 709.547188 424.673437 709.547188 424.673437 
C 709.547188 424.673437 709.547188 424.673437 709.547188 424.673437 
C 709.547188 424.673437 709.547188 424.673437 709.547188 424.673437 
C 709.547188 424.673437 709.547188 424.673437 709.547188 424.673437 
C 709.547188 424.673437 709.547188 424.673437 709.547188 424.673437 
C 709.547188 424.673437 709.547188 424.673437 709.547188 424.673437 
C 709.547188 424.673437 709.547188 424.673437 709.547188 424.673437 
C 709.547188 424.673437 709.547188 424.673437 709.547188 424.673437 
M 1079.147187 424.673437 
z
"/>
  </clipPath>
 </defs>
</svg>
