<?xml version="1.0" encoding="utf-8" standalone="no"?>
<!DOCTYPE svg PUBLIC "-//W3C//DTD SVG 1.1//EN"
  "http://www.w3.org/Graphics/SVG/1.1/DTD/svg11.dtd">
<!-- Created with matplotlib (https://matplotlib.org/) -->
<svg height="914.672187pt" version="1.1" viewBox="0 0 1171.16391 914.672187" width="1171.16391pt" xmlns="http://www.w3.org/2000/svg" xmlns:xlink="http://www.w3.org/1999/xlink">
 <defs>
  <style type="text/css">
*{stroke-linecap:butt;stroke-linejoin:round;}
  </style>
 </defs>
 <g id="figure_1">
  <g id="patch_1">
   <path d="M 0 914.672187 
L 1171.16391 914.672187 
L 1171.16391 0 
L 0 0 
z
" style="fill:#ffffff;"/>
  </g>
  <g id="axes_1">
   <g id="patch_2">
    <path clip-path="url(#p1b904a49ef)" d="M 670.369062 55.073437 
L 766.690701 347.859494 
L 730.424622 438.380727 
L 697.096301 480.17312 
L 670.369062 424.673437 
L 670.369062 424.673437 
L 670.369062 424.673437 
z
" style="fill:#bebada;opacity:0.2;stroke:#bebada;stroke-linejoin:miter;"/>
   </g>
   <g id="patch_3">
    <path clip-path="url(#p1b904a49ef)" d="M 670.369062 424.673437 
L 670.369062 424.673437 
L 670.369062 424.673437 
L 670.369062 424.673437 
L 510.005633 757.671531 
L 430.146825 479.502596 
L 574.047424 347.859494 
z
" style="fill:#b3de69;opacity:0.2;stroke:#b3de69;stroke-linejoin:miter;"/>
   </g>
   <g id="matplotlib.axis_1">
    <g id="xtick_1">
     <g id="line2d_1">
      <path clip-path="url(#p1b904a49ef)" d="M 670.369062 424.673437 
L 670.369062 55.073437 
" style="fill:none;stroke:#b0b0b0;stroke-linecap:square;stroke-width:0.8;"/>
     </g>
     <g id="text_1">
      <!-- English -->
      <defs>
       <path d="M 9.8125 72.90625 
L 55.90625 72.90625 
L 55.90625 64.59375 
L 19.671875 64.59375 
L 19.671875 43.015625 
L 54.390625 43.015625 
L 54.390625 34.71875 
L 19.671875 34.71875 
L 19.671875 8.296875 
L 56.78125 8.296875 
L 56.78125 0 
L 9.8125 0 
z
" id="DejaVuSans-69"/>
       <path d="M 54.890625 33.015625 
L 54.890625 0 
L 45.90625 0 
L 45.90625 32.71875 
Q 45.90625 40.484375 42.875 44.328125 
Q 39.84375 48.1875 33.796875 48.1875 
Q 26.515625 48.1875 22.3125 43.546875 
Q 18.109375 38.921875 18.109375 30.90625 
L 18.109375 0 
L 9.078125 0 
L 9.078125 54.6875 
L 18.109375 54.6875 
L 18.109375 46.1875 
Q 21.34375 51.125 25.703125 53.5625 
Q 30.078125 56 35.796875 56 
Q 45.21875 56 50.046875 50.171875 
Q 54.890625 44.34375 54.890625 33.015625 
z
" id="DejaVuSans-110"/>
       <path d="M 45.40625 27.984375 
Q 45.40625 37.75 41.375 43.109375 
Q 37.359375 48.484375 30.078125 48.484375 
Q 22.859375 48.484375 18.828125 43.109375 
Q 14.796875 37.75 14.796875 27.984375 
Q 14.796875 18.265625 18.828125 12.890625 
Q 22.859375 7.515625 30.078125 7.515625 
Q 37.359375 7.515625 41.375 12.890625 
Q 45.40625 18.265625 45.40625 27.984375 
z
M 54.390625 6.78125 
Q 54.390625 -7.171875 48.1875 -13.984375 
Q 42 -20.796875 29.203125 -20.796875 
Q 24.46875 -20.796875 20.265625 -20.09375 
Q 16.0625 -19.390625 12.109375 -17.921875 
L 12.109375 -9.1875 
Q 16.0625 -11.328125 19.921875 -12.34375 
Q 23.78125 -13.375 27.78125 -13.375 
Q 36.625 -13.375 41.015625 -8.765625 
Q 45.40625 -4.15625 45.40625 5.171875 
L 45.40625 9.625 
Q 42.625 4.78125 38.28125 2.390625 
Q 33.9375 0 27.875 0 
Q 17.828125 0 11.671875 7.65625 
Q 5.515625 15.328125 5.515625 27.984375 
Q 5.515625 40.671875 11.671875 48.328125 
Q 17.828125 56 27.875 56 
Q 33.9375 56 38.28125 53.609375 
Q 42.625 51.21875 45.40625 46.390625 
L 45.40625 54.6875 
L 54.390625 54.6875 
z
" id="DejaVuSans-103"/>
       <path d="M 9.421875 75.984375 
L 18.40625 75.984375 
L 18.40625 0 
L 9.421875 0 
z
" id="DejaVuSans-108"/>
       <path d="M 9.421875 54.6875 
L 18.40625 54.6875 
L 18.40625 0 
L 9.421875 0 
z
M 9.421875 75.984375 
L 18.40625 75.984375 
L 18.40625 64.59375 
L 9.421875 64.59375 
z
" id="DejaVuSans-105"/>
       <path d="M 44.28125 53.078125 
L 44.28125 44.578125 
Q 40.484375 46.53125 36.375 47.5 
Q 32.28125 48.484375 27.875 48.484375 
Q 21.1875 48.484375 17.84375 46.4375 
Q 14.5 44.390625 14.5 40.28125 
Q 14.5 37.15625 16.890625 35.375 
Q 19.28125 33.59375 26.515625 31.984375 
L 29.59375 31.296875 
Q 39.15625 29.25 43.1875 25.515625 
Q 47.21875 21.78125 47.21875 15.09375 
Q 47.21875 7.46875 41.1875 3.015625 
Q 35.15625 -1.421875 24.609375 -1.421875 
Q 20.21875 -1.421875 15.453125 -0.5625 
Q 10.6875 0.296875 5.421875 2 
L 5.421875 11.28125 
Q 10.40625 8.6875 15.234375 7.390625 
Q 20.0625 6.109375 24.8125 6.109375 
Q 31.15625 6.109375 34.5625 8.28125 
Q 37.984375 10.453125 37.984375 14.40625 
Q 37.984375 18.0625 35.515625 20.015625 
Q 33.0625 21.96875 24.703125 23.78125 
L 21.578125 24.515625 
Q 13.234375 26.265625 9.515625 29.90625 
Q 5.8125 33.546875 5.8125 39.890625 
Q 5.8125 47.609375 11.28125 51.796875 
Q 16.75 56 26.8125 56 
Q 31.78125 56 36.171875 55.265625 
Q 40.578125 54.546875 44.28125 53.078125 
z
" id="DejaVuSans-115"/>
       <path d="M 54.890625 33.015625 
L 54.890625 0 
L 45.90625 0 
L 45.90625 32.71875 
Q 45.90625 40.484375 42.875 44.328125 
Q 39.84375 48.1875 33.796875 48.1875 
Q 26.515625 48.1875 22.3125 43.546875 
Q 18.109375 38.921875 18.109375 30.90625 
L 18.109375 0 
L 9.078125 0 
L 9.078125 75.984375 
L 18.109375 75.984375 
L 18.109375 46.1875 
Q 21.34375 51.125 25.703125 53.5625 
Q 30.078125 56 35.796875 56 
Q 45.21875 56 50.046875 50.171875 
Q 54.890625 44.34375 54.890625 33.015625 
z
" id="DejaVuSans-104"/>
      </defs>
      <g style="fill:#808080;" transform="translate(607.180391 33.794531)scale(0.35 -0.35)">
       <use xlink:href="#DejaVuSans-69"/>
       <use x="63.183594" xlink:href="#DejaVuSans-110"/>
       <use x="126.5625" xlink:href="#DejaVuSans-103"/>
       <use x="190.039062" xlink:href="#DejaVuSans-108"/>
       <use x="217.822266" xlink:href="#DejaVuSans-105"/>
       <use x="245.605469" xlink:href="#DejaVuSans-115"/>
       <use x="297.705078" xlink:href="#DejaVuSans-104"/>
      </g>
     </g>
    </g>
    <g id="xtick_2">
     <g id="line2d_2">
      <path clip-path="url(#p1b904a49ef)" d="M 670.369062 424.673437 
L 959.333978 194.231607 
" style="fill:none;stroke:#b0b0b0;stroke-linecap:square;stroke-width:0.8;"/>
     </g>
     <g id="text_2">
      <!-- Italian -->
      <defs>
       <path d="M 9.8125 72.90625 
L 19.671875 72.90625 
L 19.671875 0 
L 9.8125 0 
z
" id="DejaVuSans-73"/>
       <path d="M 18.3125 70.21875 
L 18.3125 54.6875 
L 36.8125 54.6875 
L 36.8125 47.703125 
L 18.3125 47.703125 
L 18.3125 18.015625 
Q 18.3125 11.328125 20.140625 9.421875 
Q 21.96875 7.515625 27.59375 7.515625 
L 36.8125 7.515625 
L 36.8125 0 
L 27.59375 0 
Q 17.1875 0 13.234375 3.875 
Q 9.28125 7.765625 9.28125 18.015625 
L 9.28125 47.703125 
L 2.6875 47.703125 
L 2.6875 54.6875 
L 9.28125 54.6875 
L 9.28125 70.21875 
z
" id="DejaVuSans-116"/>
       <path d="M 34.28125 27.484375 
Q 23.390625 27.484375 19.1875 25 
Q 14.984375 22.515625 14.984375 16.5 
Q 14.984375 11.71875 18.140625 8.90625 
Q 21.296875 6.109375 26.703125 6.109375 
Q 34.1875 6.109375 38.703125 11.40625 
Q 43.21875 16.703125 43.21875 25.484375 
L 43.21875 27.484375 
z
M 52.203125 31.203125 
L 52.203125 0 
L 43.21875 0 
L 43.21875 8.296875 
Q 40.140625 3.328125 35.546875 0.953125 
Q 30.953125 -1.421875 24.3125 -1.421875 
Q 15.921875 -1.421875 10.953125 3.296875 
Q 6 8.015625 6 15.921875 
Q 6 25.140625 12.171875 29.828125 
Q 18.359375 34.515625 30.609375 34.515625 
L 43.21875 34.515625 
L 43.21875 35.40625 
Q 43.21875 41.609375 39.140625 45 
Q 35.0625 48.390625 27.6875 48.390625 
Q 23 48.390625 18.546875 47.265625 
Q 14.109375 46.140625 10.015625 43.890625 
L 10.015625 52.203125 
Q 14.9375 54.109375 19.578125 55.046875 
Q 24.21875 56 28.609375 56 
Q 40.484375 56 46.34375 49.84375 
Q 52.203125 43.703125 52.203125 31.203125 
z
" id="DejaVuSans-97"/>
      </defs>
      <g style="fill:#808080;" transform="translate(970.279619 178.223843)scale(0.35 -0.35)">
       <use xlink:href="#DejaVuSans-73"/>
       <use x="29.492188" xlink:href="#DejaVuSans-116"/>
       <use x="68.701172" xlink:href="#DejaVuSans-97"/>
       <use x="129.980469" xlink:href="#DejaVuSans-108"/>
       <use x="157.763672" xlink:href="#DejaVuSans-105"/>
       <use x="185.546875" xlink:href="#DejaVuSans-97"/>
       <use x="246.826172" xlink:href="#DejaVuSans-110"/>
      </g>
     </g>
    </g>
    <g id="xtick_3">
     <g id="line2d_3">
      <path clip-path="url(#p1b904a49ef)" d="M 670.369062 424.673437 
L 1030.702419 506.917175 
" style="fill:none;stroke:#b0b0b0;stroke-linecap:square;stroke-width:0.8;"/>
     </g>
     <g id="text_3">
      <!-- French -->
      <defs>
       <path d="M 9.8125 72.90625 
L 51.703125 72.90625 
L 51.703125 64.59375 
L 19.671875 64.59375 
L 19.671875 43.109375 
L 48.578125 43.109375 
L 48.578125 34.8125 
L 19.671875 34.8125 
L 19.671875 0 
L 9.8125 0 
z
" id="DejaVuSans-70"/>
       <path d="M 41.109375 46.296875 
Q 39.59375 47.171875 37.8125 47.578125 
Q 36.03125 48 33.890625 48 
Q 26.265625 48 22.1875 43.046875 
Q 18.109375 38.09375 18.109375 28.8125 
L 18.109375 0 
L 9.078125 0 
L 9.078125 54.6875 
L 18.109375 54.6875 
L 18.109375 46.1875 
Q 20.953125 51.171875 25.484375 53.578125 
Q 30.03125 56 36.53125 56 
Q 37.453125 56 38.578125 55.875 
Q 39.703125 55.765625 41.0625 55.515625 
z
" id="DejaVuSans-114"/>
       <path d="M 56.203125 29.59375 
L 56.203125 25.203125 
L 14.890625 25.203125 
Q 15.484375 15.921875 20.484375 11.0625 
Q 25.484375 6.203125 34.421875 6.203125 
Q 39.59375 6.203125 44.453125 7.46875 
Q 49.3125 8.734375 54.109375 11.28125 
L 54.109375 2.78125 
Q 49.265625 0.734375 44.1875 -0.34375 
Q 39.109375 -1.421875 33.890625 -1.421875 
Q 20.796875 -1.421875 13.15625 6.1875 
Q 5.515625 13.8125 5.515625 26.8125 
Q 5.515625 40.234375 12.765625 48.109375 
Q 20.015625 56 32.328125 56 
Q 43.359375 56 49.78125 48.890625 
Q 56.203125 41.796875 56.203125 29.59375 
z
M 47.21875 32.234375 
Q 47.125 39.59375 43.09375 43.984375 
Q 39.0625 48.390625 32.421875 48.390625 
Q 24.90625 48.390625 20.390625 44.140625 
Q 15.875 39.890625 15.1875 32.171875 
z
" id="DejaVuSans-101"/>
       <path d="M 48.78125 52.59375 
L 48.78125 44.1875 
Q 44.96875 46.296875 41.140625 47.34375 
Q 37.3125 48.390625 33.40625 48.390625 
Q 24.65625 48.390625 19.8125 42.84375 
Q 14.984375 37.3125 14.984375 27.296875 
Q 14.984375 17.28125 19.8125 11.734375 
Q 24.65625 6.203125 33.40625 6.203125 
Q 37.3125 6.203125 41.140625 7.25 
Q 44.96875 8.296875 48.78125 10.40625 
L 48.78125 2.09375 
Q 45.015625 0.34375 40.984375 -0.53125 
Q 36.96875 -1.421875 32.421875 -1.421875 
Q 20.0625 -1.421875 12.78125 6.34375 
Q 5.515625 14.109375 5.515625 27.296875 
Q 5.515625 40.671875 12.859375 48.328125 
Q 20.21875 56 33.015625 56 
Q 37.15625 56 41.109375 55.140625 
Q 45.0625 54.296875 48.78125 52.59375 
z
" id="DejaVuSans-99"/>
      </defs>
      <g style="fill:#808080;" transform="translate(1044.35141 519.69028)scale(0.35 -0.35)">
       <use xlink:href="#DejaVuSans-70"/>
       <use x="57.410156" xlink:href="#DejaVuSans-114"/>
       <use x="98.492188" xlink:href="#DejaVuSans-101"/>
       <use x="160.015625" xlink:href="#DejaVuSans-110"/>
       <use x="223.394531" xlink:href="#DejaVuSans-99"/>
       <use x="278.375" xlink:href="#DejaVuSans-104"/>
      </g>
     </g>
    </g>
    <g id="xtick_4">
     <g id="line2d_4">
      <path clip-path="url(#p1b904a49ef)" d="M 670.369062 424.673437 
L 830.732492 757.671531 
" style="fill:none;stroke:#b0b0b0;stroke-linecap:square;stroke-width:0.8;"/>
     </g>
     <g id="text_4">
      <!-- Spanish -->
      <defs>
       <path d="M 53.515625 70.515625 
L 53.515625 60.890625 
Q 47.90625 63.578125 42.921875 64.890625 
Q 37.9375 66.21875 33.296875 66.21875 
Q 25.25 66.21875 20.875 63.09375 
Q 16.5 59.96875 16.5 54.203125 
Q 16.5 49.359375 19.40625 46.890625 
Q 22.3125 44.4375 30.421875 42.921875 
L 36.375 41.703125 
Q 47.40625 39.59375 52.65625 34.296875 
Q 57.90625 29 57.90625 20.125 
Q 57.90625 9.515625 50.796875 4.046875 
Q 43.703125 -1.421875 29.984375 -1.421875 
Q 24.8125 -1.421875 18.96875 -0.25 
Q 13.140625 0.921875 6.890625 3.21875 
L 6.890625 13.375 
Q 12.890625 10.015625 18.65625 8.296875 
Q 24.421875 6.59375 29.984375 6.59375 
Q 38.421875 6.59375 43.015625 9.90625 
Q 47.609375 13.234375 47.609375 19.390625 
Q 47.609375 24.75 44.3125 27.78125 
Q 41.015625 30.8125 33.5 32.328125 
L 27.484375 33.5 
Q 16.453125 35.6875 11.515625 40.375 
Q 6.59375 45.0625 6.59375 53.421875 
Q 6.59375 63.09375 13.40625 68.65625 
Q 20.21875 74.21875 32.171875 74.21875 
Q 37.3125 74.21875 42.625 73.28125 
Q 47.953125 72.359375 53.515625 70.515625 
z
" id="DejaVuSans-83"/>
       <path d="M 18.109375 8.203125 
L 18.109375 -20.796875 
L 9.078125 -20.796875 
L 9.078125 54.6875 
L 18.109375 54.6875 
L 18.109375 46.390625 
Q 20.953125 51.265625 25.265625 53.625 
Q 29.59375 56 35.59375 56 
Q 45.5625 56 51.78125 48.09375 
Q 58.015625 40.1875 58.015625 27.296875 
Q 58.015625 14.40625 51.78125 6.484375 
Q 45.5625 -1.421875 35.59375 -1.421875 
Q 29.59375 -1.421875 25.265625 0.953125 
Q 20.953125 3.328125 18.109375 8.203125 
z
M 48.6875 27.296875 
Q 48.6875 37.203125 44.609375 42.84375 
Q 40.53125 48.484375 33.40625 48.484375 
Q 26.265625 48.484375 22.1875 42.84375 
Q 18.109375 37.203125 18.109375 27.296875 
Q 18.109375 17.390625 22.1875 11.75 
Q 26.265625 6.109375 33.40625 6.109375 
Q 40.53125 6.109375 44.609375 11.75 
Q 48.6875 17.390625 48.6875 27.296875 
z
" id="DejaVuSans-112"/>
      </defs>
      <g style="fill:#808080;" transform="translate(836.806865 796.879626)scale(0.35 -0.35)">
       <use xlink:href="#DejaVuSans-83"/>
       <use x="63.476562" xlink:href="#DejaVuSans-112"/>
       <use x="126.953125" xlink:href="#DejaVuSans-97"/>
       <use x="188.232422" xlink:href="#DejaVuSans-110"/>
       <use x="251.611328" xlink:href="#DejaVuSans-105"/>
       <use x="279.394531" xlink:href="#DejaVuSans-115"/>
       <use x="331.494141" xlink:href="#DejaVuSans-104"/>
      </g>
     </g>
    </g>
    <g id="xtick_5">
     <g id="line2d_5">
      <path clip-path="url(#p1b904a49ef)" d="M 670.369062 424.673437 
L 510.005633 757.671531 
" style="fill:none;stroke:#b0b0b0;stroke-linecap:square;stroke-width:0.8;"/>
     </g>
     <g id="text_5">
      <!-- Telugu -->
      <defs>
       <path d="M -0.296875 72.90625 
L 61.375 72.90625 
L 61.375 64.59375 
L 35.5 64.59375 
L 35.5 0 
L 25.59375 0 
L 25.59375 64.59375 
L -0.296875 64.59375 
z
" id="DejaVuSans-84"/>
       <path d="M 8.5 21.578125 
L 8.5 54.6875 
L 17.484375 54.6875 
L 17.484375 21.921875 
Q 17.484375 14.15625 20.5 10.265625 
Q 23.53125 6.390625 29.59375 6.390625 
Q 36.859375 6.390625 41.078125 11.03125 
Q 45.3125 15.671875 45.3125 23.6875 
L 45.3125 54.6875 
L 54.296875 54.6875 
L 54.296875 0 
L 45.3125 0 
L 45.3125 8.40625 
Q 42.046875 3.421875 37.71875 1 
Q 33.40625 -1.421875 27.6875 -1.421875 
Q 18.265625 -1.421875 13.375 4.4375 
Q 8.5 10.296875 8.5 21.578125 
z
M 31.109375 56 
z
" id="DejaVuSans-117"/>
      </defs>
      <g style="fill:#808080;" transform="translate(384.805479 796.879626)scale(0.35 -0.35)">
       <use xlink:href="#DejaVuSans-84"/>
       <use x="60.818359" xlink:href="#DejaVuSans-101"/>
       <use x="122.341797" xlink:href="#DejaVuSans-108"/>
       <use x="150.125" xlink:href="#DejaVuSans-117"/>
       <use x="213.503906" xlink:href="#DejaVuSans-103"/>
       <use x="276.980469" xlink:href="#DejaVuSans-117"/>
      </g>
     </g>
    </g>
    <g id="xtick_6">
     <g id="line2d_6">
      <path clip-path="url(#p1b904a49ef)" d="M 670.369062 424.673437 
L 310.035706 506.917175 
" style="fill:none;stroke:#b0b0b0;stroke-linecap:square;stroke-width:0.8;"/>
     </g>
     <g id="text_6">
      <!-- Hindi -->
      <defs>
       <path d="M 9.8125 72.90625 
L 19.671875 72.90625 
L 19.671875 43.015625 
L 55.515625 43.015625 
L 55.515625 72.90625 
L 65.375 72.90625 
L 65.375 0 
L 55.515625 0 
L 55.515625 34.71875 
L 19.671875 34.71875 
L 19.671875 0 
L 9.8125 0 
z
" id="DejaVuSans-72"/>
       <path d="M 45.40625 46.390625 
L 45.40625 75.984375 
L 54.390625 75.984375 
L 54.390625 0 
L 45.40625 0 
L 45.40625 8.203125 
Q 42.578125 3.328125 38.25 0.953125 
Q 33.9375 -1.421875 27.875 -1.421875 
Q 17.96875 -1.421875 11.734375 6.484375 
Q 5.515625 14.40625 5.515625 27.296875 
Q 5.515625 40.1875 11.734375 48.09375 
Q 17.96875 56 27.875 56 
Q 33.9375 56 38.25 53.625 
Q 42.578125 51.265625 45.40625 46.390625 
z
M 14.796875 27.296875 
Q 14.796875 17.390625 18.875 11.75 
Q 22.953125 6.109375 30.078125 6.109375 
Q 37.203125 6.109375 41.296875 11.75 
Q 45.40625 17.390625 45.40625 27.296875 
Q 45.40625 37.203125 41.296875 42.84375 
Q 37.203125 48.484375 30.078125 48.484375 
Q 22.953125 48.484375 18.875 42.84375 
Q 14.796875 37.203125 14.796875 27.296875 
z
" id="DejaVuSans-100"/>
      </defs>
      <g style="fill:#808080;" transform="translate(206.217965 519.69028)scale(0.35 -0.35)">
       <use xlink:href="#DejaVuSans-72"/>
       <use x="75.195312" xlink:href="#DejaVuSans-105"/>
       <use x="102.978516" xlink:href="#DejaVuSans-110"/>
       <use x="166.357422" xlink:href="#DejaVuSans-100"/>
       <use x="229.833984" xlink:href="#DejaVuSans-105"/>
      </g>
     </g>
    </g>
    <g id="xtick_7">
     <g id="line2d_7">
      <path clip-path="url(#p1b904a49ef)" d="M 670.369062 424.673437 
L 381.404147 194.231607 
" style="fill:none;stroke:#b0b0b0;stroke-linecap:square;stroke-width:0.8;"/>
     </g>
     <g id="text_7">
      <!-- Tamil -->
      <defs>
       <path d="M 52 44.1875 
Q 55.375 50.25 60.0625 53.125 
Q 64.75 56 71.09375 56 
Q 79.640625 56 84.28125 50.015625 
Q 88.921875 44.046875 88.921875 33.015625 
L 88.921875 0 
L 79.890625 0 
L 79.890625 32.71875 
Q 79.890625 40.578125 77.09375 44.375 
Q 74.3125 48.1875 68.609375 48.1875 
Q 61.625 48.1875 57.5625 43.546875 
Q 53.515625 38.921875 53.515625 30.90625 
L 53.515625 0 
L 44.484375 0 
L 44.484375 32.71875 
Q 44.484375 40.625 41.703125 44.40625 
Q 38.921875 48.1875 33.109375 48.1875 
Q 26.21875 48.1875 22.15625 43.53125 
Q 18.109375 38.875 18.109375 30.90625 
L 18.109375 0 
L 9.078125 0 
L 9.078125 54.6875 
L 18.109375 54.6875 
L 18.109375 46.1875 
Q 21.1875 51.21875 25.484375 53.609375 
Q 29.78125 56 35.6875 56 
Q 41.65625 56 45.828125 52.96875 
Q 50 49.953125 52 44.1875 
z
" id="DejaVuSans-109"/>
      </defs>
      <g style="fill:#808080;" transform="translate(274.181162 178.223843)scale(0.35 -0.35)">
       <use xlink:href="#DejaVuSans-84"/>
       <use x="60.833984" xlink:href="#DejaVuSans-97"/>
       <use x="122.113281" xlink:href="#DejaVuSans-109"/>
       <use x="219.525391" xlink:href="#DejaVuSans-105"/>
       <use x="247.308594" xlink:href="#DejaVuSans-108"/>
      </g>
     </g>
    </g>
   </g>
   <g id="matplotlib.axis_2">
    <g id="ytick_1">
     <g id="line2d_8">
      <path clip-path="url(#p1b904a49ef)" d="M 670.369062 363.073437 
L 674.666061 363.223492 
L 678.942126 363.672924 
L 683.176423 364.419545 
L 687.348324 365.459717 
L 691.437503 366.788372 
L 695.42404 368.399037 
L 699.288511 370.283866 
L 703.012089 372.433675 
L 706.576634 374.837991 
L 709.964779 377.4851 
L 713.160018 380.362106 
L 716.146784 383.454992 
L 718.910525 386.748691 
L 721.437777 390.227155 
L 723.716227 393.873437 
L 725.734776 397.669775 
L 727.483588 401.597671 
L 728.954144 405.637991 
L 730.139279 409.771049 
L 731.03322 413.97671 
L 731.631611 418.234484 
L 731.931537 422.523629 
L 731.931537 426.823246 
L 731.631611 431.112391 
L 731.03322 435.370165 
L 730.139279 439.575826 
L 728.954144 443.708884 
L 727.483588 447.749204 
L 725.734776 451.6771 
L 723.716227 455.473437 
L 721.437777 459.11972 
L 718.910525 462.598184 
L 716.146784 465.891883 
L 713.160018 468.984769 
L 709.964779 471.861775 
L 706.576634 474.508884 
L 703.012089 476.9132 
L 699.288511 479.063009 
L 695.42404 480.947838 
L 691.437503 482.558503 
L 687.348324 483.887158 
L 683.176423 484.92733 
L 678.942126 485.673951 
L 674.666061 486.123383 
L 670.369062 486.273437 
L 666.072064 486.123383 
L 661.795999 485.673951 
L 657.561702 484.92733 
L 653.389801 483.887158 
L 649.300622 482.558503 
L 645.314085 480.947838 
L 641.449614 479.063009 
L 637.726036 476.9132 
L 634.161491 474.508884 
L 630.773346 471.861775 
L 627.578107 468.984769 
L 624.591341 465.891883 
L 621.8276 462.598184 
L 619.300348 459.11972 
L 617.021898 455.473437 
L 615.003349 451.6771 
L 613.254537 447.749204 
L 611.783981 443.708884 
L 610.598846 439.575826 
L 609.704905 435.370165 
L 609.106514 431.112391 
L 608.806588 426.823246 
L 608.806588 422.523629 
L 609.106514 418.234484 
L 609.704905 413.97671 
L 610.598846 409.771049 
L 611.783981 405.637991 
L 613.254537 401.597671 
L 615.003349 397.669775 
L 617.021898 393.873437 
L 619.300348 390.227155 
L 621.8276 386.748691 
L 624.591341 383.454992 
L 627.578107 380.362106 
L 630.773346 377.4851 
L 634.161491 374.837991 
L 637.726036 372.433675 
L 641.449614 370.283866 
L 645.314085 368.399037 
L 649.300622 366.788372 
L 653.389801 365.459717 
L 657.561702 364.419545 
L 661.795999 363.672924 
L 666.072064 363.223492 
L 670.369062 363.073437 
L 670.369062 363.073437 
" style="fill:none;stroke:#b0b0b0;stroke-linecap:square;stroke-width:0.8;"/>
     </g>
     <g id="text_8">
      <!-- A1 -->
      <defs>
       <path d="M 34.1875 63.1875 
L 20.796875 26.90625 
L 47.609375 26.90625 
z
M 28.609375 72.90625 
L 39.796875 72.90625 
L 67.578125 0 
L 57.328125 0 
L 50.6875 18.703125 
L 17.828125 18.703125 
L 11.1875 0 
L 0.78125 0 
z
" id="DejaVuSans-65"/>
       <path d="M 12.40625 8.296875 
L 28.515625 8.296875 
L 28.515625 63.921875 
L 10.984375 60.40625 
L 10.984375 69.390625 
L 28.421875 72.90625 
L 38.28125 72.90625 
L 38.28125 8.296875 
L 54.390625 8.296875 
L 54.390625 0 
L 12.40625 0 
z
" id="DejaVuSans-49"/>
      </defs>
      <g style="fill:#808080;opacity:0.9;" transform="translate(636.857362 472.200869)scale(0.2 -0.2)">
       <use xlink:href="#DejaVuSans-65"/>
       <use x="68.408203" xlink:href="#DejaVuSans-49"/>
      </g>
     </g>
    </g>
    <g id="ytick_2">
     <g id="line2d_9">
      <path clip-path="url(#p1b904a49ef)" d="M 670.369062 301.473437 
L 674.66868 301.548488 
L 678.96306 301.773547 
L 683.246969 302.14834 
L 687.515189 302.672411 
L 691.762518 303.345122 
L 695.983783 304.165653 
L 700.17384 305.133004 
L 704.327585 306.245997 
L 708.439956 307.503275 
L 712.505944 308.903307 
L 716.520595 310.444387 
L 720.479017 312.124637 
L 724.376388 313.942011 
L 728.207959 315.894294 
L 731.969062 317.979108 
L 735.655116 320.193912 
L 739.261628 322.536009 
L 742.784206 325.002544 
L 746.218556 327.590513 
L 749.560496 330.296762 
L 752.805953 333.117995 
L 755.950974 336.050774 
L 758.991726 339.091526 
L 761.924505 342.236547 
L 764.745738 345.482004 
L 767.451987 348.823944 
L 770.039956 352.258294 
L 772.506491 355.780872 
L 774.848588 359.387384 
L 777.063392 363.073437 
L 779.148206 366.834541 
L 781.100489 370.666112 
L 782.917863 374.563483 
L 784.598113 378.521905 
L 786.139193 382.536556 
L 787.539225 386.602544 
L 788.796503 390.714915 
L 789.909496 394.86866 
L 790.876847 399.058717 
L 791.697378 403.279982 
L 792.370089 407.527311 
L 792.89416 411.795531 
L 793.268953 416.07944 
L 793.494012 420.37382 
L 793.569062 424.673437 
L 793.494012 428.973055 
L 793.268953 433.267435 
L 792.89416 437.551344 
L 792.370089 441.819564 
L 791.697378 446.066893 
L 790.876847 450.288158 
L 789.909496 454.478215 
L 788.796503 458.63196 
L 787.539225 462.744331 
L 786.139193 466.810319 
L 784.598113 470.82497 
L 782.917863 474.783392 
L 781.100489 478.680763 
L 779.148206 482.512334 
L 777.063392 486.273437 
L 774.848588 489.959491 
L 772.506491 493.566003 
L 770.039956 497.088581 
L 767.451987 500.522931 
L 764.745738 503.864871 
L 761.924505 507.110328 
L 758.991726 510.255349 
L 755.950974 513.296101 
L 752.805953 516.22888 
L 749.560496 519.050113 
L 746.218556 521.756362 
L 742.784206 524.344331 
L 739.261628 526.810866 
L 735.655116 529.152963 
L 731.969062 531.367767 
L 728.207959 533.452581 
L 724.376388 535.404864 
L 720.479017 537.222238 
L 716.520595 538.902488 
L 712.505944 540.443568 
L 708.439956 541.8436 
L 704.327585 543.100878 
L 700.17384 544.213871 
L 695.983783 545.181222 
L 691.762518 546.001753 
L 687.515189 546.674464 
L 683.246969 547.198535 
L 678.96306 547.573328 
L 674.66868 547.798387 
L 670.369062 547.873437 
L 666.069445 547.798387 
L 661.775065 547.573328 
L 657.491156 547.198535 
L 653.222936 546.674464 
L 648.975607 546.001753 
L 644.754342 545.181222 
L 640.564285 544.213871 
L 636.41054 543.100878 
L 632.298169 541.8436 
L 628.232181 540.443568 
L 624.21753 538.902488 
L 620.259108 537.222238 
L 616.361737 535.404864 
L 612.530166 533.452581 
L 608.769062 531.367767 
L 605.083009 529.152963 
L 601.476497 526.810866 
L 597.953919 524.344331 
L 594.519569 521.756362 
L 591.177629 519.050113 
L 587.932172 516.22888 
L 584.787151 513.296101 
L 581.746399 510.255349 
L 578.81362 507.110328 
L 575.992387 503.864871 
L 573.286138 500.522931 
L 570.698169 497.088581 
L 568.231634 493.566003 
L 565.889537 489.959491 
L 563.674733 486.273437 
L 561.589919 482.512334 
L 559.637636 478.680763 
L 557.820262 474.783392 
L 556.140012 470.82497 
L 554.598932 466.810319 
L 553.1989 462.744331 
L 551.941622 458.63196 
L 550.828629 454.478215 
L 549.861278 450.288158 
L 549.040747 446.066893 
L 548.368036 441.819564 
L 547.843965 437.551344 
L 547.469172 433.267435 
L 547.244113 428.973055 
L 547.169062 424.673437 
L 547.244113 420.37382 
L 547.469172 416.07944 
L 547.843965 411.795531 
L 548.368036 407.527311 
L 549.040747 403.279982 
L 549.861278 399.058717 
L 550.828629 394.86866 
L 551.941622 390.714915 
L 553.1989 386.602544 
L 554.598932 382.536556 
L 556.140012 378.521905 
L 557.820262 374.563483 
L 559.637636 370.666112 
L 561.589919 366.834541 
L 563.674733 363.073437 
L 565.889537 359.387384 
L 568.231634 355.780872 
L 570.698169 352.258294 
L 573.286138 348.823944 
L 575.992387 345.482004 
L 578.81362 342.236547 
L 581.746399 339.091526 
L 584.787151 336.050774 
L 587.932172 333.117995 
L 591.177629 330.296762 
L 594.519569 327.590513 
L 597.953919 325.002544 
L 601.476497 322.536009 
L 605.083009 320.193912 
L 608.769062 317.979108 
L 612.530166 315.894294 
L 616.361737 313.942011 
L 620.259108 312.124637 
L 624.21753 310.444387 
L 628.232181 308.903307 
L 632.298169 307.503275 
L 636.41054 306.245997 
L 640.564285 305.133004 
L 644.754342 304.165653 
L 648.975607 303.345122 
L 653.222936 302.672411 
L 657.491156 302.14834 
L 661.775065 301.773547 
L 666.069445 301.548488 
L 670.369062 301.473437 
L 670.369062 301.473437 
" style="fill:none;stroke:#b0b0b0;stroke-linecap:square;stroke-width:0.8;"/>
     </g>
     <g id="text_9">
      <!-- A2 -->
      <defs>
       <path d="M 19.1875 8.296875 
L 53.609375 8.296875 
L 53.609375 0 
L 7.328125 0 
L 7.328125 8.296875 
Q 12.9375 14.109375 22.625 23.890625 
Q 32.328125 33.6875 34.8125 36.53125 
Q 39.546875 41.84375 41.421875 45.53125 
Q 43.3125 49.21875 43.3125 52.78125 
Q 43.3125 58.59375 39.234375 62.25 
Q 35.15625 65.921875 28.609375 65.921875 
Q 23.96875 65.921875 18.8125 64.3125 
Q 13.671875 62.703125 7.8125 59.421875 
L 7.8125 69.390625 
Q 13.765625 71.78125 18.9375 73 
Q 24.125 74.21875 28.421875 74.21875 
Q 39.75 74.21875 46.484375 68.546875 
Q 53.21875 62.890625 53.21875 53.421875 
Q 53.21875 48.921875 51.53125 44.890625 
Q 49.859375 40.875 45.40625 35.40625 
Q 44.1875 33.984375 37.640625 27.21875 
Q 31.109375 20.453125 19.1875 8.296875 
z
" id="DejaVuSans-50"/>
      </defs>
      <g style="fill:#808080;opacity:0.9;" transform="translate(603.345662 523.887675)scale(0.2 -0.2)">
       <use xlink:href="#DejaVuSans-65"/>
       <use x="68.408203" xlink:href="#DejaVuSans-50"/>
      </g>
     </g>
    </g>
    <g id="ytick_3">
     <g id="line2d_10">
      <path clip-path="url(#p1b904a49ef)" d="M 670.369062 239.873437 
L 676.818489 239.986013 
L 683.260059 240.323601 
L 689.685923 240.885791 
L 696.088252 241.671898 
L 702.459246 242.680965 
L 708.791143 243.911761 
L 715.076229 245.362787 
L 721.306846 247.032276 
L 727.475403 248.918193 
L 733.574385 251.018241 
L 739.596361 253.329861 
L 745.533994 255.850237 
L 751.38005 258.576298 
L 757.127407 261.504722 
L 762.769062 264.631943 
L 768.298143 267.954149 
L 773.707911 271.467294 
L 778.991777 275.167097 
L 784.143303 279.04905 
L 789.156213 283.108424 
L 794.024399 287.340274 
L 798.741929 291.739442 
L 803.303058 296.300571 
L 807.702226 301.018101 
L 811.934076 305.886287 
L 815.99345 310.899197 
L 819.875403 316.050723 
L 823.575206 321.334589 
L 827.088351 326.744357 
L 830.410557 332.273437 
L 833.537778 337.915093 
L 836.466202 343.66245 
L 839.192263 349.508506 
L 841.712639 355.446139 
L 844.024259 361.468115 
L 846.124307 367.567097 
L 848.010224 373.735654 
L 849.679713 379.966271 
L 851.130739 386.251357 
L 852.361535 392.583254 
L 853.370602 398.954248 
L 854.156709 405.356577 
L 854.718899 411.782441 
L 855.056487 418.224011 
L 855.169062 424.673437 
L 855.056487 431.122864 
L 854.718899 437.564434 
L 854.156709 443.990298 
L 853.370602 450.392627 
L 852.361535 456.763621 
L 851.130739 463.095518 
L 849.679713 469.380604 
L 848.010224 475.611221 
L 846.124307 481.779778 
L 844.024259 487.87876 
L 841.712639 493.900736 
L 839.192263 499.838369 
L 836.466202 505.684425 
L 833.537778 511.431782 
L 830.410557 517.073437 
L 827.088351 522.602518 
L 823.575206 528.012286 
L 819.875403 533.296152 
L 815.99345 538.447678 
L 811.934076 543.460588 
L 807.702226 548.328774 
L 803.303058 553.046304 
L 798.741929 557.607433 
L 794.024399 562.006601 
L 789.156213 566.238451 
L 784.143303 570.297825 
L 778.991777 574.179778 
L 773.707911 577.879581 
L 768.298143 581.392726 
L 762.769062 584.714932 
L 757.127407 587.842153 
L 751.38005 590.770577 
L 745.533994 593.496638 
L 739.596361 596.017014 
L 733.574385 598.328634 
L 727.475403 600.428682 
L 721.306846 602.314599 
L 715.076229 603.984088 
L 708.791143 605.435114 
L 702.459246 606.66591 
L 696.088252 607.674977 
L 689.685923 608.461084 
L 683.260059 609.023274 
L 676.818489 609.360862 
L 670.369062 609.473437 
L 663.919636 609.360862 
L 657.478066 609.023274 
L 651.052202 608.461084 
L 644.649873 607.674977 
L 638.278879 606.66591 
L 631.946982 605.435114 
L 625.661896 603.984088 
L 619.431279 602.314599 
L 613.262722 600.428682 
L 607.16374 598.328634 
L 601.141764 596.017014 
L 595.204131 593.496638 
L 589.358075 590.770577 
L 583.610718 587.842153 
L 577.969062 584.714932 
L 572.439982 581.392726 
L 567.030214 577.879581 
L 561.746348 574.179778 
L 556.594822 570.297825 
L 551.581912 566.238451 
L 546.713726 562.006601 
L 541.996196 557.607433 
L 537.435067 553.046304 
L 533.035899 548.328774 
L 528.804049 543.460588 
L 524.744675 538.447678 
L 520.862722 533.296152 
L 517.162919 528.012286 
L 513.649774 522.602518 
L 510.327568 517.073437 
L 507.200347 511.431782 
L 504.271923 505.684425 
L 501.545862 499.838369 
L 499.025486 493.900736 
L 496.713866 487.87876 
L 494.613818 481.779778 
L 492.727901 475.611221 
L 491.058412 469.380604 
L 489.607386 463.095518 
L 488.37659 456.763621 
L 487.367523 450.392627 
L 486.581416 443.990298 
L 486.019226 437.564434 
L 485.681638 431.122864 
L 485.569062 424.673437 
L 485.681638 418.224011 
L 486.019226 411.782441 
L 486.581416 405.356577 
L 487.367523 398.954248 
L 488.37659 392.583254 
L 489.607386 386.251357 
L 491.058412 379.966271 
L 492.727901 373.735654 
L 494.613818 367.567097 
L 496.713866 361.468115 
L 499.025486 355.446139 
L 501.545862 349.508506 
L 504.271923 343.66245 
L 507.200347 337.915093 
L 510.327568 332.273437 
L 513.649774 326.744357 
L 517.162919 321.334589 
L 520.862722 316.050723 
L 524.744675 310.899197 
L 528.804049 305.886287 
L 533.035899 301.018101 
L 537.435067 296.300571 
L 541.996196 291.739442 
L 546.713726 287.340274 
L 551.581912 283.108424 
L 556.594822 279.04905 
L 561.746348 275.167097 
L 567.030214 271.467294 
L 572.439982 267.954149 
L 577.969062 264.631943 
L 583.610718 261.504722 
L 589.358075 258.576298 
L 595.204131 255.850237 
L 601.141764 253.329861 
L 607.16374 251.018241 
L 613.262722 248.918193 
L 619.431279 247.032276 
L 625.661896 245.362787 
L 631.946982 243.911761 
L 638.278879 242.680965 
L 644.649873 241.671898 
L 651.052202 240.885791 
L 657.478066 240.323601 
L 663.919636 239.986013 
L 670.369062 239.873437 
L 670.369062 239.873437 
" style="fill:none;stroke:#b0b0b0;stroke-linecap:square;stroke-width:0.8;"/>
     </g>
     <g id="text_10">
      <!-- B1 -->
      <defs>
       <path d="M 19.671875 34.8125 
L 19.671875 8.109375 
L 35.5 8.109375 
Q 43.453125 8.109375 47.28125 11.40625 
Q 51.125 14.703125 51.125 21.484375 
Q 51.125 28.328125 47.28125 31.5625 
Q 43.453125 34.8125 35.5 34.8125 
z
M 19.671875 64.796875 
L 19.671875 42.828125 
L 34.28125 42.828125 
Q 41.5 42.828125 45.03125 45.53125 
Q 48.578125 48.25 48.578125 53.8125 
Q 48.578125 59.328125 45.03125 62.0625 
Q 41.5 64.796875 34.28125 64.796875 
z
M 9.8125 72.90625 
L 35.015625 72.90625 
Q 46.296875 72.90625 52.390625 68.21875 
Q 58.5 63.53125 58.5 54.890625 
Q 58.5 48.1875 55.375 44.234375 
Q 52.25 40.28125 46.1875 39.3125 
Q 53.46875 37.75 57.5 32.78125 
Q 61.53125 27.828125 61.53125 20.40625 
Q 61.53125 10.640625 54.890625 5.3125 
Q 48.25 0 35.984375 0 
L 9.8125 0 
z
" id="DejaVuSans-66"/>
      </defs>
      <g style="fill:#808080;opacity:0.9;" transform="translate(569.833961 575.574481)scale(0.2 -0.2)">
       <use xlink:href="#DejaVuSans-66"/>
       <use x="68.603516" xlink:href="#DejaVuSans-49"/>
      </g>
     </g>
    </g>
    <g id="ytick_4">
     <g id="line2d_11">
      <path clip-path="url(#p1b904a49ef)" d="M 670.369062 178.273437 
L 678.968298 178.423538 
L 687.557058 178.873656 
L 696.124876 179.623242 
L 704.661315 180.671385 
L 713.155973 182.016807 
L 721.598503 183.657869 
L 729.978618 185.592571 
L 738.286107 187.818556 
L 746.51085 190.333112 
L 754.642826 193.133176 
L 762.672127 196.215336 
L 770.588971 199.575837 
L 778.383713 203.210584 
L 786.046856 207.115151 
L 793.569062 211.284778 
L 800.941169 215.714387 
L 808.154194 220.39858 
L 815.199349 225.33165 
L 822.06805 230.507588 
L 828.75193 235.920087 
L 835.242844 241.562553 
L 841.532885 247.428111 
L 847.614389 253.509615 
L 853.479947 259.799656 
L 859.122413 266.29057 
L 864.534912 272.97445 
L 869.71085 279.843151 
L 874.64392 286.888306 
L 879.328113 294.101331 
L 883.757722 301.473437 
L 887.927349 308.995644 
L 891.831916 316.658787 
L 895.466663 324.453529 
L 898.827164 332.370373 
L 901.909324 340.399674 
L 904.709388 348.53165 
L 907.223944 356.756393 
L 909.449929 365.063882 
L 911.384631 373.443997 
L 913.025693 381.886527 
L 914.371115 390.381185 
L 915.419258 398.917624 
L 916.168844 407.485442 
L 916.618962 416.074202 
L 916.769062 424.673437 
L 916.618962 433.272673 
L 916.168844 441.861433 
L 915.419258 450.429251 
L 914.371115 458.96569 
L 913.025693 467.460348 
L 911.384631 475.902878 
L 909.449929 484.282993 
L 907.223944 492.590482 
L 904.709388 500.815225 
L 901.909324 508.947201 
L 898.827164 516.976502 
L 895.466663 524.893346 
L 891.831916 532.688088 
L 887.927349 540.351231 
L 883.757722 547.873437 
L 879.328113 555.245544 
L 874.64392 562.458569 
L 869.71085 569.503724 
L 864.534912 576.372425 
L 859.122413 583.056305 
L 853.479947 589.547219 
L 847.614389 595.83726 
L 841.532885 601.918764 
L 835.242844 607.784322 
L 828.75193 613.426788 
L 822.06805 618.839287 
L 815.199349 624.015225 
L 808.154194 628.948295 
L 800.941169 633.632488 
L 793.569062 638.062097 
L 786.046856 642.231724 
L 778.383713 646.136291 
L 770.588971 649.771038 
L 762.672127 653.131539 
L 754.642826 656.213699 
L 746.51085 659.013763 
L 738.286107 661.528319 
L 729.978618 663.754304 
L 721.598503 665.689006 
L 713.155973 667.330068 
L 704.661315 668.67549 
L 696.124876 669.723633 
L 687.557058 670.473219 
L 678.968298 670.923337 
L 670.369062 671.073437 
L 661.769827 670.923337 
L 653.181067 670.473219 
L 644.613249 669.723633 
L 636.07681 668.67549 
L 627.582152 667.330068 
L 619.139622 665.689006 
L 610.759507 663.754304 
L 602.452018 661.528319 
L 594.227275 659.013763 
L 586.095299 656.213699 
L 578.065998 653.131539 
L 570.149154 649.771038 
L 562.354412 646.136291 
L 554.691269 642.231724 
L 547.169062 638.062097 
L 539.796956 633.632488 
L 532.583931 628.948295 
L 525.538776 624.015225 
L 518.670075 618.839287 
L 511.986195 613.426788 
L 505.495281 607.784322 
L 499.20524 601.918764 
L 493.123736 595.83726 
L 487.258178 589.547219 
L 481.615712 583.056305 
L 476.203213 576.372425 
L 471.027275 569.503724 
L 466.094205 562.458569 
L 461.410012 555.245544 
L 456.980403 547.873437 
L 452.810776 540.351231 
L 448.906209 532.688088 
L 445.271462 524.893346 
L 441.910961 516.976502 
L 438.828801 508.947201 
L 436.028737 500.815225 
L 433.514181 492.590482 
L 431.288196 484.282993 
L 429.353494 475.902878 
L 427.712432 467.460348 
L 426.36701 458.96569 
L 425.318867 450.429251 
L 424.569281 441.861433 
L 424.119163 433.272673 
L 423.969063 424.673437 
L 424.119163 416.074202 
L 424.569281 407.485442 
L 425.318867 398.917624 
L 426.36701 390.381185 
L 427.712432 381.886527 
L 429.353494 373.443997 
L 431.288196 365.063882 
L 433.514181 356.756393 
L 436.028737 348.53165 
L 438.828801 340.399674 
L 441.910961 332.370373 
L 445.271462 324.453529 
L 448.906209 316.658787 
L 452.810776 308.995644 
L 456.980403 301.473437 
L 461.410012 294.101331 
L 466.094205 286.888306 
L 471.027275 279.843151 
L 476.203213 272.97445 
L 481.615712 266.29057 
L 487.258178 259.799656 
L 493.123736 253.509615 
L 499.20524 247.428111 
L 505.495281 241.562553 
L 511.986195 235.920087 
L 518.670075 230.507588 
L 525.538776 225.33165 
L 532.583931 220.39858 
L 539.796956 215.714387 
L 547.169062 211.284778 
L 554.691269 207.115151 
L 562.354412 203.210584 
L 570.149154 199.575837 
L 578.065998 196.215336 
L 586.095299 193.133176 
L 594.227275 190.333112 
L 602.452018 187.818556 
L 610.759507 185.592571 
L 619.139622 183.657869 
L 627.582152 182.016807 
L 636.07681 180.671385 
L 644.613249 179.623242 
L 653.181067 178.873656 
L 661.769827 178.423538 
L 670.369062 178.273437 
L 670.369062 178.273437 
" style="fill:none;stroke:#b0b0b0;stroke-linecap:square;stroke-width:0.8;"/>
     </g>
     <g id="text_11">
      <!-- B2 -->
      <g style="fill:#808080;opacity:0.9;" transform="translate(536.322261 627.261287)scale(0.2 -0.2)">
       <use xlink:href="#DejaVuSans-66"/>
       <use x="68.603516" xlink:href="#DejaVuSans-50"/>
      </g>
     </g>
    </g>
    <g id="ytick_5">
     <g id="line2d_12">
      <path clip-path="url(#p1b904a49ef)" d="M 670.369062 116.673437 
L 681.118107 116.861063 
L 691.854056 117.42371 
L 702.563829 118.360694 
L 713.234378 119.670872 
L 723.852701 121.35265 
L 734.405863 123.403976 
L 744.881006 125.822354 
L 755.265368 128.604835 
L 765.546297 131.74803 
L 775.711267 135.24811 
L 785.747893 139.10081 
L 795.643949 143.301437 
L 805.387376 147.844871 
L 814.966304 152.725579 
L 824.369062 157.937613 
L 833.584196 163.474624 
L 842.600477 169.329865 
L 851.40692 175.496203 
L 859.992797 181.966125 
L 868.347646 188.731749 
L 876.461289 195.784831 
L 884.323841 203.116779 
L 891.925721 210.718659 
L 899.257669 218.581211 
L 906.310751 226.694854 
L 913.076375 235.049703 
L 919.546297 243.63558 
L 925.712635 252.442023 
L 931.567876 261.458304 
L 937.104887 270.673437 
L 942.316921 280.076196 
L 947.197629 289.655124 
L 951.741063 299.398551 
L 955.94169 309.294607 
L 959.79439 319.331233 
L 963.29447 329.496203 
L 966.437665 339.777132 
L 969.220146 350.161494 
L 971.638524 360.636637 
L 973.68985 371.189799 
L 975.371628 381.808122 
L 976.681806 392.478671 
L 977.61879 403.188444 
L 978.181437 413.924393 
L 978.369062 424.673437 
L 978.181437 435.422482 
L 977.61879 446.158431 
L 976.681806 456.868204 
L 975.371628 467.538753 
L 973.68985 478.157076 
L 971.638524 488.710238 
L 969.220146 499.185381 
L 966.437665 509.569743 
L 963.29447 519.850672 
L 959.79439 530.015642 
L 955.94169 540.052268 
L 951.741063 549.948324 
L 947.197629 559.691751 
L 942.316921 569.270679 
L 937.104887 578.673437 
L 931.567876 587.888571 
L 925.712635 596.904852 
L 919.546297 605.711295 
L 913.076375 614.297172 
L 906.310751 622.652021 
L 899.257669 630.765664 
L 891.925721 638.628216 
L 884.323841 646.230096 
L 876.461289 653.562044 
L 868.347646 660.615126 
L 859.992797 667.38075 
L 851.40692 673.850672 
L 842.600477 680.01701 
L 833.584196 685.872251 
L 824.369062 691.409262 
L 814.966304 696.621296 
L 805.387376 701.502004 
L 795.643949 706.045438 
L 785.747893 710.246065 
L 775.711267 714.098765 
L 765.546297 717.598845 
L 755.265368 720.74204 
L 744.881006 723.524521 
L 734.405863 725.942899 
L 723.852701 727.994225 
L 713.234378 729.676003 
L 702.563829 730.986181 
L 691.854056 731.923165 
L 681.118107 732.485812 
L 670.369062 732.673437 
L 659.620018 732.485812 
L 648.884069 731.923165 
L 638.174296 730.986181 
L 627.503747 729.676003 
L 616.885424 727.994225 
L 606.332262 725.942899 
L 595.857119 723.524521 
L 585.472757 720.74204 
L 575.191828 717.598845 
L 565.026858 714.098765 
L 554.990232 710.246065 
L 545.094176 706.045438 
L 535.350749 701.502004 
L 525.771821 696.621296 
L 516.369062 691.409262 
L 507.153929 685.872251 
L 498.137648 680.01701 
L 489.331205 673.850672 
L 480.745328 667.38075 
L 472.390479 660.615126 
L 464.276836 653.562044 
L 456.414284 646.230096 
L 448.812404 638.628216 
L 441.480456 630.765664 
L 434.427374 622.652021 
L 427.66175 614.297172 
L 421.191828 605.711295 
L 415.02549 596.904852 
L 409.170249 587.888571 
L 403.633238 578.673437 
L 398.421204 569.270679 
L 393.540496 559.691751 
L 388.997062 549.948324 
L 384.796435 540.052268 
L 380.943735 530.015642 
L 377.443655 519.850672 
L 374.30046 509.569743 
L 371.517979 499.185381 
L 369.099601 488.710238 
L 367.048275 478.157076 
L 365.366497 467.538753 
L 364.056319 456.868204 
L 363.119335 446.158431 
L 362.556688 435.422482 
L 362.369063 424.673437 
L 362.556688 413.924393 
L 363.119335 403.188444 
L 364.056319 392.478671 
L 365.366497 381.808122 
L 367.048275 371.189799 
L 369.099601 360.636637 
L 371.517979 350.161494 
L 374.30046 339.777132 
L 377.443655 329.496203 
L 380.943735 319.331233 
L 384.796435 309.294607 
L 388.997062 299.398551 
L 393.540496 289.655124 
L 398.421204 280.076196 
L 403.633238 270.673437 
L 409.170249 261.458304 
L 415.02549 252.442023 
L 421.191828 243.63558 
L 427.66175 235.049703 
L 434.427374 226.694854 
L 441.480456 218.581211 
L 448.812404 210.718659 
L 456.414284 203.116779 
L 464.276836 195.784831 
L 472.390479 188.731749 
L 480.745328 181.966125 
L 489.331205 175.496203 
L 498.137648 169.329865 
L 507.153929 163.474624 
L 516.369062 157.937613 
L 525.771821 152.725579 
L 535.350749 147.844871 
L 545.094176 143.301437 
L 554.990232 139.10081 
L 565.026858 135.24811 
L 575.191828 131.74803 
L 585.472757 128.604835 
L 595.857119 125.822354 
L 606.332262 123.403976 
L 616.885424 121.35265 
L 627.503747 119.670872 
L 638.174296 118.360694 
L 648.884069 117.42371 
L 659.620018 116.861063 
L 670.369062 116.673437 
L 670.369062 116.673437 
" style="fill:none;stroke:#b0b0b0;stroke-linecap:square;stroke-width:0.8;"/>
     </g>
     <g id="text_12">
      <!-- C1 -->
      <defs>
       <path d="M 64.40625 67.28125 
L 64.40625 56.890625 
Q 59.421875 61.53125 53.78125 63.8125 
Q 48.140625 66.109375 41.796875 66.109375 
Q 29.296875 66.109375 22.65625 58.46875 
Q 16.015625 50.828125 16.015625 36.375 
Q 16.015625 21.96875 22.65625 14.328125 
Q 29.296875 6.6875 41.796875 6.6875 
Q 48.140625 6.6875 53.78125 8.984375 
Q 59.421875 11.28125 64.40625 15.921875 
L 64.40625 5.609375 
Q 59.234375 2.09375 53.4375 0.328125 
Q 47.65625 -1.421875 41.21875 -1.421875 
Q 24.65625 -1.421875 15.125 8.703125 
Q 5.609375 18.84375 5.609375 36.375 
Q 5.609375 53.953125 15.125 64.078125 
Q 24.65625 74.21875 41.21875 74.21875 
Q 47.75 74.21875 53.53125 72.484375 
Q 59.328125 70.75 64.40625 67.28125 
z
" id="DejaVuSans-67"/>
      </defs>
      <g style="fill:#808080;opacity:0.9;" transform="translate(502.81056 678.948093)scale(0.2 -0.2)">
       <use xlink:href="#DejaVuSans-67"/>
       <use x="69.824219" xlink:href="#DejaVuSans-49"/>
      </g>
     </g>
    </g>
    <g id="ytick_6">
     <g id="line2d_13">
      <path clip-path="url(#p1b904a49ef)" d="M 670.369062 55.073437 
L 683.267916 55.298588 
L 696.151055 55.973765 
L 709.002783 57.098145 
L 721.807441 58.670359 
L 734.549429 60.688492 
L 747.213223 63.150084 
L 759.783395 66.052137 
L 772.244629 69.391115 
L 784.581744 73.162949 
L 796.779707 77.363045 
L 808.823659 81.986285 
L 820.698926 87.027036 
L 832.391038 92.479158 
L 843.885752 98.336007 
L 855.169062 104.590448 
L 866.227223 111.234861 
L 877.04676 118.261151 
L 887.614492 125.660756 
L 897.917544 133.424663 
L 907.943363 141.543411 
L 917.679735 150.00711 
L 927.114796 158.805447 
L 936.237053 167.927704 
L 945.03539 177.362765 
L 953.499089 187.099137 
L 961.617837 197.124956 
L 969.381744 207.428008 
L 976.781349 217.99574 
L 983.807639 228.815277 
L 990.452052 239.873437 
L 996.706493 251.156748 
L 1002.563342 262.651462 
L 1008.015464 274.343574 
L 1013.056215 286.218841 
L 1017.679455 298.262793 
L 1021.879551 310.460756 
L 1025.651385 322.797871 
L 1028.990363 335.259105 
L 1031.892416 347.829277 
L 1034.354008 360.493071 
L 1036.372141 373.235059 
L 1037.944355 386.039717 
L 1039.068735 398.891445 
L 1039.743912 411.774584 
L 1039.969062 424.673437 
L 1039.743912 437.572291 
L 1039.068735 450.45543 
L 1037.944355 463.307158 
L 1036.372141 476.111816 
L 1034.354008 488.853804 
L 1031.892416 501.517598 
L 1028.990363 514.08777 
L 1025.651385 526.549004 
L 1021.879551 538.886119 
L 1017.679455 551.084082 
L 1013.056215 563.128034 
L 1008.015464 575.003301 
L 1002.563342 586.695413 
L 996.706493 598.190127 
L 990.452052 609.473437 
L 983.807639 620.531598 
L 976.781349 631.351135 
L 969.381744 641.918867 
L 961.617837 652.221919 
L 953.499089 662.247738 
L 945.03539 671.98411 
L 936.237053 681.419171 
L 927.114796 690.541428 
L 917.679735 699.339765 
L 907.943363 707.803464 
L 897.917544 715.922212 
L 887.614492 723.686119 
L 877.04676 731.085724 
L 866.227223 738.112014 
L 855.169062 744.756427 
L 843.885752 751.010868 
L 832.391038 756.867717 
L 820.698926 762.319839 
L 808.823659 767.36059 
L 796.779707 771.98383 
L 784.581744 776.183926 
L 772.244629 779.95576 
L 759.783395 783.294738 
L 747.213223 786.196791 
L 734.549429 788.658383 
L 721.807441 790.676516 
L 709.002783 792.24873 
L 696.151055 793.37311 
L 683.267916 794.048287 
L 670.369062 794.273437 
L 657.470209 794.048287 
L 644.58707 793.37311 
L 631.735342 792.24873 
L 618.930684 790.676516 
L 606.188696 788.658383 
L 593.524902 786.196791 
L 580.95473 783.294738 
L 568.493496 779.95576 
L 556.156381 776.183926 
L 543.958418 771.98383 
L 531.914466 767.36059 
L 520.039199 762.319839 
L 508.347087 756.867717 
L 496.852373 751.010868 
L 485.569062 744.756427 
L 474.510902 738.112014 
L 463.691365 731.085724 
L 453.123633 723.686119 
L 442.820581 715.922212 
L 432.794762 707.803464 
L 423.05839 699.339765 
L 413.623329 690.541428 
L 404.501072 681.419171 
L 395.702735 671.98411 
L 387.239036 662.247738 
L 379.120288 652.221919 
L 371.356381 641.918867 
L 363.956776 631.351135 
L 356.930486 620.531598 
L 350.286073 609.473438 
L 344.031632 598.190127 
L 338.174783 586.695413 
L 332.722661 575.003301 
L 327.68191 563.128034 
L 323.05867 551.084082 
L 318.858574 538.886119 
L 315.08674 526.549004 
L 311.747762 514.08777 
L 308.845709 501.517598 
L 306.384117 488.853804 
L 304.365984 476.111816 
L 302.79377 463.307158 
L 301.66939 450.45543 
L 300.994213 437.572291 
L 300.769063 424.673437 
L 300.994213 411.774584 
L 301.66939 398.891445 
L 302.79377 386.039717 
L 304.365984 373.235059 
L 306.384117 360.493071 
L 308.845709 347.829277 
L 311.747762 335.259105 
L 315.08674 322.797871 
L 318.858574 310.460756 
L 323.05867 298.262793 
L 327.68191 286.218841 
L 332.722661 274.343574 
L 338.174783 262.651462 
L 344.031632 251.156748 
L 350.286073 239.873437 
L 356.930486 228.815277 
L 363.956776 217.99574 
L 371.356381 207.428008 
L 379.120288 197.124956 
L 387.239036 187.099137 
L 395.702735 177.362765 
L 404.501072 167.927704 
L 413.623329 158.805447 
L 423.05839 150.00711 
L 432.794762 141.543411 
L 442.820581 133.424663 
L 453.123633 125.660756 
L 463.691365 118.261151 
L 474.510902 111.234861 
L 485.569062 104.590448 
L 496.852373 98.336007 
L 508.347087 92.479158 
L 520.039199 87.027036 
L 531.914466 81.986285 
L 543.958418 77.363045 
L 556.156381 73.162949 
L 568.493496 69.391115 
L 580.95473 66.052137 
L 593.524902 63.150084 
L 606.188696 60.688492 
L 618.930684 58.670359 
L 631.735342 57.098145 
L 644.58707 55.973765 
L 657.470209 55.298588 
L 670.369062 55.073437 
L 670.369062 55.073437 
" style="fill:none;stroke:#b0b0b0;stroke-linecap:square;stroke-width:0.8;"/>
     </g>
     <g id="text_13">
      <!-- C2 -->
      <g style="fill:#808080;opacity:0.9;" transform="translate(469.29886 730.6349)scale(0.2 -0.2)">
       <use xlink:href="#DejaVuSans-67"/>
       <use x="69.824219" xlink:href="#DejaVuSans-50"/>
      </g>
     </g>
    </g>
   </g>
   <g id="line2d_14">
    <path clip-path="url(#p1b904a49ef)" d="M 670.369062 55.073437 
L 766.690701 347.859494 
L 730.424622 438.380727 
L 697.096301 480.17312 
L 670.369062 424.673437 
L 670.369062 424.673437 
L 670.369062 424.673437 
L 670.369062 55.073437 
" style="fill:none;stroke:#bebada;stroke-linecap:square;stroke-opacity:0.75;stroke-width:4.5;"/>
   </g>
   <g id="line2d_15">
    <path clip-path="url(#p1b904a49ef)" d="M 670.369062 424.673437 
L 670.369062 424.673437 
L 670.369062 424.673437 
L 670.369062 424.673437 
L 510.005633 757.671531 
L 430.146825 479.502596 
L 574.047424 347.859494 
L 670.369062 424.673437 
" style="fill:none;stroke:#b3de69;stroke-linecap:square;stroke-opacity:0.75;stroke-width:4.5;"/>
   </g>
   <g id="text_14">
    <!-- Language Skills -->
    <defs>
     <path d="M 9.8125 72.90625 
L 19.671875 72.90625 
L 19.671875 8.296875 
L 55.171875 8.296875 
L 55.171875 0 
L 9.8125 0 
z
" id="DejaVuSans-76"/>
     <path id="DejaVuSans-32"/>
     <path d="M 9.078125 75.984375 
L 18.109375 75.984375 
L 18.109375 31.109375 
L 44.921875 54.6875 
L 56.390625 54.6875 
L 27.390625 29.109375 
L 57.625 0 
L 45.90625 0 
L 18.109375 26.703125 
L 18.109375 0 
L 9.078125 0 
z
" id="DejaVuSans-107"/>
    </defs>
    <g style="opacity:0.7;" transform="translate(513.940937 899.153437)scale(0.4 -0.4)">
     <use xlink:href="#DejaVuSans-76"/>
     <use x="55.712891" xlink:href="#DejaVuSans-97"/>
     <use x="116.992188" xlink:href="#DejaVuSans-110"/>
     <use x="180.371094" xlink:href="#DejaVuSans-103"/>
     <use x="243.847656" xlink:href="#DejaVuSans-117"/>
     <use x="307.226562" xlink:href="#DejaVuSans-97"/>
     <use x="368.505859" xlink:href="#DejaVuSans-103"/>
     <use x="431.982422" xlink:href="#DejaVuSans-101"/>
     <use x="493.505859" xlink:href="#DejaVuSans-32"/>
     <use x="525.292969" xlink:href="#DejaVuSans-83"/>
     <use x="588.769531" xlink:href="#DejaVuSans-107"/>
     <use x="646.679688" xlink:href="#DejaVuSans-105"/>
     <use x="674.462891" xlink:href="#DejaVuSans-108"/>
     <use x="702.246094" xlink:href="#DejaVuSans-108"/>
     <use x="730.029297" xlink:href="#DejaVuSans-115"/>
    </g>
   </g>
   <g id="legend_1">
    <g id="patch_4">
     <path d="M 14.2 851.100312 
L 350.189062 851.100312 
Q 357.189062 851.100312 357.189062 844.100312 
L 357.189062 744.853437 
Q 357.189062 737.853437 350.189062 737.853437 
L 14.2 737.853437 
Q 7.2 737.853437 7.2 744.853437 
L 7.2 844.100312 
Q 7.2 851.100312 14.2 851.100312 
z
" style="fill:#ffffff;opacity:0.8;stroke:#cccccc;stroke-linejoin:miter;"/>
    </g>
    <g id="line2d_16">
     <path d="M 21.2 766.197969 
L 91.2 766.197969 
" style="fill:none;stroke:#bebada;stroke-linecap:square;stroke-opacity:0.75;stroke-width:4.5;"/>
    </g>
    <g id="line2d_17"/>
    <g id="text_15">
     <!-- International -->
     <defs>
      <path d="M 30.609375 48.390625 
Q 23.390625 48.390625 19.1875 42.75 
Q 14.984375 37.109375 14.984375 27.296875 
Q 14.984375 17.484375 19.15625 11.84375 
Q 23.34375 6.203125 30.609375 6.203125 
Q 37.796875 6.203125 41.984375 11.859375 
Q 46.1875 17.53125 46.1875 27.296875 
Q 46.1875 37.015625 41.984375 42.703125 
Q 37.796875 48.390625 30.609375 48.390625 
z
M 30.609375 56 
Q 42.328125 56 49.015625 48.375 
Q 55.71875 40.765625 55.71875 27.296875 
Q 55.71875 13.875 49.015625 6.21875 
Q 42.328125 -1.421875 30.609375 -1.421875 
Q 18.84375 -1.421875 12.171875 6.21875 
Q 5.515625 13.875 5.515625 27.296875 
Q 5.515625 40.765625 12.171875 48.375 
Q 18.84375 56 30.609375 56 
z
" id="DejaVuSans-111"/>
     </defs>
     <g style="fill:#808080;opacity:0.9;" transform="translate(119.2 778.447969)scale(0.35 -0.35)">
      <use xlink:href="#DejaVuSans-73"/>
      <use x="29.492188" xlink:href="#DejaVuSans-110"/>
      <use x="92.871094" xlink:href="#DejaVuSans-116"/>
      <use x="132.080078" xlink:href="#DejaVuSans-101"/>
      <use x="193.603516" xlink:href="#DejaVuSans-114"/>
      <use x="234.701172" xlink:href="#DejaVuSans-110"/>
      <use x="298.080078" xlink:href="#DejaVuSans-97"/>
      <use x="359.359375" xlink:href="#DejaVuSans-116"/>
      <use x="398.568359" xlink:href="#DejaVuSans-105"/>
      <use x="426.351562" xlink:href="#DejaVuSans-111"/>
      <use x="487.533203" xlink:href="#DejaVuSans-110"/>
      <use x="550.912109" xlink:href="#DejaVuSans-97"/>
      <use x="612.191406" xlink:href="#DejaVuSans-108"/>
     </g>
    </g>
    <g id="line2d_18">
     <path d="M 21.2 817.571406 
L 91.2 817.571406 
" style="fill:none;stroke:#b3de69;stroke-linecap:square;stroke-opacity:0.75;stroke-width:4.5;"/>
    </g>
    <g id="line2d_19"/>
    <g id="text_16">
     <!-- Indian -->
     <g style="fill:#808080;opacity:0.9;" transform="translate(119.2 829.821406)scale(0.35 -0.35)">
      <use xlink:href="#DejaVuSans-73"/>
      <use x="29.492188" xlink:href="#DejaVuSans-110"/>
      <use x="92.871094" xlink:href="#DejaVuSans-100"/>
      <use x="156.347656" xlink:href="#DejaVuSans-105"/>
      <use x="184.130859" xlink:href="#DejaVuSans-97"/>
      <use x="245.410156" xlink:href="#DejaVuSans-110"/>
     </g>
    </g>
   </g>
  </g>
 </g>
 <defs>
  <clipPath id="p1b904a49ef">
   <path d="M 1039.969062 424.673437 
C 1039.969062 376.13801 1030.408642 328.074529 1011.834938 283.233641 
C 993.261234 238.392753 966.035459 197.646501 931.715729 163.326771 
C 897.395999 129.007041 856.649747 101.781266 811.808859 83.207562 
C 766.967971 64.633858 718.90449 55.073437 670.369062 55.073437 
C 621.833635 55.073437 573.770154 64.633858 528.929266 83.207562 
C 484.088378 101.781266 443.342126 129.007041 409.022396 163.326771 
C 374.702666 197.646501 347.476891 238.392753 328.903187 283.233641 
C 310.329483 328.074529 300.769063 376.13801 300.769063 424.673437 
C 300.769063 473.208865 310.329483 521.272346 328.903187 566.113234 
C 347.476891 610.954122 374.702666 651.700374 409.022396 686.020104 
C 443.342126 720.339834 484.088378 747.565609 528.929266 766.139313 
C 573.770154 784.713017 621.833635 794.273437 670.369062 794.273437 
C 718.90449 794.273437 766.967971 784.713017 811.808859 766.139313 
C 856.649747 747.565609 897.395999 720.339834 931.715729 686.020104 
C 966.035459 651.700374 993.261234 610.954122 1011.834938 566.113234 
C 1030.408642 521.272346 1039.969062 473.208865 1039.969062 424.673437 
M 670.369062 424.673437 
C 670.369062 424.673437 670.369062 424.673437 670.369062 424.673437 
C 670.369062 424.673437 670.369062 424.673437 670.369062 424.673437 
C 670.369062 424.673437 670.369062 424.673437 670.369062 424.673437 
C 670.369062 424.673437 670.369062 424.673437 670.369062 424.673437 
C 670.369062 424.673437 670.369062 424.673437 670.369062 424.673437 
C 670.369062 424.673437 670.369062 424.673437 670.369062 424.673437 
C 670.369062 424.673437 670.369062 424.673437 670.369062 424.673437 
C 670.369062 424.673437 670.369062 424.673437 670.369062 424.673437 
C 670.369062 424.673437 670.369062 424.673437 670.369062 424.673437 
C 670.369062 424.673437 670.369062 424.673437 670.369062 424.673437 
C 670.369062 424.673437 670.369062 424.673437 670.369062 424.673437 
C 670.369062 424.673437 670.369062 424.673437 670.369062 424.673437 
C 670.369062 424.673437 670.369062 424.673437 670.369062 424.673437 
C 670.369062 424.673437 670.369062 424.673437 670.369062 424.673437 
C 670.369062 424.673437 670.369062 424.673437 670.369062 424.673437 
C 670.369062 424.673437 670.369062 424.673437 670.369062 424.673437 
M 1039.969062 424.673437 
z
"/>
  </clipPath>
 </defs>
</svg>
